G04 #@! TF.GenerationSoftware,KiCad,Pcbnew,(5.1.2)-1*
G04 #@! TF.CreationDate,2019-07-19T10:40:57+09:00*
G04 #@! TF.ProjectId,Chip_da_Tunetaro,43686970-5f64-4615-9f54-756e65746172,rev?*
G04 #@! TF.SameCoordinates,Original*
G04 #@! TF.FileFunction,Legend,Top*
G04 #@! TF.FilePolarity,Positive*
%FSLAX46Y46*%
G04 Gerber Fmt 4.6, Leading zero omitted, Abs format (unit mm)*
G04 Created by KiCad (PCBNEW (5.1.2)-1) date 2019-07-19 10:40:57*
%MOMM*%
%LPD*%
G04 APERTURE LIST*
%ADD10C,0.150000*%
%ADD11C,0.010000*%
%ADD12C,0.120000*%
G04 APERTURE END LIST*
D10*
X105964285Y-128785714D02*
X105964285Y-129785714D01*
X105964285Y-128833333D02*
X106059523Y-128785714D01*
X106250000Y-128785714D01*
X106345238Y-128833333D01*
X106392857Y-128880952D01*
X106440476Y-128976190D01*
X106440476Y-129261904D01*
X106392857Y-129357142D01*
X106345238Y-129404761D01*
X106250000Y-129452380D01*
X106059523Y-129452380D01*
X105964285Y-129404761D01*
X107011904Y-129452380D02*
X106916666Y-129404761D01*
X106869047Y-129357142D01*
X106821428Y-129261904D01*
X106821428Y-128976190D01*
X106869047Y-128880952D01*
X106916666Y-128833333D01*
X107011904Y-128785714D01*
X107154761Y-128785714D01*
X107250000Y-128833333D01*
X107297619Y-128880952D01*
X107345238Y-128976190D01*
X107345238Y-129261904D01*
X107297619Y-129357142D01*
X107250000Y-129404761D01*
X107154761Y-129452380D01*
X107011904Y-129452380D01*
X107773809Y-129452380D02*
X107773809Y-128452380D01*
X107869047Y-129071428D02*
X108154761Y-129452380D01*
X108154761Y-128785714D02*
X107773809Y-129166666D01*
X108964285Y-129404761D02*
X108869047Y-129452380D01*
X108678571Y-129452380D01*
X108583333Y-129404761D01*
X108535714Y-129309523D01*
X108535714Y-128928571D01*
X108583333Y-128833333D01*
X108678571Y-128785714D01*
X108869047Y-128785714D01*
X108964285Y-128833333D01*
X109011904Y-128928571D01*
X109011904Y-129023809D01*
X108535714Y-129119047D01*
X109440476Y-128785714D02*
X109440476Y-129785714D01*
X109440476Y-128833333D02*
X109535714Y-128785714D01*
X109726190Y-128785714D01*
X109821428Y-128833333D01*
X109869047Y-128880952D01*
X109916666Y-128976190D01*
X109916666Y-129261904D01*
X109869047Y-129357142D01*
X109821428Y-129404761D01*
X109726190Y-129452380D01*
X109535714Y-129452380D01*
X109440476Y-129404761D01*
X110345238Y-129452380D02*
X110345238Y-128785714D01*
X110345238Y-128452380D02*
X110297619Y-128500000D01*
X110345238Y-128547619D01*
X110392857Y-128500000D01*
X110345238Y-128452380D01*
X110345238Y-128547619D01*
X111250000Y-129404761D02*
X111154761Y-129452380D01*
X110964285Y-129452380D01*
X110869047Y-129404761D01*
X110821428Y-129357142D01*
X110773809Y-129261904D01*
X110773809Y-128976190D01*
X110821428Y-128880952D01*
X110869047Y-128833333D01*
X110964285Y-128785714D01*
X111154761Y-128785714D01*
X111250000Y-128833333D01*
X111821428Y-129452380D02*
X111726190Y-129404761D01*
X111678571Y-129357142D01*
X111630952Y-129261904D01*
X111630952Y-128976190D01*
X111678571Y-128880952D01*
X111726190Y-128833333D01*
X111821428Y-128785714D01*
X111964285Y-128785714D01*
X112059523Y-128833333D01*
X112107142Y-128880952D01*
X112154761Y-128976190D01*
X112154761Y-129261904D01*
X112107142Y-129357142D01*
X112059523Y-129404761D01*
X111964285Y-129452380D01*
X111821428Y-129452380D01*
X113345238Y-129452380D02*
X113345238Y-128785714D01*
X113345238Y-128976190D02*
X113392857Y-128880952D01*
X113440476Y-128833333D01*
X113535714Y-128785714D01*
X113630952Y-128785714D01*
X114345238Y-129404761D02*
X114250000Y-129452380D01*
X114059523Y-129452380D01*
X113964285Y-129404761D01*
X113916666Y-129309523D01*
X113916666Y-128928571D01*
X113964285Y-128833333D01*
X114059523Y-128785714D01*
X114250000Y-128785714D01*
X114345238Y-128833333D01*
X114392857Y-128928571D01*
X114392857Y-129023809D01*
X113916666Y-129119047D01*
X114726190Y-128785714D02*
X114964285Y-129452380D01*
X115202380Y-128785714D01*
X115583333Y-129357142D02*
X115630952Y-129404761D01*
X115583333Y-129452380D01*
X115535714Y-129404761D01*
X115583333Y-129357142D01*
X115583333Y-129452380D01*
X116583333Y-129452380D02*
X116011904Y-129452380D01*
X116297619Y-129452380D02*
X116297619Y-128452380D01*
X116202380Y-128595238D01*
X116107142Y-128690476D01*
X116011904Y-128738095D01*
D11*
G36*
X116487343Y-82805848D02*
G01*
X131138645Y-82812604D01*
X131310625Y-82871434D01*
X131576853Y-82988297D01*
X131820050Y-83146383D01*
X132032780Y-83339430D01*
X132207613Y-83561175D01*
X132284237Y-83691774D01*
X132306370Y-83732907D01*
X132326720Y-83769203D01*
X132345363Y-83802917D01*
X132362372Y-83836306D01*
X132377823Y-83871624D01*
X132391789Y-83911126D01*
X132404347Y-83957070D01*
X132415569Y-84011709D01*
X132425531Y-84077300D01*
X132434308Y-84156098D01*
X132441974Y-84250358D01*
X132448604Y-84362337D01*
X132454271Y-84494289D01*
X132459052Y-84648471D01*
X132463020Y-84827137D01*
X132466251Y-85032543D01*
X132468818Y-85266945D01*
X132470797Y-85532598D01*
X132472261Y-85831758D01*
X132473287Y-86166680D01*
X132473947Y-86539619D01*
X132474318Y-86952832D01*
X132474473Y-87408574D01*
X132474487Y-87909100D01*
X132474435Y-88456666D01*
X132474391Y-89053528D01*
X132474400Y-89439825D01*
X132474791Y-94638295D01*
X130302095Y-100070898D01*
X130056695Y-100684407D01*
X129830089Y-101250709D01*
X129621478Y-101771754D01*
X129430059Y-102249492D01*
X129255035Y-102685870D01*
X129095603Y-103082839D01*
X128950963Y-103442347D01*
X128820316Y-103766343D01*
X128702861Y-104056777D01*
X128597798Y-104315597D01*
X128504326Y-104544753D01*
X128421645Y-104746194D01*
X128348955Y-104921868D01*
X128285455Y-105073725D01*
X128230345Y-105203714D01*
X128182825Y-105313783D01*
X128142094Y-105405883D01*
X128107352Y-105481962D01*
X128077800Y-105543969D01*
X128052635Y-105593853D01*
X128031059Y-105633563D01*
X128012270Y-105665049D01*
X127995469Y-105690259D01*
X127993606Y-105692875D01*
X127802765Y-105914253D01*
X127574356Y-106101068D01*
X127313971Y-106249367D01*
X127076091Y-106340835D01*
X127050518Y-106347638D01*
X127018271Y-106353762D01*
X126976439Y-106359259D01*
X126922113Y-106364182D01*
X126852381Y-106368583D01*
X126764333Y-106372514D01*
X126655059Y-106376026D01*
X126521648Y-106379173D01*
X126361190Y-106382007D01*
X126170774Y-106384579D01*
X125947489Y-106386942D01*
X125688425Y-106389148D01*
X125390671Y-106391250D01*
X125051317Y-106393299D01*
X124667452Y-106395347D01*
X124236167Y-106397448D01*
X123811065Y-106399399D01*
X120690360Y-106413437D01*
X119769352Y-108715312D01*
X119636215Y-109048160D01*
X119508539Y-109367541D01*
X119387715Y-109669966D01*
X119275134Y-109951948D01*
X119172185Y-110209999D01*
X119080258Y-110440630D01*
X119000744Y-110640355D01*
X118935032Y-110805686D01*
X118884512Y-110933134D01*
X118850575Y-111019211D01*
X118834611Y-111060430D01*
X118833642Y-111063153D01*
X118832583Y-111075315D01*
X118841307Y-111085203D01*
X118864816Y-111093104D01*
X118908110Y-111099305D01*
X118976190Y-111104092D01*
X119074055Y-111107751D01*
X119206708Y-111110570D01*
X119379147Y-111112834D01*
X119596375Y-111114830D01*
X119757244Y-111116070D01*
X120695549Y-111123020D01*
X119287958Y-114641979D01*
X117880367Y-118160937D01*
X111915339Y-118180302D01*
X111140734Y-118182696D01*
X110418912Y-118184677D01*
X109749738Y-118186244D01*
X109133082Y-118187398D01*
X108568808Y-118188138D01*
X108056786Y-118188464D01*
X107596882Y-118188376D01*
X107188963Y-118187874D01*
X106832897Y-118186957D01*
X106528550Y-118185626D01*
X106275790Y-118183880D01*
X106074484Y-118181719D01*
X105924499Y-118179143D01*
X105825702Y-118176152D01*
X105778333Y-118172805D01*
X105659762Y-118145536D01*
X105528014Y-118102272D01*
X105434375Y-118062823D01*
X105295008Y-117978788D01*
X105153926Y-117865128D01*
X105025499Y-117735626D01*
X104924097Y-117604067D01*
X104885147Y-117536020D01*
X104825585Y-117413811D01*
X104891852Y-117269064D01*
X104989206Y-116999186D01*
X105048355Y-116706255D01*
X105067950Y-116405133D01*
X105046645Y-116110686D01*
X105012417Y-115938437D01*
X104905715Y-115622576D01*
X104754010Y-115332687D01*
X104560166Y-115072178D01*
X104327044Y-114844458D01*
X104057508Y-114652935D01*
X103834108Y-114535519D01*
X103640784Y-114447418D01*
X102983152Y-112792586D01*
X102871524Y-112512162D01*
X102765476Y-112246672D01*
X102666638Y-112000136D01*
X102576636Y-111776571D01*
X102497101Y-111579995D01*
X102429659Y-111414426D01*
X102375940Y-111283884D01*
X102337572Y-111192386D01*
X102316183Y-111143950D01*
X102312291Y-111137113D01*
X102301123Y-111161162D01*
X102271493Y-111231629D01*
X102224508Y-111345767D01*
X102161275Y-111500827D01*
X102082899Y-111694063D01*
X101990488Y-111922727D01*
X101885147Y-112184071D01*
X101767983Y-112475348D01*
X101640102Y-112793809D01*
X101502610Y-113136708D01*
X101356615Y-113501296D01*
X101203222Y-113884826D01*
X101043538Y-114284551D01*
X100892943Y-114661934D01*
X99486824Y-118187395D01*
X98306641Y-118194282D01*
X98062467Y-118195432D01*
X97835355Y-118195968D01*
X97630609Y-118195918D01*
X97453533Y-118195308D01*
X97309429Y-118194164D01*
X97203603Y-118192511D01*
X97141356Y-118190378D01*
X97126458Y-118188450D01*
X97136092Y-118162826D01*
X97164257Y-118090838D01*
X97209850Y-117975260D01*
X97271766Y-117818868D01*
X97348903Y-117624435D01*
X97440156Y-117394738D01*
X97544422Y-117132549D01*
X97660596Y-116840645D01*
X97787575Y-116521799D01*
X97924255Y-116178787D01*
X98069533Y-115814383D01*
X98222303Y-115431362D01*
X98381464Y-115032498D01*
X98518561Y-114689063D01*
X98682478Y-114278423D01*
X98841093Y-113880892D01*
X98993286Y-113499279D01*
X99137941Y-113136394D01*
X99273939Y-112795049D01*
X99400162Y-112478052D01*
X99515493Y-112188215D01*
X99618812Y-111928349D01*
X99709004Y-111701262D01*
X99784949Y-111509766D01*
X99845529Y-111356671D01*
X99889628Y-111244787D01*
X99916126Y-111176925D01*
X99923938Y-111156093D01*
X99924474Y-111145921D01*
X99917012Y-111137354D01*
X99908916Y-111134419D01*
X104693541Y-111134419D01*
X104703208Y-111164948D01*
X104730977Y-111239890D01*
X104774999Y-111354647D01*
X104833429Y-111504620D01*
X104904417Y-111685210D01*
X104986117Y-111891819D01*
X105076680Y-112119847D01*
X105174259Y-112364696D01*
X105277007Y-112621766D01*
X105383075Y-112886460D01*
X105490617Y-113154179D01*
X105597784Y-113420323D01*
X105702729Y-113680294D01*
X105803605Y-113929494D01*
X105898563Y-114163322D01*
X105985756Y-114377182D01*
X106063336Y-114566473D01*
X106129457Y-114726598D01*
X106182269Y-114852956D01*
X106219926Y-114940951D01*
X106240580Y-114985982D01*
X106242034Y-114988638D01*
X106401244Y-115212861D01*
X106600909Y-115413042D01*
X106830552Y-115579500D01*
X106955729Y-115648235D01*
X107052872Y-115694603D01*
X107140603Y-115731574D01*
X107226606Y-115760223D01*
X107318562Y-115781624D01*
X107424156Y-115796854D01*
X107551070Y-115806987D01*
X107706987Y-115813098D01*
X107899589Y-115816264D01*
X108136561Y-115817558D01*
X108166197Y-115817633D01*
X108900416Y-115819375D01*
X108900416Y-114654377D01*
X111255208Y-114654377D01*
X111255208Y-115819375D01*
X112203200Y-115819375D01*
X111969583Y-115237291D01*
X111735966Y-114655208D01*
X114102536Y-114655208D01*
X114800683Y-116401605D01*
X114916019Y-116689184D01*
X115025934Y-116961448D01*
X115128831Y-117214549D01*
X115223110Y-117444638D01*
X115307172Y-117647865D01*
X115379418Y-117820383D01*
X115438248Y-117958343D01*
X115482064Y-118057896D01*
X115509267Y-118115193D01*
X115518001Y-118128011D01*
X115530376Y-118101078D01*
X115560961Y-118028420D01*
X115608370Y-117913467D01*
X115671213Y-117759648D01*
X115748105Y-117570392D01*
X115837657Y-117349130D01*
X115938482Y-117099289D01*
X116049194Y-116824300D01*
X116168403Y-116527591D01*
X116294725Y-116212593D01*
X116426769Y-115882734D01*
X116462685Y-115792916D01*
X117388198Y-113477812D01*
X114354776Y-113471001D01*
X113958139Y-113470219D01*
X113576068Y-113469677D01*
X113211920Y-113469370D01*
X112869050Y-113469290D01*
X112550816Y-113469431D01*
X112260573Y-113469788D01*
X112001679Y-113470353D01*
X111777489Y-113471121D01*
X111591360Y-113472084D01*
X111446649Y-113473238D01*
X111346712Y-113474575D01*
X111294906Y-113476088D01*
X111288281Y-113476785D01*
X111279996Y-113491080D01*
X111273114Y-113529620D01*
X111267527Y-113596191D01*
X111263130Y-113694582D01*
X111259815Y-113828581D01*
X111257478Y-114001975D01*
X111256011Y-114218553D01*
X111255308Y-114482103D01*
X111255208Y-114654377D01*
X108900416Y-114654377D01*
X108900416Y-111708173D01*
X111625883Y-111708173D01*
X111651046Y-111858226D01*
X111719770Y-112001608D01*
X111823032Y-112125721D01*
X111951808Y-112217968D01*
X112009270Y-112243428D01*
X112133802Y-112268019D01*
X112276899Y-112264459D01*
X112415691Y-112235280D01*
X112521898Y-112186685D01*
X112646627Y-112076714D01*
X112731240Y-111944684D01*
X112776971Y-111799152D01*
X112785057Y-111648673D01*
X112756731Y-111501804D01*
X112693232Y-111367102D01*
X112595793Y-111253122D01*
X112465650Y-111168422D01*
X112369968Y-111134592D01*
X112232738Y-111099421D01*
X112353481Y-111068764D01*
X112503011Y-111004891D01*
X112633791Y-110898597D01*
X112731289Y-110763751D01*
X112768897Y-110680048D01*
X112785044Y-110598321D01*
X112784647Y-110492584D01*
X112784162Y-110484206D01*
X112750786Y-110312690D01*
X112677652Y-110167306D01*
X112572272Y-110052052D01*
X112442159Y-109970926D01*
X112294825Y-109927926D01*
X112137784Y-109927050D01*
X111978549Y-109972295D01*
X111900041Y-110013719D01*
X111771477Y-110122243D01*
X111681329Y-110260405D01*
X111635012Y-110417823D01*
X111631212Y-110529100D01*
X111666864Y-110703845D01*
X111744514Y-110853422D01*
X111859004Y-110971374D01*
X112005181Y-111051241D01*
X112061935Y-111068764D01*
X112182677Y-111099421D01*
X112045448Y-111134592D01*
X111896104Y-111198726D01*
X111773876Y-111303198D01*
X111684741Y-111439838D01*
X111634679Y-111600472D01*
X111625883Y-111708173D01*
X108900416Y-111708173D01*
X108900416Y-111109791D01*
X106796979Y-111109791D01*
X106414453Y-111110096D01*
X106063769Y-111110992D01*
X105747361Y-111112451D01*
X105467661Y-111114444D01*
X105227103Y-111116942D01*
X105028120Y-111119917D01*
X104873146Y-111123341D01*
X104764615Y-111127186D01*
X104704958Y-111131421D01*
X104693541Y-111134419D01*
X99908916Y-111134419D01*
X99897429Y-111130255D01*
X99861600Y-111124487D01*
X99805401Y-111119913D01*
X99724707Y-111116395D01*
X99615395Y-111113796D01*
X99473340Y-111111980D01*
X99294418Y-111110808D01*
X99074504Y-111110145D01*
X98809474Y-111109852D01*
X98531835Y-111109791D01*
X97126458Y-111109791D01*
X97126458Y-108755352D01*
X99010216Y-108748561D01*
X100893975Y-108741770D01*
X101359624Y-107577604D01*
X101825273Y-106413437D01*
X101916541Y-106404661D01*
X102060072Y-106409072D01*
X102231810Y-106444329D01*
X102419383Y-106507317D01*
X102547748Y-106563481D01*
X102775748Y-106701161D01*
X102979917Y-106880421D01*
X103153599Y-107092788D01*
X103290139Y-107329792D01*
X103382882Y-107582960D01*
X103398000Y-107645727D01*
X103425569Y-107876827D01*
X103416314Y-108132164D01*
X103371642Y-108399386D01*
X103292957Y-108666143D01*
X103277019Y-108708697D01*
X103276152Y-108716173D01*
X103281651Y-108722800D01*
X103296495Y-108728629D01*
X103323659Y-108733711D01*
X103366119Y-108738097D01*
X103426852Y-108741838D01*
X103508835Y-108744985D01*
X103615043Y-108747589D01*
X103748453Y-108749701D01*
X103912041Y-108751372D01*
X104108784Y-108752653D01*
X104341659Y-108753594D01*
X104613640Y-108754247D01*
X104927706Y-108754663D01*
X105286832Y-108754892D01*
X105693995Y-108754987D01*
X105980958Y-108755000D01*
X108702787Y-108755000D01*
X108750976Y-108893906D01*
X108848450Y-109112198D01*
X108986521Y-109333068D01*
X109155118Y-109543841D01*
X109344166Y-109731842D01*
X109532256Y-109876963D01*
X109803645Y-110031780D01*
X110080906Y-110138196D01*
X110373730Y-110199068D01*
X110686354Y-110217286D01*
X110969964Y-110200105D01*
X111227499Y-110148697D01*
X111476333Y-110059039D01*
X111579296Y-110010580D01*
X111836401Y-109856664D01*
X112071633Y-109666014D01*
X112277676Y-109446671D01*
X112447215Y-109206674D01*
X112572936Y-108954063D01*
X112595273Y-108893906D01*
X112643462Y-108755000D01*
X113347394Y-108755000D01*
X113605273Y-108756291D01*
X113818050Y-108760938D01*
X113993494Y-108770097D01*
X114139374Y-108784927D01*
X114263461Y-108806586D01*
X114373522Y-108836230D01*
X114477326Y-108875019D01*
X114582644Y-108924110D01*
X114623723Y-108945206D01*
X114764968Y-109036096D01*
X114915589Y-109161480D01*
X115062421Y-109307977D01*
X115192299Y-109462207D01*
X115292059Y-109610787D01*
X115308639Y-109641354D01*
X115346226Y-109713861D01*
X115378527Y-109777652D01*
X115405977Y-109837204D01*
X115429008Y-109896994D01*
X115448055Y-109961501D01*
X115463551Y-110035203D01*
X115475930Y-110122576D01*
X115485627Y-110228100D01*
X115493074Y-110356252D01*
X115498705Y-110511510D01*
X115502955Y-110698351D01*
X115506257Y-110921254D01*
X115509045Y-111184696D01*
X115511753Y-111493156D01*
X115514034Y-111761601D01*
X115528229Y-113405599D01*
X116458255Y-111080299D01*
X117388282Y-108755000D01*
X115515000Y-108755000D01*
X115515000Y-106400208D01*
X113219739Y-106403811D01*
X112878107Y-106404472D01*
X112553333Y-106405345D01*
X112249076Y-106406404D01*
X111968994Y-106407627D01*
X111716744Y-106408989D01*
X111495987Y-106410465D01*
X111310379Y-106412032D01*
X111163579Y-106413667D01*
X111059247Y-106415343D01*
X111001039Y-106417038D01*
X110990625Y-106418487D01*
X111164354Y-106462543D01*
X111356153Y-106535940D01*
X111547204Y-106630076D01*
X111718691Y-106736350D01*
X111771145Y-106775244D01*
X111944746Y-106937016D01*
X112104361Y-107134566D01*
X112240430Y-107353128D01*
X112343391Y-107577939D01*
X112390927Y-107732299D01*
X112436261Y-108031120D01*
X112431818Y-108325847D01*
X112380363Y-108611306D01*
X112284665Y-108882322D01*
X112147489Y-109133721D01*
X111971603Y-109360328D01*
X111759774Y-109556970D01*
X111514768Y-109718471D01*
X111269846Y-109828898D01*
X110981606Y-109906273D01*
X110688822Y-109933234D01*
X110397725Y-109911174D01*
X110114545Y-109841489D01*
X109845511Y-109725571D01*
X109596856Y-109564815D01*
X109428822Y-109416998D01*
X109228206Y-109181820D01*
X109075950Y-108925192D01*
X108971817Y-108646593D01*
X108915568Y-108345501D01*
X108909774Y-108278750D01*
X108913735Y-107977803D01*
X108966547Y-107690558D01*
X109065026Y-107421073D01*
X109205992Y-107173407D01*
X109386265Y-106951617D01*
X109602662Y-106759763D01*
X109852003Y-106601901D01*
X110131106Y-106482091D01*
X110368854Y-106417367D01*
X110357304Y-106414469D01*
X110298845Y-106411648D01*
X110199484Y-106409024D01*
X110065226Y-106406717D01*
X109902080Y-106404845D01*
X109716051Y-106403528D01*
X109661093Y-106403277D01*
X108900416Y-106400208D01*
X108900416Y-104047531D01*
X111288281Y-104039079D01*
X111708433Y-104037650D01*
X112079221Y-104036361D01*
X112404193Y-104034975D01*
X112686901Y-104033253D01*
X112930894Y-104030957D01*
X113139723Y-104027849D01*
X113316938Y-104023689D01*
X113466088Y-104018240D01*
X113590725Y-104011264D01*
X113694399Y-104002523D01*
X113780658Y-103991777D01*
X113853055Y-103978789D01*
X113915139Y-103963320D01*
X113970459Y-103945132D01*
X114022568Y-103923988D01*
X114075013Y-103899647D01*
X114131347Y-103871873D01*
X114186692Y-103844531D01*
X114364689Y-103737795D01*
X114542794Y-103595868D01*
X114704235Y-103433712D01*
X114828757Y-103271694D01*
X114857440Y-103218814D01*
X114901187Y-103127127D01*
X114956889Y-103004082D01*
X115021438Y-102857128D01*
X115091727Y-102693713D01*
X115164645Y-102521286D01*
X115237086Y-102347295D01*
X115305941Y-102179190D01*
X115368102Y-102024420D01*
X115420460Y-101890432D01*
X115459908Y-101784675D01*
X115483336Y-101714599D01*
X115488541Y-101690575D01*
X115462186Y-101684750D01*
X115383520Y-101679630D01*
X115253148Y-101675226D01*
X115071671Y-101671545D01*
X114839692Y-101668596D01*
X114557814Y-101666389D01*
X114226638Y-101664931D01*
X113846768Y-101664232D01*
X113676145Y-101664166D01*
X111863750Y-101664166D01*
X111863750Y-99309375D01*
X114848739Y-99309375D01*
X115323175Y-99309336D01*
X115747650Y-99309322D01*
X116125121Y-99309486D01*
X116458542Y-99309982D01*
X116750870Y-99310963D01*
X117005060Y-99312582D01*
X117224069Y-99314992D01*
X117410852Y-99318348D01*
X117568364Y-99322802D01*
X117699563Y-99328507D01*
X117807403Y-99335617D01*
X117894840Y-99344286D01*
X117964830Y-99354666D01*
X118020329Y-99366912D01*
X118064293Y-99381176D01*
X118099677Y-99397611D01*
X118129437Y-99416371D01*
X118156530Y-99437610D01*
X118183910Y-99461481D01*
X118209349Y-99483725D01*
X118340624Y-99626757D01*
X118423369Y-99790472D01*
X118458575Y-99977055D01*
X118460023Y-100036979D01*
X118459150Y-100072652D01*
X118456360Y-100108685D01*
X118450347Y-100148642D01*
X118439804Y-100196084D01*
X118423426Y-100254575D01*
X118399906Y-100327676D01*
X118367939Y-100418951D01*
X118326218Y-100531961D01*
X118273437Y-100670269D01*
X118208290Y-100837438D01*
X118129472Y-101037030D01*
X118035675Y-101272608D01*
X117925594Y-101547734D01*
X117797923Y-101865970D01*
X117701003Y-102107293D01*
X117580564Y-102407453D01*
X117466032Y-102693545D01*
X117358921Y-102961749D01*
X117260745Y-103208246D01*
X117173015Y-103429217D01*
X117097246Y-103620842D01*
X117034949Y-103779303D01*
X116987638Y-103900780D01*
X116956826Y-103981453D01*
X116944026Y-104017503D01*
X116943750Y-104018908D01*
X116969639Y-104022322D01*
X117045031Y-104025501D01*
X117166514Y-104028447D01*
X117330673Y-104031159D01*
X117534096Y-104033637D01*
X117773371Y-104035882D01*
X118045083Y-104037894D01*
X118345821Y-104039673D01*
X118672170Y-104041220D01*
X119020718Y-104042533D01*
X119388052Y-104043615D01*
X119770758Y-104044464D01*
X120165424Y-104045082D01*
X120568637Y-104045468D01*
X120976984Y-104045622D01*
X121387051Y-104045545D01*
X121795426Y-104045237D01*
X122198696Y-104044698D01*
X122593447Y-104043928D01*
X122976266Y-104042927D01*
X123343741Y-104041697D01*
X123692458Y-104040236D01*
X124019005Y-104038545D01*
X124319968Y-104036625D01*
X124591934Y-104034474D01*
X124831491Y-104032095D01*
X125035225Y-104029487D01*
X125199723Y-104026649D01*
X125321572Y-104023583D01*
X125397359Y-104020288D01*
X125417920Y-104018415D01*
X125704394Y-103954139D01*
X125971046Y-103848953D01*
X126085104Y-103787005D01*
X126225153Y-103687886D01*
X126369989Y-103559353D01*
X126505468Y-103415958D01*
X126617445Y-103272253D01*
X126672414Y-103182787D01*
X126691069Y-103141646D01*
X126728256Y-103053993D01*
X126782905Y-102922468D01*
X126853950Y-102749712D01*
X126940320Y-102538365D01*
X127040949Y-102291070D01*
X127154768Y-102010465D01*
X127280708Y-101699193D01*
X127417702Y-101359894D01*
X127564680Y-100995208D01*
X127720576Y-100607776D01*
X127884320Y-100200240D01*
X128054844Y-99775239D01*
X128231080Y-99335415D01*
X128411959Y-98883409D01*
X128437357Y-98819895D01*
X130119416Y-94613020D01*
X126091427Y-94599763D01*
X125550799Y-94597962D01*
X125060525Y-94596263D01*
X124618043Y-94594629D01*
X124220788Y-94593020D01*
X123866200Y-94591399D01*
X123551714Y-94589726D01*
X123274769Y-94587964D01*
X123032801Y-94586075D01*
X122823248Y-94584019D01*
X122643548Y-94581758D01*
X122491137Y-94579255D01*
X122363452Y-94576470D01*
X122257932Y-94573365D01*
X122172013Y-94569903D01*
X122103133Y-94566044D01*
X122048729Y-94561750D01*
X122006238Y-94556982D01*
X121973098Y-94551703D01*
X121946746Y-94545874D01*
X121924619Y-94539457D01*
X121917960Y-94537255D01*
X121629947Y-94414108D01*
X121372802Y-94251683D01*
X121150255Y-94053583D01*
X120966034Y-93823406D01*
X120823869Y-93564755D01*
X120771084Y-93429862D01*
X120714062Y-93263645D01*
X120708488Y-91067453D01*
X122474546Y-91067453D01*
X122490340Y-91308788D01*
X122532421Y-91534233D01*
X122562258Y-91632362D01*
X122688292Y-91914173D01*
X122853977Y-92163721D01*
X123055108Y-92378001D01*
X123287477Y-92554004D01*
X123546880Y-92688725D01*
X123829111Y-92779156D01*
X124129963Y-92822291D01*
X124231330Y-92825626D01*
X124367197Y-92821114D01*
X124508054Y-92807816D01*
X124627025Y-92788389D01*
X124641434Y-92785084D01*
X124929200Y-92688900D01*
X125193420Y-92545384D01*
X125433363Y-92354949D01*
X125477434Y-92312210D01*
X125678714Y-92080511D01*
X125829685Y-91836704D01*
X125932494Y-91575651D01*
X125989286Y-91292216D01*
X125998967Y-91124489D01*
X127182434Y-91124489D01*
X127213058Y-91392178D01*
X127283526Y-91651715D01*
X127392427Y-91898146D01*
X127538346Y-92126520D01*
X127719871Y-92331883D01*
X127935589Y-92509282D01*
X128184086Y-92653766D01*
X128463949Y-92760381D01*
X128514572Y-92774391D01*
X128707643Y-92809459D01*
X128925228Y-92823792D01*
X129143678Y-92817064D01*
X129339343Y-92788949D01*
X129352708Y-92785907D01*
X129620135Y-92697532D01*
X129873706Y-92564409D01*
X130105757Y-92393020D01*
X130308624Y-92189848D01*
X130474644Y-91961375D01*
X130584348Y-91744112D01*
X130652835Y-91538001D01*
X130699746Y-91317779D01*
X130721576Y-91103938D01*
X130719072Y-90956335D01*
X130699273Y-90780812D01*
X130669003Y-90631164D01*
X130622366Y-90486155D01*
X130553465Y-90324551D01*
X130529580Y-90273854D01*
X130377095Y-90014604D01*
X130184731Y-89789301D01*
X129954885Y-89600060D01*
X129689950Y-89448995D01*
X129514573Y-89377359D01*
X129412272Y-89342711D01*
X129327344Y-89319688D01*
X129243750Y-89305998D01*
X129145450Y-89299348D01*
X129016406Y-89297446D01*
X128955833Y-89297491D01*
X128804760Y-89299449D01*
X128690229Y-89305770D01*
X128595911Y-89318599D01*
X128505478Y-89340080D01*
X128413437Y-89368742D01*
X128154521Y-89474926D01*
X127927609Y-89613739D01*
X127718214Y-89794389D01*
X127676456Y-89837089D01*
X127486656Y-90071254D01*
X127343767Y-90322029D01*
X127246376Y-90584461D01*
X127193070Y-90853599D01*
X127182434Y-91124489D01*
X125998967Y-91124489D01*
X126003014Y-91054375D01*
X125980009Y-90748810D01*
X125908354Y-90463833D01*
X125787682Y-90198557D01*
X125617624Y-89952095D01*
X125485463Y-89806585D01*
X125253269Y-89610211D01*
X124997205Y-89459004D01*
X124722783Y-89354309D01*
X124435512Y-89297474D01*
X124140903Y-89289842D01*
X123844468Y-89332761D01*
X123703854Y-89371487D01*
X123449402Y-89473165D01*
X123224330Y-89609101D01*
X123015437Y-89787636D01*
X122966873Y-89837089D01*
X122774945Y-90071931D01*
X122629839Y-90326940D01*
X122526777Y-90610554D01*
X122524794Y-90617732D01*
X122485782Y-90830383D01*
X122474546Y-91067453D01*
X120708488Y-91067453D01*
X120700833Y-88051354D01*
X120696725Y-86432549D01*
X122463055Y-86432549D01*
X122473319Y-86541476D01*
X122535405Y-86836805D01*
X122641011Y-87108909D01*
X122785527Y-87354797D01*
X122964346Y-87571475D01*
X123172857Y-87755950D01*
X123406452Y-87905228D01*
X123660522Y-88016318D01*
X123930458Y-88086225D01*
X124211651Y-88111956D01*
X124499491Y-88090520D01*
X124762187Y-88027860D01*
X125038418Y-87913349D01*
X125286761Y-87758315D01*
X125503855Y-87567922D01*
X125686336Y-87347333D01*
X125830843Y-87101712D01*
X125934013Y-86836220D01*
X125992484Y-86556023D01*
X125997129Y-86426715D01*
X127184406Y-86426715D01*
X127221156Y-86711266D01*
X127306080Y-86992414D01*
X127370421Y-87136368D01*
X127525497Y-87389513D01*
X127717696Y-87609281D01*
X127941233Y-87792846D01*
X128190319Y-87937383D01*
X128459168Y-88040067D01*
X128741992Y-88098071D01*
X129033005Y-88108572D01*
X129294292Y-88075656D01*
X129568965Y-87995021D01*
X129829905Y-87871389D01*
X130066994Y-87710951D01*
X130270118Y-87519899D01*
X130340063Y-87435678D01*
X130507663Y-87180497D01*
X130624477Y-86915093D01*
X130692439Y-86633819D01*
X130713517Y-86344791D01*
X130694142Y-86046951D01*
X130633607Y-85778234D01*
X130528888Y-85531304D01*
X130376963Y-85298824D01*
X130200057Y-85098589D01*
X129979659Y-84904156D01*
X129748782Y-84757577D01*
X129498519Y-84653809D01*
X129337638Y-84610510D01*
X129109422Y-84578691D01*
X128861499Y-84576487D01*
X128615005Y-84602731D01*
X128391071Y-84656256D01*
X128367974Y-84664020D01*
X128096342Y-84784928D01*
X127855770Y-84944848D01*
X127648398Y-85138478D01*
X127476365Y-85360517D01*
X127341810Y-85605662D01*
X127246872Y-85868611D01*
X127193691Y-86144063D01*
X127184406Y-86426715D01*
X125997129Y-86426715D01*
X126002894Y-86266282D01*
X125991717Y-86139739D01*
X125934172Y-85846922D01*
X125837448Y-85585147D01*
X125697284Y-85345695D01*
X125509419Y-85119846D01*
X125477214Y-85086956D01*
X125244397Y-84887292D01*
X124993185Y-84737062D01*
X124721916Y-84635579D01*
X124428925Y-84582155D01*
X124233020Y-84572865D01*
X123925535Y-84596450D01*
X123640815Y-84667663D01*
X123377198Y-84787191D01*
X123133020Y-84955720D01*
X122988827Y-85086956D01*
X122789559Y-85321472D01*
X122635610Y-85578195D01*
X122528717Y-85852218D01*
X122470619Y-86138638D01*
X122463055Y-86432549D01*
X120696725Y-86432549D01*
X120687604Y-82839062D01*
X119910664Y-84783750D01*
X119788649Y-85088801D01*
X119672020Y-85379699D01*
X119562300Y-85652689D01*
X119461010Y-85904014D01*
X119369674Y-86129919D01*
X119289813Y-86326649D01*
X119222950Y-86490447D01*
X119170608Y-86617557D01*
X119134308Y-86704225D01*
X119115572Y-86746694D01*
X119113530Y-86750342D01*
X119080162Y-86753734D01*
X119011122Y-86742206D01*
X118920719Y-86718234D01*
X118911511Y-86715391D01*
X118637062Y-86655641D01*
X118344343Y-86639789D01*
X118043878Y-86667336D01*
X117746189Y-86737779D01*
X117634836Y-86776122D01*
X117411738Y-86873712D01*
X117213966Y-86992140D01*
X117025424Y-87142116D01*
X116890833Y-87271079D01*
X116681212Y-87519884D01*
X116515137Y-87796681D01*
X116399191Y-88077812D01*
X116341918Y-88308865D01*
X116313030Y-88566264D01*
X116313213Y-88831267D01*
X116343153Y-89085131D01*
X116359522Y-89162604D01*
X116460361Y-89476291D01*
X116606262Y-89765777D01*
X116793876Y-90026719D01*
X117019855Y-90254772D01*
X117280850Y-90445594D01*
X117401658Y-90514409D01*
X117486909Y-90563644D01*
X117546663Y-90606870D01*
X117570756Y-90636514D01*
X117570421Y-90640094D01*
X117558913Y-90668906D01*
X117529246Y-90743091D01*
X117482921Y-90858897D01*
X117421441Y-91012568D01*
X117346308Y-91200350D01*
X117259024Y-91418490D01*
X117161092Y-91663232D01*
X117054013Y-91930823D01*
X116939290Y-92217508D01*
X116818424Y-92519533D01*
X116772112Y-92635260D01*
X115985920Y-94599791D01*
X114808103Y-94599791D01*
X114527573Y-94599693D01*
X114295465Y-94599278D01*
X114107282Y-94598368D01*
X113958529Y-94596785D01*
X113844711Y-94594350D01*
X113761332Y-94590884D01*
X113703897Y-94586208D01*
X113667910Y-94580144D01*
X113648877Y-94572512D01*
X113642301Y-94563136D01*
X113643196Y-94553489D01*
X113654371Y-94523931D01*
X113684114Y-94448023D01*
X113731321Y-94328538D01*
X113794886Y-94168249D01*
X113873703Y-93969930D01*
X113966666Y-93736355D01*
X114072672Y-93470296D01*
X114190613Y-93174526D01*
X114319385Y-92851819D01*
X114457882Y-92504949D01*
X114604999Y-92136688D01*
X114759631Y-91749810D01*
X114920671Y-91347088D01*
X115086269Y-90933157D01*
X115288915Y-90426556D01*
X115472711Y-89966576D01*
X115638572Y-89550752D01*
X115787410Y-89176619D01*
X115920142Y-88841712D01*
X116037679Y-88543564D01*
X116140937Y-88279711D01*
X116230830Y-88047687D01*
X116308272Y-87845026D01*
X116374177Y-87669263D01*
X116429459Y-87517932D01*
X116475032Y-87388568D01*
X116511810Y-87278706D01*
X116540708Y-87185880D01*
X116562639Y-87107624D01*
X116578517Y-87041473D01*
X116589257Y-86984962D01*
X116595773Y-86935624D01*
X116598979Y-86890996D01*
X116599791Y-86850942D01*
X116575990Y-86600887D01*
X116508116Y-86344725D01*
X116401467Y-86095396D01*
X116261340Y-85865844D01*
X116132508Y-85709166D01*
X115948158Y-85533786D01*
X115759715Y-85398612D01*
X115550338Y-85292488D01*
X115436793Y-85248356D01*
X115210729Y-85167395D01*
X110937708Y-85159984D01*
X110364774Y-85158950D01*
X109842247Y-85157986D01*
X109367618Y-85157185D01*
X108938378Y-85156641D01*
X108552018Y-85156445D01*
X108206027Y-85156691D01*
X107897897Y-85157472D01*
X107625118Y-85158880D01*
X107385182Y-85161008D01*
X107175578Y-85163949D01*
X106993797Y-85167795D01*
X106837330Y-85172641D01*
X106703669Y-85178577D01*
X106590302Y-85185698D01*
X106494722Y-85194095D01*
X106414418Y-85203863D01*
X106346881Y-85215093D01*
X106289603Y-85227878D01*
X106240073Y-85242311D01*
X106195783Y-85258485D01*
X106154223Y-85276493D01*
X106112883Y-85296428D01*
X106069255Y-85318382D01*
X106022218Y-85341771D01*
X105811327Y-85467121D01*
X105611828Y-85627855D01*
X105439565Y-85810094D01*
X105353325Y-85927889D01*
X105326791Y-85977258D01*
X105284798Y-86065683D01*
X105230461Y-86185756D01*
X105166898Y-86330072D01*
X105097226Y-86491224D01*
X105024561Y-86661805D01*
X104952021Y-86834408D01*
X104882721Y-87001626D01*
X104819780Y-87156053D01*
X104766313Y-87290282D01*
X104725438Y-87396907D01*
X104700271Y-87468520D01*
X104693541Y-87495779D01*
X104719339Y-87497830D01*
X104794094Y-87499784D01*
X104913844Y-87501616D01*
X105074630Y-87503300D01*
X105272491Y-87504812D01*
X105503467Y-87506128D01*
X105763597Y-87507222D01*
X106048922Y-87508071D01*
X106355479Y-87508650D01*
X106679311Y-87508933D01*
X106810208Y-87508958D01*
X108926875Y-87508958D01*
X108926875Y-89890208D01*
X106780954Y-89890208D01*
X106380286Y-89890181D01*
X106028771Y-89890269D01*
X105722647Y-89890725D01*
X105458151Y-89891802D01*
X105231518Y-89893755D01*
X105038988Y-89896836D01*
X104876795Y-89901299D01*
X104741178Y-89907398D01*
X104628373Y-89915385D01*
X104534618Y-89925514D01*
X104456149Y-89938039D01*
X104389203Y-89953213D01*
X104330017Y-89971289D01*
X104274829Y-89992521D01*
X104219875Y-90017162D01*
X104161392Y-90045466D01*
X104111458Y-90069978D01*
X103955692Y-90163552D01*
X103793798Y-90290870D01*
X103639411Y-90438796D01*
X103506167Y-90594197D01*
X103407703Y-90743939D01*
X103403483Y-90751910D01*
X103384373Y-90794062D01*
X103348137Y-90879373D01*
X103296622Y-91003246D01*
X103231677Y-91161085D01*
X103155147Y-91348291D01*
X103068880Y-91560270D01*
X102974724Y-91792422D01*
X102874525Y-92040152D01*
X102770131Y-92298862D01*
X102663388Y-92563956D01*
X102556145Y-92830835D01*
X102450247Y-93094905D01*
X102347543Y-93351566D01*
X102249879Y-93596223D01*
X102159103Y-93824278D01*
X102077062Y-94031134D01*
X102005602Y-94212195D01*
X101946572Y-94362863D01*
X101901818Y-94478541D01*
X101873188Y-94554633D01*
X101862528Y-94586541D01*
X101862500Y-94586913D01*
X101888446Y-94588476D01*
X101964237Y-94589984D01*
X102086803Y-94591426D01*
X102253070Y-94592792D01*
X102459967Y-94594070D01*
X102704424Y-94595249D01*
X102983368Y-94596317D01*
X103293728Y-94597263D01*
X103632433Y-94598076D01*
X103996410Y-94598746D01*
X104382589Y-94599260D01*
X104787897Y-94599607D01*
X105209264Y-94599776D01*
X105381458Y-94599791D01*
X108900416Y-94599791D01*
X108900416Y-96951676D01*
X107676718Y-96960241D01*
X106453020Y-96968807D01*
X106239279Y-97040787D01*
X105989262Y-97148103D01*
X105750733Y-97294070D01*
X105597494Y-97416804D01*
X105521111Y-97491823D01*
X105449929Y-97576166D01*
X105380749Y-97675715D01*
X105310371Y-97796355D01*
X105235598Y-97943970D01*
X105153229Y-98124445D01*
X105060066Y-98343663D01*
X104960565Y-98588385D01*
X104671731Y-99309374D01*
X106786074Y-99309375D01*
X108900416Y-99309375D01*
X108900416Y-101661578D01*
X106750677Y-101671044D01*
X106352234Y-101672762D01*
X106002952Y-101674354D01*
X105699079Y-101676081D01*
X105436860Y-101678204D01*
X105212542Y-101680985D01*
X105022371Y-101684685D01*
X104862593Y-101689566D01*
X104729456Y-101695887D01*
X104619205Y-101703912D01*
X104528086Y-101713901D01*
X104452347Y-101726115D01*
X104388233Y-101740816D01*
X104331991Y-101758264D01*
X104279867Y-101778722D01*
X104228107Y-101802451D01*
X104172959Y-101829711D01*
X104124687Y-101853837D01*
X103908210Y-101983201D01*
X103708501Y-102144781D01*
X103537055Y-102327696D01*
X103405370Y-102521066D01*
X103390618Y-102548629D01*
X103371964Y-102590199D01*
X103335361Y-102676847D01*
X103282466Y-102804500D01*
X103214936Y-102969086D01*
X103134426Y-103166531D01*
X103042594Y-103392763D01*
X102941096Y-103643710D01*
X102831588Y-103915297D01*
X102715727Y-104203453D01*
X102595170Y-104504105D01*
X102588138Y-104521666D01*
X101841295Y-106386979D01*
X99470647Y-106393735D01*
X97100000Y-106400491D01*
X97100000Y-104045814D01*
X98758822Y-104039000D01*
X100417645Y-104032187D01*
X100885682Y-102862779D01*
X100979277Y-102627887D01*
X101066030Y-102408150D01*
X101144090Y-102208404D01*
X101211602Y-102033485D01*
X101266717Y-101888229D01*
X101307580Y-101777473D01*
X101332341Y-101706053D01*
X101339148Y-101678805D01*
X101339116Y-101678768D01*
X101310996Y-101676484D01*
X101233975Y-101674309D01*
X101112064Y-101672272D01*
X100949278Y-101670400D01*
X100749632Y-101668721D01*
X100517139Y-101667262D01*
X100255813Y-101666051D01*
X99969668Y-101665117D01*
X99662718Y-101664486D01*
X99338976Y-101664187D01*
X99225486Y-101664166D01*
X97126458Y-101664166D01*
X97126458Y-99309375D01*
X102306937Y-99309375D01*
X102772635Y-98145179D01*
X102866298Y-97910761D01*
X102953667Y-97691573D01*
X103032825Y-97492464D01*
X103101853Y-97318281D01*
X103158836Y-97173872D01*
X103201855Y-97064083D01*
X103228992Y-96993763D01*
X103238333Y-96967784D01*
X103213022Y-96964274D01*
X103141675Y-96961116D01*
X103031174Y-96958438D01*
X102888401Y-96956370D01*
X102720235Y-96955042D01*
X102537187Y-96954583D01*
X101836041Y-96954583D01*
X101836041Y-94599791D01*
X97100000Y-94599791D01*
X97100000Y-92245000D01*
X98761810Y-92244999D01*
X100423621Y-92244999D01*
X100881416Y-91100677D01*
X100974727Y-90867426D01*
X101062207Y-90648741D01*
X101141854Y-90449628D01*
X101211664Y-90275092D01*
X101269637Y-90130140D01*
X101313769Y-90019778D01*
X101342059Y-89949011D01*
X101352332Y-89923281D01*
X101345140Y-89917068D01*
X101316399Y-89911634D01*
X101263237Y-89906934D01*
X101182781Y-89902922D01*
X101072159Y-89899554D01*
X100928498Y-89896785D01*
X100748925Y-89894569D01*
X100530570Y-89892861D01*
X100270558Y-89891616D01*
X99966018Y-89890789D01*
X99614077Y-89890335D01*
X99245955Y-89890208D01*
X97126458Y-89890208D01*
X97126458Y-87509217D01*
X102322808Y-87495729D01*
X102779341Y-86358020D01*
X102872355Y-86125595D01*
X102959058Y-85907721D01*
X103037490Y-85709412D01*
X103105693Y-85535680D01*
X103161705Y-85391538D01*
X103203568Y-85281997D01*
X103229321Y-85212071D01*
X103237104Y-85187239D01*
X103225955Y-85176830D01*
X103188492Y-85168691D01*
X103119989Y-85162600D01*
X103015716Y-85158332D01*
X102870946Y-85155664D01*
X102680951Y-85154373D01*
X102537187Y-85154166D01*
X101836041Y-85154166D01*
X101836041Y-82799093D01*
X116487343Y-82805848D01*
X116487343Y-82805848D01*
G37*
X116487343Y-82805848D02*
X131138645Y-82812604D01*
X131310625Y-82871434D01*
X131576853Y-82988297D01*
X131820050Y-83146383D01*
X132032780Y-83339430D01*
X132207613Y-83561175D01*
X132284237Y-83691774D01*
X132306370Y-83732907D01*
X132326720Y-83769203D01*
X132345363Y-83802917D01*
X132362372Y-83836306D01*
X132377823Y-83871624D01*
X132391789Y-83911126D01*
X132404347Y-83957070D01*
X132415569Y-84011709D01*
X132425531Y-84077300D01*
X132434308Y-84156098D01*
X132441974Y-84250358D01*
X132448604Y-84362337D01*
X132454271Y-84494289D01*
X132459052Y-84648471D01*
X132463020Y-84827137D01*
X132466251Y-85032543D01*
X132468818Y-85266945D01*
X132470797Y-85532598D01*
X132472261Y-85831758D01*
X132473287Y-86166680D01*
X132473947Y-86539619D01*
X132474318Y-86952832D01*
X132474473Y-87408574D01*
X132474487Y-87909100D01*
X132474435Y-88456666D01*
X132474391Y-89053528D01*
X132474400Y-89439825D01*
X132474791Y-94638295D01*
X130302095Y-100070898D01*
X130056695Y-100684407D01*
X129830089Y-101250709D01*
X129621478Y-101771754D01*
X129430059Y-102249492D01*
X129255035Y-102685870D01*
X129095603Y-103082839D01*
X128950963Y-103442347D01*
X128820316Y-103766343D01*
X128702861Y-104056777D01*
X128597798Y-104315597D01*
X128504326Y-104544753D01*
X128421645Y-104746194D01*
X128348955Y-104921868D01*
X128285455Y-105073725D01*
X128230345Y-105203714D01*
X128182825Y-105313783D01*
X128142094Y-105405883D01*
X128107352Y-105481962D01*
X128077800Y-105543969D01*
X128052635Y-105593853D01*
X128031059Y-105633563D01*
X128012270Y-105665049D01*
X127995469Y-105690259D01*
X127993606Y-105692875D01*
X127802765Y-105914253D01*
X127574356Y-106101068D01*
X127313971Y-106249367D01*
X127076091Y-106340835D01*
X127050518Y-106347638D01*
X127018271Y-106353762D01*
X126976439Y-106359259D01*
X126922113Y-106364182D01*
X126852381Y-106368583D01*
X126764333Y-106372514D01*
X126655059Y-106376026D01*
X126521648Y-106379173D01*
X126361190Y-106382007D01*
X126170774Y-106384579D01*
X125947489Y-106386942D01*
X125688425Y-106389148D01*
X125390671Y-106391250D01*
X125051317Y-106393299D01*
X124667452Y-106395347D01*
X124236167Y-106397448D01*
X123811065Y-106399399D01*
X120690360Y-106413437D01*
X119769352Y-108715312D01*
X119636215Y-109048160D01*
X119508539Y-109367541D01*
X119387715Y-109669966D01*
X119275134Y-109951948D01*
X119172185Y-110209999D01*
X119080258Y-110440630D01*
X119000744Y-110640355D01*
X118935032Y-110805686D01*
X118884512Y-110933134D01*
X118850575Y-111019211D01*
X118834611Y-111060430D01*
X118833642Y-111063153D01*
X118832583Y-111075315D01*
X118841307Y-111085203D01*
X118864816Y-111093104D01*
X118908110Y-111099305D01*
X118976190Y-111104092D01*
X119074055Y-111107751D01*
X119206708Y-111110570D01*
X119379147Y-111112834D01*
X119596375Y-111114830D01*
X119757244Y-111116070D01*
X120695549Y-111123020D01*
X119287958Y-114641979D01*
X117880367Y-118160937D01*
X111915339Y-118180302D01*
X111140734Y-118182696D01*
X110418912Y-118184677D01*
X109749738Y-118186244D01*
X109133082Y-118187398D01*
X108568808Y-118188138D01*
X108056786Y-118188464D01*
X107596882Y-118188376D01*
X107188963Y-118187874D01*
X106832897Y-118186957D01*
X106528550Y-118185626D01*
X106275790Y-118183880D01*
X106074484Y-118181719D01*
X105924499Y-118179143D01*
X105825702Y-118176152D01*
X105778333Y-118172805D01*
X105659762Y-118145536D01*
X105528014Y-118102272D01*
X105434375Y-118062823D01*
X105295008Y-117978788D01*
X105153926Y-117865128D01*
X105025499Y-117735626D01*
X104924097Y-117604067D01*
X104885147Y-117536020D01*
X104825585Y-117413811D01*
X104891852Y-117269064D01*
X104989206Y-116999186D01*
X105048355Y-116706255D01*
X105067950Y-116405133D01*
X105046645Y-116110686D01*
X105012417Y-115938437D01*
X104905715Y-115622576D01*
X104754010Y-115332687D01*
X104560166Y-115072178D01*
X104327044Y-114844458D01*
X104057508Y-114652935D01*
X103834108Y-114535519D01*
X103640784Y-114447418D01*
X102983152Y-112792586D01*
X102871524Y-112512162D01*
X102765476Y-112246672D01*
X102666638Y-112000136D01*
X102576636Y-111776571D01*
X102497101Y-111579995D01*
X102429659Y-111414426D01*
X102375940Y-111283884D01*
X102337572Y-111192386D01*
X102316183Y-111143950D01*
X102312291Y-111137113D01*
X102301123Y-111161162D01*
X102271493Y-111231629D01*
X102224508Y-111345767D01*
X102161275Y-111500827D01*
X102082899Y-111694063D01*
X101990488Y-111922727D01*
X101885147Y-112184071D01*
X101767983Y-112475348D01*
X101640102Y-112793809D01*
X101502610Y-113136708D01*
X101356615Y-113501296D01*
X101203222Y-113884826D01*
X101043538Y-114284551D01*
X100892943Y-114661934D01*
X99486824Y-118187395D01*
X98306641Y-118194282D01*
X98062467Y-118195432D01*
X97835355Y-118195968D01*
X97630609Y-118195918D01*
X97453533Y-118195308D01*
X97309429Y-118194164D01*
X97203603Y-118192511D01*
X97141356Y-118190378D01*
X97126458Y-118188450D01*
X97136092Y-118162826D01*
X97164257Y-118090838D01*
X97209850Y-117975260D01*
X97271766Y-117818868D01*
X97348903Y-117624435D01*
X97440156Y-117394738D01*
X97544422Y-117132549D01*
X97660596Y-116840645D01*
X97787575Y-116521799D01*
X97924255Y-116178787D01*
X98069533Y-115814383D01*
X98222303Y-115431362D01*
X98381464Y-115032498D01*
X98518561Y-114689063D01*
X98682478Y-114278423D01*
X98841093Y-113880892D01*
X98993286Y-113499279D01*
X99137941Y-113136394D01*
X99273939Y-112795049D01*
X99400162Y-112478052D01*
X99515493Y-112188215D01*
X99618812Y-111928349D01*
X99709004Y-111701262D01*
X99784949Y-111509766D01*
X99845529Y-111356671D01*
X99889628Y-111244787D01*
X99916126Y-111176925D01*
X99923938Y-111156093D01*
X99924474Y-111145921D01*
X99917012Y-111137354D01*
X99908916Y-111134419D01*
X104693541Y-111134419D01*
X104703208Y-111164948D01*
X104730977Y-111239890D01*
X104774999Y-111354647D01*
X104833429Y-111504620D01*
X104904417Y-111685210D01*
X104986117Y-111891819D01*
X105076680Y-112119847D01*
X105174259Y-112364696D01*
X105277007Y-112621766D01*
X105383075Y-112886460D01*
X105490617Y-113154179D01*
X105597784Y-113420323D01*
X105702729Y-113680294D01*
X105803605Y-113929494D01*
X105898563Y-114163322D01*
X105985756Y-114377182D01*
X106063336Y-114566473D01*
X106129457Y-114726598D01*
X106182269Y-114852956D01*
X106219926Y-114940951D01*
X106240580Y-114985982D01*
X106242034Y-114988638D01*
X106401244Y-115212861D01*
X106600909Y-115413042D01*
X106830552Y-115579500D01*
X106955729Y-115648235D01*
X107052872Y-115694603D01*
X107140603Y-115731574D01*
X107226606Y-115760223D01*
X107318562Y-115781624D01*
X107424156Y-115796854D01*
X107551070Y-115806987D01*
X107706987Y-115813098D01*
X107899589Y-115816264D01*
X108136561Y-115817558D01*
X108166197Y-115817633D01*
X108900416Y-115819375D01*
X108900416Y-114654377D01*
X111255208Y-114654377D01*
X111255208Y-115819375D01*
X112203200Y-115819375D01*
X111969583Y-115237291D01*
X111735966Y-114655208D01*
X114102536Y-114655208D01*
X114800683Y-116401605D01*
X114916019Y-116689184D01*
X115025934Y-116961448D01*
X115128831Y-117214549D01*
X115223110Y-117444638D01*
X115307172Y-117647865D01*
X115379418Y-117820383D01*
X115438248Y-117958343D01*
X115482064Y-118057896D01*
X115509267Y-118115193D01*
X115518001Y-118128011D01*
X115530376Y-118101078D01*
X115560961Y-118028420D01*
X115608370Y-117913467D01*
X115671213Y-117759648D01*
X115748105Y-117570392D01*
X115837657Y-117349130D01*
X115938482Y-117099289D01*
X116049194Y-116824300D01*
X116168403Y-116527591D01*
X116294725Y-116212593D01*
X116426769Y-115882734D01*
X116462685Y-115792916D01*
X117388198Y-113477812D01*
X114354776Y-113471001D01*
X113958139Y-113470219D01*
X113576068Y-113469677D01*
X113211920Y-113469370D01*
X112869050Y-113469290D01*
X112550816Y-113469431D01*
X112260573Y-113469788D01*
X112001679Y-113470353D01*
X111777489Y-113471121D01*
X111591360Y-113472084D01*
X111446649Y-113473238D01*
X111346712Y-113474575D01*
X111294906Y-113476088D01*
X111288281Y-113476785D01*
X111279996Y-113491080D01*
X111273114Y-113529620D01*
X111267527Y-113596191D01*
X111263130Y-113694582D01*
X111259815Y-113828581D01*
X111257478Y-114001975D01*
X111256011Y-114218553D01*
X111255308Y-114482103D01*
X111255208Y-114654377D01*
X108900416Y-114654377D01*
X108900416Y-111708173D01*
X111625883Y-111708173D01*
X111651046Y-111858226D01*
X111719770Y-112001608D01*
X111823032Y-112125721D01*
X111951808Y-112217968D01*
X112009270Y-112243428D01*
X112133802Y-112268019D01*
X112276899Y-112264459D01*
X112415691Y-112235280D01*
X112521898Y-112186685D01*
X112646627Y-112076714D01*
X112731240Y-111944684D01*
X112776971Y-111799152D01*
X112785057Y-111648673D01*
X112756731Y-111501804D01*
X112693232Y-111367102D01*
X112595793Y-111253122D01*
X112465650Y-111168422D01*
X112369968Y-111134592D01*
X112232738Y-111099421D01*
X112353481Y-111068764D01*
X112503011Y-111004891D01*
X112633791Y-110898597D01*
X112731289Y-110763751D01*
X112768897Y-110680048D01*
X112785044Y-110598321D01*
X112784647Y-110492584D01*
X112784162Y-110484206D01*
X112750786Y-110312690D01*
X112677652Y-110167306D01*
X112572272Y-110052052D01*
X112442159Y-109970926D01*
X112294825Y-109927926D01*
X112137784Y-109927050D01*
X111978549Y-109972295D01*
X111900041Y-110013719D01*
X111771477Y-110122243D01*
X111681329Y-110260405D01*
X111635012Y-110417823D01*
X111631212Y-110529100D01*
X111666864Y-110703845D01*
X111744514Y-110853422D01*
X111859004Y-110971374D01*
X112005181Y-111051241D01*
X112061935Y-111068764D01*
X112182677Y-111099421D01*
X112045448Y-111134592D01*
X111896104Y-111198726D01*
X111773876Y-111303198D01*
X111684741Y-111439838D01*
X111634679Y-111600472D01*
X111625883Y-111708173D01*
X108900416Y-111708173D01*
X108900416Y-111109791D01*
X106796979Y-111109791D01*
X106414453Y-111110096D01*
X106063769Y-111110992D01*
X105747361Y-111112451D01*
X105467661Y-111114444D01*
X105227103Y-111116942D01*
X105028120Y-111119917D01*
X104873146Y-111123341D01*
X104764615Y-111127186D01*
X104704958Y-111131421D01*
X104693541Y-111134419D01*
X99908916Y-111134419D01*
X99897429Y-111130255D01*
X99861600Y-111124487D01*
X99805401Y-111119913D01*
X99724707Y-111116395D01*
X99615395Y-111113796D01*
X99473340Y-111111980D01*
X99294418Y-111110808D01*
X99074504Y-111110145D01*
X98809474Y-111109852D01*
X98531835Y-111109791D01*
X97126458Y-111109791D01*
X97126458Y-108755352D01*
X99010216Y-108748561D01*
X100893975Y-108741770D01*
X101359624Y-107577604D01*
X101825273Y-106413437D01*
X101916541Y-106404661D01*
X102060072Y-106409072D01*
X102231810Y-106444329D01*
X102419383Y-106507317D01*
X102547748Y-106563481D01*
X102775748Y-106701161D01*
X102979917Y-106880421D01*
X103153599Y-107092788D01*
X103290139Y-107329792D01*
X103382882Y-107582960D01*
X103398000Y-107645727D01*
X103425569Y-107876827D01*
X103416314Y-108132164D01*
X103371642Y-108399386D01*
X103292957Y-108666143D01*
X103277019Y-108708697D01*
X103276152Y-108716173D01*
X103281651Y-108722800D01*
X103296495Y-108728629D01*
X103323659Y-108733711D01*
X103366119Y-108738097D01*
X103426852Y-108741838D01*
X103508835Y-108744985D01*
X103615043Y-108747589D01*
X103748453Y-108749701D01*
X103912041Y-108751372D01*
X104108784Y-108752653D01*
X104341659Y-108753594D01*
X104613640Y-108754247D01*
X104927706Y-108754663D01*
X105286832Y-108754892D01*
X105693995Y-108754987D01*
X105980958Y-108755000D01*
X108702787Y-108755000D01*
X108750976Y-108893906D01*
X108848450Y-109112198D01*
X108986521Y-109333068D01*
X109155118Y-109543841D01*
X109344166Y-109731842D01*
X109532256Y-109876963D01*
X109803645Y-110031780D01*
X110080906Y-110138196D01*
X110373730Y-110199068D01*
X110686354Y-110217286D01*
X110969964Y-110200105D01*
X111227499Y-110148697D01*
X111476333Y-110059039D01*
X111579296Y-110010580D01*
X111836401Y-109856664D01*
X112071633Y-109666014D01*
X112277676Y-109446671D01*
X112447215Y-109206674D01*
X112572936Y-108954063D01*
X112595273Y-108893906D01*
X112643462Y-108755000D01*
X113347394Y-108755000D01*
X113605273Y-108756291D01*
X113818050Y-108760938D01*
X113993494Y-108770097D01*
X114139374Y-108784927D01*
X114263461Y-108806586D01*
X114373522Y-108836230D01*
X114477326Y-108875019D01*
X114582644Y-108924110D01*
X114623723Y-108945206D01*
X114764968Y-109036096D01*
X114915589Y-109161480D01*
X115062421Y-109307977D01*
X115192299Y-109462207D01*
X115292059Y-109610787D01*
X115308639Y-109641354D01*
X115346226Y-109713861D01*
X115378527Y-109777652D01*
X115405977Y-109837204D01*
X115429008Y-109896994D01*
X115448055Y-109961501D01*
X115463551Y-110035203D01*
X115475930Y-110122576D01*
X115485627Y-110228100D01*
X115493074Y-110356252D01*
X115498705Y-110511510D01*
X115502955Y-110698351D01*
X115506257Y-110921254D01*
X115509045Y-111184696D01*
X115511753Y-111493156D01*
X115514034Y-111761601D01*
X115528229Y-113405599D01*
X116458255Y-111080299D01*
X117388282Y-108755000D01*
X115515000Y-108755000D01*
X115515000Y-106400208D01*
X113219739Y-106403811D01*
X112878107Y-106404472D01*
X112553333Y-106405345D01*
X112249076Y-106406404D01*
X111968994Y-106407627D01*
X111716744Y-106408989D01*
X111495987Y-106410465D01*
X111310379Y-106412032D01*
X111163579Y-106413667D01*
X111059247Y-106415343D01*
X111001039Y-106417038D01*
X110990625Y-106418487D01*
X111164354Y-106462543D01*
X111356153Y-106535940D01*
X111547204Y-106630076D01*
X111718691Y-106736350D01*
X111771145Y-106775244D01*
X111944746Y-106937016D01*
X112104361Y-107134566D01*
X112240430Y-107353128D01*
X112343391Y-107577939D01*
X112390927Y-107732299D01*
X112436261Y-108031120D01*
X112431818Y-108325847D01*
X112380363Y-108611306D01*
X112284665Y-108882322D01*
X112147489Y-109133721D01*
X111971603Y-109360328D01*
X111759774Y-109556970D01*
X111514768Y-109718471D01*
X111269846Y-109828898D01*
X110981606Y-109906273D01*
X110688822Y-109933234D01*
X110397725Y-109911174D01*
X110114545Y-109841489D01*
X109845511Y-109725571D01*
X109596856Y-109564815D01*
X109428822Y-109416998D01*
X109228206Y-109181820D01*
X109075950Y-108925192D01*
X108971817Y-108646593D01*
X108915568Y-108345501D01*
X108909774Y-108278750D01*
X108913735Y-107977803D01*
X108966547Y-107690558D01*
X109065026Y-107421073D01*
X109205992Y-107173407D01*
X109386265Y-106951617D01*
X109602662Y-106759763D01*
X109852003Y-106601901D01*
X110131106Y-106482091D01*
X110368854Y-106417367D01*
X110357304Y-106414469D01*
X110298845Y-106411648D01*
X110199484Y-106409024D01*
X110065226Y-106406717D01*
X109902080Y-106404845D01*
X109716051Y-106403528D01*
X109661093Y-106403277D01*
X108900416Y-106400208D01*
X108900416Y-104047531D01*
X111288281Y-104039079D01*
X111708433Y-104037650D01*
X112079221Y-104036361D01*
X112404193Y-104034975D01*
X112686901Y-104033253D01*
X112930894Y-104030957D01*
X113139723Y-104027849D01*
X113316938Y-104023689D01*
X113466088Y-104018240D01*
X113590725Y-104011264D01*
X113694399Y-104002523D01*
X113780658Y-103991777D01*
X113853055Y-103978789D01*
X113915139Y-103963320D01*
X113970459Y-103945132D01*
X114022568Y-103923988D01*
X114075013Y-103899647D01*
X114131347Y-103871873D01*
X114186692Y-103844531D01*
X114364689Y-103737795D01*
X114542794Y-103595868D01*
X114704235Y-103433712D01*
X114828757Y-103271694D01*
X114857440Y-103218814D01*
X114901187Y-103127127D01*
X114956889Y-103004082D01*
X115021438Y-102857128D01*
X115091727Y-102693713D01*
X115164645Y-102521286D01*
X115237086Y-102347295D01*
X115305941Y-102179190D01*
X115368102Y-102024420D01*
X115420460Y-101890432D01*
X115459908Y-101784675D01*
X115483336Y-101714599D01*
X115488541Y-101690575D01*
X115462186Y-101684750D01*
X115383520Y-101679630D01*
X115253148Y-101675226D01*
X115071671Y-101671545D01*
X114839692Y-101668596D01*
X114557814Y-101666389D01*
X114226638Y-101664931D01*
X113846768Y-101664232D01*
X113676145Y-101664166D01*
X111863750Y-101664166D01*
X111863750Y-99309375D01*
X114848739Y-99309375D01*
X115323175Y-99309336D01*
X115747650Y-99309322D01*
X116125121Y-99309486D01*
X116458542Y-99309982D01*
X116750870Y-99310963D01*
X117005060Y-99312582D01*
X117224069Y-99314992D01*
X117410852Y-99318348D01*
X117568364Y-99322802D01*
X117699563Y-99328507D01*
X117807403Y-99335617D01*
X117894840Y-99344286D01*
X117964830Y-99354666D01*
X118020329Y-99366912D01*
X118064293Y-99381176D01*
X118099677Y-99397611D01*
X118129437Y-99416371D01*
X118156530Y-99437610D01*
X118183910Y-99461481D01*
X118209349Y-99483725D01*
X118340624Y-99626757D01*
X118423369Y-99790472D01*
X118458575Y-99977055D01*
X118460023Y-100036979D01*
X118459150Y-100072652D01*
X118456360Y-100108685D01*
X118450347Y-100148642D01*
X118439804Y-100196084D01*
X118423426Y-100254575D01*
X118399906Y-100327676D01*
X118367939Y-100418951D01*
X118326218Y-100531961D01*
X118273437Y-100670269D01*
X118208290Y-100837438D01*
X118129472Y-101037030D01*
X118035675Y-101272608D01*
X117925594Y-101547734D01*
X117797923Y-101865970D01*
X117701003Y-102107293D01*
X117580564Y-102407453D01*
X117466032Y-102693545D01*
X117358921Y-102961749D01*
X117260745Y-103208246D01*
X117173015Y-103429217D01*
X117097246Y-103620842D01*
X117034949Y-103779303D01*
X116987638Y-103900780D01*
X116956826Y-103981453D01*
X116944026Y-104017503D01*
X116943750Y-104018908D01*
X116969639Y-104022322D01*
X117045031Y-104025501D01*
X117166514Y-104028447D01*
X117330673Y-104031159D01*
X117534096Y-104033637D01*
X117773371Y-104035882D01*
X118045083Y-104037894D01*
X118345821Y-104039673D01*
X118672170Y-104041220D01*
X119020718Y-104042533D01*
X119388052Y-104043615D01*
X119770758Y-104044464D01*
X120165424Y-104045082D01*
X120568637Y-104045468D01*
X120976984Y-104045622D01*
X121387051Y-104045545D01*
X121795426Y-104045237D01*
X122198696Y-104044698D01*
X122593447Y-104043928D01*
X122976266Y-104042927D01*
X123343741Y-104041697D01*
X123692458Y-104040236D01*
X124019005Y-104038545D01*
X124319968Y-104036625D01*
X124591934Y-104034474D01*
X124831491Y-104032095D01*
X125035225Y-104029487D01*
X125199723Y-104026649D01*
X125321572Y-104023583D01*
X125397359Y-104020288D01*
X125417920Y-104018415D01*
X125704394Y-103954139D01*
X125971046Y-103848953D01*
X126085104Y-103787005D01*
X126225153Y-103687886D01*
X126369989Y-103559353D01*
X126505468Y-103415958D01*
X126617445Y-103272253D01*
X126672414Y-103182787D01*
X126691069Y-103141646D01*
X126728256Y-103053993D01*
X126782905Y-102922468D01*
X126853950Y-102749712D01*
X126940320Y-102538365D01*
X127040949Y-102291070D01*
X127154768Y-102010465D01*
X127280708Y-101699193D01*
X127417702Y-101359894D01*
X127564680Y-100995208D01*
X127720576Y-100607776D01*
X127884320Y-100200240D01*
X128054844Y-99775239D01*
X128231080Y-99335415D01*
X128411959Y-98883409D01*
X128437357Y-98819895D01*
X130119416Y-94613020D01*
X126091427Y-94599763D01*
X125550799Y-94597962D01*
X125060525Y-94596263D01*
X124618043Y-94594629D01*
X124220788Y-94593020D01*
X123866200Y-94591399D01*
X123551714Y-94589726D01*
X123274769Y-94587964D01*
X123032801Y-94586075D01*
X122823248Y-94584019D01*
X122643548Y-94581758D01*
X122491137Y-94579255D01*
X122363452Y-94576470D01*
X122257932Y-94573365D01*
X122172013Y-94569903D01*
X122103133Y-94566044D01*
X122048729Y-94561750D01*
X122006238Y-94556982D01*
X121973098Y-94551703D01*
X121946746Y-94545874D01*
X121924619Y-94539457D01*
X121917960Y-94537255D01*
X121629947Y-94414108D01*
X121372802Y-94251683D01*
X121150255Y-94053583D01*
X120966034Y-93823406D01*
X120823869Y-93564755D01*
X120771084Y-93429862D01*
X120714062Y-93263645D01*
X120708488Y-91067453D01*
X122474546Y-91067453D01*
X122490340Y-91308788D01*
X122532421Y-91534233D01*
X122562258Y-91632362D01*
X122688292Y-91914173D01*
X122853977Y-92163721D01*
X123055108Y-92378001D01*
X123287477Y-92554004D01*
X123546880Y-92688725D01*
X123829111Y-92779156D01*
X124129963Y-92822291D01*
X124231330Y-92825626D01*
X124367197Y-92821114D01*
X124508054Y-92807816D01*
X124627025Y-92788389D01*
X124641434Y-92785084D01*
X124929200Y-92688900D01*
X125193420Y-92545384D01*
X125433363Y-92354949D01*
X125477434Y-92312210D01*
X125678714Y-92080511D01*
X125829685Y-91836704D01*
X125932494Y-91575651D01*
X125989286Y-91292216D01*
X125998967Y-91124489D01*
X127182434Y-91124489D01*
X127213058Y-91392178D01*
X127283526Y-91651715D01*
X127392427Y-91898146D01*
X127538346Y-92126520D01*
X127719871Y-92331883D01*
X127935589Y-92509282D01*
X128184086Y-92653766D01*
X128463949Y-92760381D01*
X128514572Y-92774391D01*
X128707643Y-92809459D01*
X128925228Y-92823792D01*
X129143678Y-92817064D01*
X129339343Y-92788949D01*
X129352708Y-92785907D01*
X129620135Y-92697532D01*
X129873706Y-92564409D01*
X130105757Y-92393020D01*
X130308624Y-92189848D01*
X130474644Y-91961375D01*
X130584348Y-91744112D01*
X130652835Y-91538001D01*
X130699746Y-91317779D01*
X130721576Y-91103938D01*
X130719072Y-90956335D01*
X130699273Y-90780812D01*
X130669003Y-90631164D01*
X130622366Y-90486155D01*
X130553465Y-90324551D01*
X130529580Y-90273854D01*
X130377095Y-90014604D01*
X130184731Y-89789301D01*
X129954885Y-89600060D01*
X129689950Y-89448995D01*
X129514573Y-89377359D01*
X129412272Y-89342711D01*
X129327344Y-89319688D01*
X129243750Y-89305998D01*
X129145450Y-89299348D01*
X129016406Y-89297446D01*
X128955833Y-89297491D01*
X128804760Y-89299449D01*
X128690229Y-89305770D01*
X128595911Y-89318599D01*
X128505478Y-89340080D01*
X128413437Y-89368742D01*
X128154521Y-89474926D01*
X127927609Y-89613739D01*
X127718214Y-89794389D01*
X127676456Y-89837089D01*
X127486656Y-90071254D01*
X127343767Y-90322029D01*
X127246376Y-90584461D01*
X127193070Y-90853599D01*
X127182434Y-91124489D01*
X125998967Y-91124489D01*
X126003014Y-91054375D01*
X125980009Y-90748810D01*
X125908354Y-90463833D01*
X125787682Y-90198557D01*
X125617624Y-89952095D01*
X125485463Y-89806585D01*
X125253269Y-89610211D01*
X124997205Y-89459004D01*
X124722783Y-89354309D01*
X124435512Y-89297474D01*
X124140903Y-89289842D01*
X123844468Y-89332761D01*
X123703854Y-89371487D01*
X123449402Y-89473165D01*
X123224330Y-89609101D01*
X123015437Y-89787636D01*
X122966873Y-89837089D01*
X122774945Y-90071931D01*
X122629839Y-90326940D01*
X122526777Y-90610554D01*
X122524794Y-90617732D01*
X122485782Y-90830383D01*
X122474546Y-91067453D01*
X120708488Y-91067453D01*
X120700833Y-88051354D01*
X120696725Y-86432549D01*
X122463055Y-86432549D01*
X122473319Y-86541476D01*
X122535405Y-86836805D01*
X122641011Y-87108909D01*
X122785527Y-87354797D01*
X122964346Y-87571475D01*
X123172857Y-87755950D01*
X123406452Y-87905228D01*
X123660522Y-88016318D01*
X123930458Y-88086225D01*
X124211651Y-88111956D01*
X124499491Y-88090520D01*
X124762187Y-88027860D01*
X125038418Y-87913349D01*
X125286761Y-87758315D01*
X125503855Y-87567922D01*
X125686336Y-87347333D01*
X125830843Y-87101712D01*
X125934013Y-86836220D01*
X125992484Y-86556023D01*
X125997129Y-86426715D01*
X127184406Y-86426715D01*
X127221156Y-86711266D01*
X127306080Y-86992414D01*
X127370421Y-87136368D01*
X127525497Y-87389513D01*
X127717696Y-87609281D01*
X127941233Y-87792846D01*
X128190319Y-87937383D01*
X128459168Y-88040067D01*
X128741992Y-88098071D01*
X129033005Y-88108572D01*
X129294292Y-88075656D01*
X129568965Y-87995021D01*
X129829905Y-87871389D01*
X130066994Y-87710951D01*
X130270118Y-87519899D01*
X130340063Y-87435678D01*
X130507663Y-87180497D01*
X130624477Y-86915093D01*
X130692439Y-86633819D01*
X130713517Y-86344791D01*
X130694142Y-86046951D01*
X130633607Y-85778234D01*
X130528888Y-85531304D01*
X130376963Y-85298824D01*
X130200057Y-85098589D01*
X129979659Y-84904156D01*
X129748782Y-84757577D01*
X129498519Y-84653809D01*
X129337638Y-84610510D01*
X129109422Y-84578691D01*
X128861499Y-84576487D01*
X128615005Y-84602731D01*
X128391071Y-84656256D01*
X128367974Y-84664020D01*
X128096342Y-84784928D01*
X127855770Y-84944848D01*
X127648398Y-85138478D01*
X127476365Y-85360517D01*
X127341810Y-85605662D01*
X127246872Y-85868611D01*
X127193691Y-86144063D01*
X127184406Y-86426715D01*
X125997129Y-86426715D01*
X126002894Y-86266282D01*
X125991717Y-86139739D01*
X125934172Y-85846922D01*
X125837448Y-85585147D01*
X125697284Y-85345695D01*
X125509419Y-85119846D01*
X125477214Y-85086956D01*
X125244397Y-84887292D01*
X124993185Y-84737062D01*
X124721916Y-84635579D01*
X124428925Y-84582155D01*
X124233020Y-84572865D01*
X123925535Y-84596450D01*
X123640815Y-84667663D01*
X123377198Y-84787191D01*
X123133020Y-84955720D01*
X122988827Y-85086956D01*
X122789559Y-85321472D01*
X122635610Y-85578195D01*
X122528717Y-85852218D01*
X122470619Y-86138638D01*
X122463055Y-86432549D01*
X120696725Y-86432549D01*
X120687604Y-82839062D01*
X119910664Y-84783750D01*
X119788649Y-85088801D01*
X119672020Y-85379699D01*
X119562300Y-85652689D01*
X119461010Y-85904014D01*
X119369674Y-86129919D01*
X119289813Y-86326649D01*
X119222950Y-86490447D01*
X119170608Y-86617557D01*
X119134308Y-86704225D01*
X119115572Y-86746694D01*
X119113530Y-86750342D01*
X119080162Y-86753734D01*
X119011122Y-86742206D01*
X118920719Y-86718234D01*
X118911511Y-86715391D01*
X118637062Y-86655641D01*
X118344343Y-86639789D01*
X118043878Y-86667336D01*
X117746189Y-86737779D01*
X117634836Y-86776122D01*
X117411738Y-86873712D01*
X117213966Y-86992140D01*
X117025424Y-87142116D01*
X116890833Y-87271079D01*
X116681212Y-87519884D01*
X116515137Y-87796681D01*
X116399191Y-88077812D01*
X116341918Y-88308865D01*
X116313030Y-88566264D01*
X116313213Y-88831267D01*
X116343153Y-89085131D01*
X116359522Y-89162604D01*
X116460361Y-89476291D01*
X116606262Y-89765777D01*
X116793876Y-90026719D01*
X117019855Y-90254772D01*
X117280850Y-90445594D01*
X117401658Y-90514409D01*
X117486909Y-90563644D01*
X117546663Y-90606870D01*
X117570756Y-90636514D01*
X117570421Y-90640094D01*
X117558913Y-90668906D01*
X117529246Y-90743091D01*
X117482921Y-90858897D01*
X117421441Y-91012568D01*
X117346308Y-91200350D01*
X117259024Y-91418490D01*
X117161092Y-91663232D01*
X117054013Y-91930823D01*
X116939290Y-92217508D01*
X116818424Y-92519533D01*
X116772112Y-92635260D01*
X115985920Y-94599791D01*
X114808103Y-94599791D01*
X114527573Y-94599693D01*
X114295465Y-94599278D01*
X114107282Y-94598368D01*
X113958529Y-94596785D01*
X113844711Y-94594350D01*
X113761332Y-94590884D01*
X113703897Y-94586208D01*
X113667910Y-94580144D01*
X113648877Y-94572512D01*
X113642301Y-94563136D01*
X113643196Y-94553489D01*
X113654371Y-94523931D01*
X113684114Y-94448023D01*
X113731321Y-94328538D01*
X113794886Y-94168249D01*
X113873703Y-93969930D01*
X113966666Y-93736355D01*
X114072672Y-93470296D01*
X114190613Y-93174526D01*
X114319385Y-92851819D01*
X114457882Y-92504949D01*
X114604999Y-92136688D01*
X114759631Y-91749810D01*
X114920671Y-91347088D01*
X115086269Y-90933157D01*
X115288915Y-90426556D01*
X115472711Y-89966576D01*
X115638572Y-89550752D01*
X115787410Y-89176619D01*
X115920142Y-88841712D01*
X116037679Y-88543564D01*
X116140937Y-88279711D01*
X116230830Y-88047687D01*
X116308272Y-87845026D01*
X116374177Y-87669263D01*
X116429459Y-87517932D01*
X116475032Y-87388568D01*
X116511810Y-87278706D01*
X116540708Y-87185880D01*
X116562639Y-87107624D01*
X116578517Y-87041473D01*
X116589257Y-86984962D01*
X116595773Y-86935624D01*
X116598979Y-86890996D01*
X116599791Y-86850942D01*
X116575990Y-86600887D01*
X116508116Y-86344725D01*
X116401467Y-86095396D01*
X116261340Y-85865844D01*
X116132508Y-85709166D01*
X115948158Y-85533786D01*
X115759715Y-85398612D01*
X115550338Y-85292488D01*
X115436793Y-85248356D01*
X115210729Y-85167395D01*
X110937708Y-85159984D01*
X110364774Y-85158950D01*
X109842247Y-85157986D01*
X109367618Y-85157185D01*
X108938378Y-85156641D01*
X108552018Y-85156445D01*
X108206027Y-85156691D01*
X107897897Y-85157472D01*
X107625118Y-85158880D01*
X107385182Y-85161008D01*
X107175578Y-85163949D01*
X106993797Y-85167795D01*
X106837330Y-85172641D01*
X106703669Y-85178577D01*
X106590302Y-85185698D01*
X106494722Y-85194095D01*
X106414418Y-85203863D01*
X106346881Y-85215093D01*
X106289603Y-85227878D01*
X106240073Y-85242311D01*
X106195783Y-85258485D01*
X106154223Y-85276493D01*
X106112883Y-85296428D01*
X106069255Y-85318382D01*
X106022218Y-85341771D01*
X105811327Y-85467121D01*
X105611828Y-85627855D01*
X105439565Y-85810094D01*
X105353325Y-85927889D01*
X105326791Y-85977258D01*
X105284798Y-86065683D01*
X105230461Y-86185756D01*
X105166898Y-86330072D01*
X105097226Y-86491224D01*
X105024561Y-86661805D01*
X104952021Y-86834408D01*
X104882721Y-87001626D01*
X104819780Y-87156053D01*
X104766313Y-87290282D01*
X104725438Y-87396907D01*
X104700271Y-87468520D01*
X104693541Y-87495779D01*
X104719339Y-87497830D01*
X104794094Y-87499784D01*
X104913844Y-87501616D01*
X105074630Y-87503300D01*
X105272491Y-87504812D01*
X105503467Y-87506128D01*
X105763597Y-87507222D01*
X106048922Y-87508071D01*
X106355479Y-87508650D01*
X106679311Y-87508933D01*
X106810208Y-87508958D01*
X108926875Y-87508958D01*
X108926875Y-89890208D01*
X106780954Y-89890208D01*
X106380286Y-89890181D01*
X106028771Y-89890269D01*
X105722647Y-89890725D01*
X105458151Y-89891802D01*
X105231518Y-89893755D01*
X105038988Y-89896836D01*
X104876795Y-89901299D01*
X104741178Y-89907398D01*
X104628373Y-89915385D01*
X104534618Y-89925514D01*
X104456149Y-89938039D01*
X104389203Y-89953213D01*
X104330017Y-89971289D01*
X104274829Y-89992521D01*
X104219875Y-90017162D01*
X104161392Y-90045466D01*
X104111458Y-90069978D01*
X103955692Y-90163552D01*
X103793798Y-90290870D01*
X103639411Y-90438796D01*
X103506167Y-90594197D01*
X103407703Y-90743939D01*
X103403483Y-90751910D01*
X103384373Y-90794062D01*
X103348137Y-90879373D01*
X103296622Y-91003246D01*
X103231677Y-91161085D01*
X103155147Y-91348291D01*
X103068880Y-91560270D01*
X102974724Y-91792422D01*
X102874525Y-92040152D01*
X102770131Y-92298862D01*
X102663388Y-92563956D01*
X102556145Y-92830835D01*
X102450247Y-93094905D01*
X102347543Y-93351566D01*
X102249879Y-93596223D01*
X102159103Y-93824278D01*
X102077062Y-94031134D01*
X102005602Y-94212195D01*
X101946572Y-94362863D01*
X101901818Y-94478541D01*
X101873188Y-94554633D01*
X101862528Y-94586541D01*
X101862500Y-94586913D01*
X101888446Y-94588476D01*
X101964237Y-94589984D01*
X102086803Y-94591426D01*
X102253070Y-94592792D01*
X102459967Y-94594070D01*
X102704424Y-94595249D01*
X102983368Y-94596317D01*
X103293728Y-94597263D01*
X103632433Y-94598076D01*
X103996410Y-94598746D01*
X104382589Y-94599260D01*
X104787897Y-94599607D01*
X105209264Y-94599776D01*
X105381458Y-94599791D01*
X108900416Y-94599791D01*
X108900416Y-96951676D01*
X107676718Y-96960241D01*
X106453020Y-96968807D01*
X106239279Y-97040787D01*
X105989262Y-97148103D01*
X105750733Y-97294070D01*
X105597494Y-97416804D01*
X105521111Y-97491823D01*
X105449929Y-97576166D01*
X105380749Y-97675715D01*
X105310371Y-97796355D01*
X105235598Y-97943970D01*
X105153229Y-98124445D01*
X105060066Y-98343663D01*
X104960565Y-98588385D01*
X104671731Y-99309374D01*
X106786074Y-99309375D01*
X108900416Y-99309375D01*
X108900416Y-101661578D01*
X106750677Y-101671044D01*
X106352234Y-101672762D01*
X106002952Y-101674354D01*
X105699079Y-101676081D01*
X105436860Y-101678204D01*
X105212542Y-101680985D01*
X105022371Y-101684685D01*
X104862593Y-101689566D01*
X104729456Y-101695887D01*
X104619205Y-101703912D01*
X104528086Y-101713901D01*
X104452347Y-101726115D01*
X104388233Y-101740816D01*
X104331991Y-101758264D01*
X104279867Y-101778722D01*
X104228107Y-101802451D01*
X104172959Y-101829711D01*
X104124687Y-101853837D01*
X103908210Y-101983201D01*
X103708501Y-102144781D01*
X103537055Y-102327696D01*
X103405370Y-102521066D01*
X103390618Y-102548629D01*
X103371964Y-102590199D01*
X103335361Y-102676847D01*
X103282466Y-102804500D01*
X103214936Y-102969086D01*
X103134426Y-103166531D01*
X103042594Y-103392763D01*
X102941096Y-103643710D01*
X102831588Y-103915297D01*
X102715727Y-104203453D01*
X102595170Y-104504105D01*
X102588138Y-104521666D01*
X101841295Y-106386979D01*
X99470647Y-106393735D01*
X97100000Y-106400491D01*
X97100000Y-104045814D01*
X98758822Y-104039000D01*
X100417645Y-104032187D01*
X100885682Y-102862779D01*
X100979277Y-102627887D01*
X101066030Y-102408150D01*
X101144090Y-102208404D01*
X101211602Y-102033485D01*
X101266717Y-101888229D01*
X101307580Y-101777473D01*
X101332341Y-101706053D01*
X101339148Y-101678805D01*
X101339116Y-101678768D01*
X101310996Y-101676484D01*
X101233975Y-101674309D01*
X101112064Y-101672272D01*
X100949278Y-101670400D01*
X100749632Y-101668721D01*
X100517139Y-101667262D01*
X100255813Y-101666051D01*
X99969668Y-101665117D01*
X99662718Y-101664486D01*
X99338976Y-101664187D01*
X99225486Y-101664166D01*
X97126458Y-101664166D01*
X97126458Y-99309375D01*
X102306937Y-99309375D01*
X102772635Y-98145179D01*
X102866298Y-97910761D01*
X102953667Y-97691573D01*
X103032825Y-97492464D01*
X103101853Y-97318281D01*
X103158836Y-97173872D01*
X103201855Y-97064083D01*
X103228992Y-96993763D01*
X103238333Y-96967784D01*
X103213022Y-96964274D01*
X103141675Y-96961116D01*
X103031174Y-96958438D01*
X102888401Y-96956370D01*
X102720235Y-96955042D01*
X102537187Y-96954583D01*
X101836041Y-96954583D01*
X101836041Y-94599791D01*
X97100000Y-94599791D01*
X97100000Y-92245000D01*
X98761810Y-92244999D01*
X100423621Y-92244999D01*
X100881416Y-91100677D01*
X100974727Y-90867426D01*
X101062207Y-90648741D01*
X101141854Y-90449628D01*
X101211664Y-90275092D01*
X101269637Y-90130140D01*
X101313769Y-90019778D01*
X101342059Y-89949011D01*
X101352332Y-89923281D01*
X101345140Y-89917068D01*
X101316399Y-89911634D01*
X101263237Y-89906934D01*
X101182781Y-89902922D01*
X101072159Y-89899554D01*
X100928498Y-89896785D01*
X100748925Y-89894569D01*
X100530570Y-89892861D01*
X100270558Y-89891616D01*
X99966018Y-89890789D01*
X99614077Y-89890335D01*
X99245955Y-89890208D01*
X97126458Y-89890208D01*
X97126458Y-87509217D01*
X102322808Y-87495729D01*
X102779341Y-86358020D01*
X102872355Y-86125595D01*
X102959058Y-85907721D01*
X103037490Y-85709412D01*
X103105693Y-85535680D01*
X103161705Y-85391538D01*
X103203568Y-85281997D01*
X103229321Y-85212071D01*
X103237104Y-85187239D01*
X103225955Y-85176830D01*
X103188492Y-85168691D01*
X103119989Y-85162600D01*
X103015716Y-85158332D01*
X102870946Y-85155664D01*
X102680951Y-85154373D01*
X102537187Y-85154166D01*
X101836041Y-85154166D01*
X101836041Y-82799093D01*
X116487343Y-82805848D01*
G36*
X103207582Y-114667693D02*
G01*
X103492012Y-114726657D01*
X103772267Y-114835224D01*
X103793958Y-114845920D01*
X104034299Y-114994848D01*
X104251097Y-115185651D01*
X104437662Y-115410044D01*
X104587307Y-115659738D01*
X104693341Y-115926450D01*
X104707942Y-115978125D01*
X104737570Y-116141051D01*
X104751882Y-116333684D01*
X104750819Y-116535059D01*
X104734324Y-116724214D01*
X104710336Y-116851250D01*
X104621369Y-117110104D01*
X104492445Y-117356894D01*
X104331139Y-117580010D01*
X104145024Y-117767842D01*
X104077367Y-117821657D01*
X103922525Y-117923691D01*
X103747496Y-118017986D01*
X103572000Y-118094881D01*
X103419987Y-118143703D01*
X103252319Y-118172237D01*
X103059440Y-118186193D01*
X102865220Y-118184940D01*
X102693525Y-118167848D01*
X102669479Y-118163551D01*
X102382393Y-118082879D01*
X102119752Y-117959170D01*
X101884701Y-117797331D01*
X101680384Y-117602269D01*
X101509944Y-117378891D01*
X101376528Y-117132102D01*
X101283278Y-116866810D01*
X101233339Y-116587922D01*
X101229855Y-116300344D01*
X101275972Y-116008983D01*
X101279582Y-115994615D01*
X101378017Y-115709297D01*
X101516992Y-115453153D01*
X101691538Y-115228454D01*
X101896687Y-115037468D01*
X102127470Y-114882467D01*
X102378920Y-114765719D01*
X102646067Y-114689494D01*
X102923944Y-114656062D01*
X103207582Y-114667693D01*
X103207582Y-114667693D01*
G37*
X103207582Y-114667693D02*
X103492012Y-114726657D01*
X103772267Y-114835224D01*
X103793958Y-114845920D01*
X104034299Y-114994848D01*
X104251097Y-115185651D01*
X104437662Y-115410044D01*
X104587307Y-115659738D01*
X104693341Y-115926450D01*
X104707942Y-115978125D01*
X104737570Y-116141051D01*
X104751882Y-116333684D01*
X104750819Y-116535059D01*
X104734324Y-116724214D01*
X104710336Y-116851250D01*
X104621369Y-117110104D01*
X104492445Y-117356894D01*
X104331139Y-117580010D01*
X104145024Y-117767842D01*
X104077367Y-117821657D01*
X103922525Y-117923691D01*
X103747496Y-118017986D01*
X103572000Y-118094881D01*
X103419987Y-118143703D01*
X103252319Y-118172237D01*
X103059440Y-118186193D01*
X102865220Y-118184940D01*
X102693525Y-118167848D01*
X102669479Y-118163551D01*
X102382393Y-118082879D01*
X102119752Y-117959170D01*
X101884701Y-117797331D01*
X101680384Y-117602269D01*
X101509944Y-117378891D01*
X101376528Y-117132102D01*
X101283278Y-116866810D01*
X101233339Y-116587922D01*
X101229855Y-116300344D01*
X101275972Y-116008983D01*
X101279582Y-115994615D01*
X101378017Y-115709297D01*
X101516992Y-115453153D01*
X101691538Y-115228454D01*
X101896687Y-115037468D01*
X102127470Y-114882467D01*
X102378920Y-114765719D01*
X102646067Y-114689494D01*
X102923944Y-114656062D01*
X103207582Y-114667693D01*
G36*
X130339944Y-111791093D02*
G01*
X130134516Y-112304508D01*
X129933651Y-112806076D01*
X129738282Y-113293489D01*
X129549339Y-113764438D01*
X129367756Y-114216614D01*
X129194463Y-114647707D01*
X129030393Y-115055407D01*
X128876477Y-115437406D01*
X128733647Y-115791395D01*
X128602836Y-116115064D01*
X128484975Y-116406104D01*
X128380995Y-116662206D01*
X128291829Y-116881061D01*
X128218409Y-117060359D01*
X128161666Y-117197790D01*
X128122532Y-117291047D01*
X128101940Y-117337820D01*
X128100484Y-117340729D01*
X128000045Y-117495484D01*
X127863966Y-117654099D01*
X127706493Y-117802789D01*
X127541874Y-117927770D01*
X127420663Y-117998461D01*
X127357648Y-118030045D01*
X127302049Y-118057859D01*
X127250257Y-118082147D01*
X127198662Y-118103154D01*
X127143655Y-118121128D01*
X127081624Y-118136312D01*
X127008962Y-118148953D01*
X126922057Y-118159296D01*
X126817301Y-118167587D01*
X126691083Y-118174071D01*
X126539794Y-118178993D01*
X126359823Y-118182600D01*
X126147562Y-118185137D01*
X125899400Y-118186848D01*
X125611728Y-118187980D01*
X125280936Y-118188779D01*
X124903414Y-118189489D01*
X124603437Y-118190078D01*
X124253746Y-118190582D01*
X123916924Y-118190618D01*
X123597045Y-118190213D01*
X123298185Y-118189391D01*
X123024417Y-118188178D01*
X122779816Y-118186600D01*
X122568456Y-118184682D01*
X122394412Y-118182449D01*
X122261758Y-118179928D01*
X122174569Y-118177143D01*
X122139671Y-118174654D01*
X121857667Y-118106270D01*
X121593311Y-117990823D01*
X121352553Y-117832856D01*
X121141344Y-117636914D01*
X120965636Y-117407541D01*
X120848026Y-117188298D01*
X120808969Y-117093450D01*
X120777314Y-116998848D01*
X120752323Y-116897677D01*
X120733254Y-116783125D01*
X120719369Y-116648376D01*
X120709928Y-116486616D01*
X120704190Y-116291030D01*
X120701416Y-116054805D01*
X120700833Y-115832604D01*
X120701450Y-115581006D01*
X120703483Y-115375703D01*
X120707206Y-115210088D01*
X120712892Y-115077551D01*
X120720814Y-114971485D01*
X120731247Y-114885279D01*
X120742707Y-114820668D01*
X120827659Y-114535357D01*
X120957778Y-114274656D01*
X121129609Y-114042287D01*
X121339699Y-113841972D01*
X121584597Y-113677432D01*
X121860847Y-113552390D01*
X121945574Y-113524279D01*
X121973416Y-113516921D01*
X122008231Y-113510383D01*
X122053228Y-113504602D01*
X122111616Y-113499516D01*
X122186605Y-113495065D01*
X122281404Y-113491185D01*
X122399223Y-113487817D01*
X122543271Y-113484897D01*
X122716758Y-113482364D01*
X122922893Y-113480156D01*
X123164886Y-113478213D01*
X123445946Y-113476471D01*
X123769282Y-113474870D01*
X124138104Y-113473347D01*
X124555621Y-113471840D01*
X124697854Y-113471359D01*
X127305813Y-113462644D01*
X130130379Y-106400208D01*
X132496009Y-106400208D01*
X130339944Y-111791093D01*
X130339944Y-111791093D01*
G37*
X130339944Y-111791093D02*
X130134516Y-112304508D01*
X129933651Y-112806076D01*
X129738282Y-113293489D01*
X129549339Y-113764438D01*
X129367756Y-114216614D01*
X129194463Y-114647707D01*
X129030393Y-115055407D01*
X128876477Y-115437406D01*
X128733647Y-115791395D01*
X128602836Y-116115064D01*
X128484975Y-116406104D01*
X128380995Y-116662206D01*
X128291829Y-116881061D01*
X128218409Y-117060359D01*
X128161666Y-117197790D01*
X128122532Y-117291047D01*
X128101940Y-117337820D01*
X128100484Y-117340729D01*
X128000045Y-117495484D01*
X127863966Y-117654099D01*
X127706493Y-117802789D01*
X127541874Y-117927770D01*
X127420663Y-117998461D01*
X127357648Y-118030045D01*
X127302049Y-118057859D01*
X127250257Y-118082147D01*
X127198662Y-118103154D01*
X127143655Y-118121128D01*
X127081624Y-118136312D01*
X127008962Y-118148953D01*
X126922057Y-118159296D01*
X126817301Y-118167587D01*
X126691083Y-118174071D01*
X126539794Y-118178993D01*
X126359823Y-118182600D01*
X126147562Y-118185137D01*
X125899400Y-118186848D01*
X125611728Y-118187980D01*
X125280936Y-118188779D01*
X124903414Y-118189489D01*
X124603437Y-118190078D01*
X124253746Y-118190582D01*
X123916924Y-118190618D01*
X123597045Y-118190213D01*
X123298185Y-118189391D01*
X123024417Y-118188178D01*
X122779816Y-118186600D01*
X122568456Y-118184682D01*
X122394412Y-118182449D01*
X122261758Y-118179928D01*
X122174569Y-118177143D01*
X122139671Y-118174654D01*
X121857667Y-118106270D01*
X121593311Y-117990823D01*
X121352553Y-117832856D01*
X121141344Y-117636914D01*
X120965636Y-117407541D01*
X120848026Y-117188298D01*
X120808969Y-117093450D01*
X120777314Y-116998848D01*
X120752323Y-116897677D01*
X120733254Y-116783125D01*
X120719369Y-116648376D01*
X120709928Y-116486616D01*
X120704190Y-116291030D01*
X120701416Y-116054805D01*
X120700833Y-115832604D01*
X120701450Y-115581006D01*
X120703483Y-115375703D01*
X120707206Y-115210088D01*
X120712892Y-115077551D01*
X120720814Y-114971485D01*
X120731247Y-114885279D01*
X120742707Y-114820668D01*
X120827659Y-114535357D01*
X120957778Y-114274656D01*
X121129609Y-114042287D01*
X121339699Y-113841972D01*
X121584597Y-113677432D01*
X121860847Y-113552390D01*
X121945574Y-113524279D01*
X121973416Y-113516921D01*
X122008231Y-113510383D01*
X122053228Y-113504602D01*
X122111616Y-113499516D01*
X122186605Y-113495065D01*
X122281404Y-113491185D01*
X122399223Y-113487817D01*
X122543271Y-113484897D01*
X122716758Y-113482364D01*
X122922893Y-113480156D01*
X123164886Y-113478213D01*
X123445946Y-113476471D01*
X123769282Y-113474870D01*
X124138104Y-113473347D01*
X124555621Y-113471840D01*
X124697854Y-113471359D01*
X127305813Y-113462644D01*
X130130379Y-106400208D01*
X132496009Y-106400208D01*
X130339944Y-111791093D01*
G36*
X122651429Y-97558493D02*
G01*
X122815217Y-97578522D01*
X122970809Y-97618157D01*
X123137340Y-97681819D01*
X123261825Y-97738804D01*
X123507467Y-97884944D01*
X123726824Y-98072897D01*
X123914205Y-98295732D01*
X124063921Y-98546516D01*
X124170280Y-98818318D01*
X124181904Y-98859583D01*
X124212036Y-99021284D01*
X124227311Y-99212561D01*
X124227676Y-99413235D01*
X124213079Y-99603121D01*
X124184242Y-99759166D01*
X124100572Y-100006073D01*
X123985887Y-100225631D01*
X123832040Y-100431730D01*
X123717766Y-100554485D01*
X123520304Y-100732546D01*
X123321854Y-100867391D01*
X123108579Y-100967140D01*
X122907207Y-101029907D01*
X122676231Y-101069784D01*
X122427297Y-101079795D01*
X122183461Y-101059945D01*
X122033610Y-101029729D01*
X121746726Y-100928673D01*
X121488446Y-100786080D01*
X121261709Y-100606689D01*
X121069456Y-100395238D01*
X120914625Y-100156466D01*
X120800157Y-99895114D01*
X120728992Y-99615919D01*
X120704070Y-99323622D01*
X120728329Y-99022961D01*
X120742237Y-98947945D01*
X120827969Y-98660438D01*
X120959997Y-98395008D01*
X121134532Y-98156647D01*
X121347787Y-97950346D01*
X121595974Y-97781098D01*
X121649661Y-97752035D01*
X121867406Y-97653198D01*
X122077352Y-97590763D01*
X122300530Y-97559582D01*
X122460312Y-97553649D01*
X122651429Y-97558493D01*
X122651429Y-97558493D01*
G37*
X122651429Y-97558493D02*
X122815217Y-97578522D01*
X122970809Y-97618157D01*
X123137340Y-97681819D01*
X123261825Y-97738804D01*
X123507467Y-97884944D01*
X123726824Y-98072897D01*
X123914205Y-98295732D01*
X124063921Y-98546516D01*
X124170280Y-98818318D01*
X124181904Y-98859583D01*
X124212036Y-99021284D01*
X124227311Y-99212561D01*
X124227676Y-99413235D01*
X124213079Y-99603121D01*
X124184242Y-99759166D01*
X124100572Y-100006073D01*
X123985887Y-100225631D01*
X123832040Y-100431730D01*
X123717766Y-100554485D01*
X123520304Y-100732546D01*
X123321854Y-100867391D01*
X123108579Y-100967140D01*
X122907207Y-101029907D01*
X122676231Y-101069784D01*
X122427297Y-101079795D01*
X122183461Y-101059945D01*
X122033610Y-101029729D01*
X121746726Y-100928673D01*
X121488446Y-100786080D01*
X121261709Y-100606689D01*
X121069456Y-100395238D01*
X120914625Y-100156466D01*
X120800157Y-99895114D01*
X120728992Y-99615919D01*
X120704070Y-99323622D01*
X120728329Y-99022961D01*
X120742237Y-98947945D01*
X120827969Y-98660438D01*
X120959997Y-98395008D01*
X121134532Y-98156647D01*
X121347787Y-97950346D01*
X121595974Y-97781098D01*
X121649661Y-97752035D01*
X121867406Y-97653198D01*
X122077352Y-97590763D01*
X122300530Y-97559582D01*
X122460312Y-97553649D01*
X122651429Y-97558493D01*
G36*
X118451921Y-86934620D02*
G01*
X118754389Y-86975583D01*
X119038101Y-87064467D01*
X119299228Y-87198427D01*
X119533940Y-87374616D01*
X119738407Y-87590186D01*
X119908799Y-87842292D01*
X120034883Y-88111108D01*
X120062254Y-88187467D01*
X120081245Y-88257006D01*
X120093405Y-88332273D01*
X120100284Y-88425812D01*
X120103430Y-88550171D01*
X120104279Y-88673125D01*
X120103577Y-88836403D01*
X120099373Y-88959967D01*
X120090337Y-89056978D01*
X120075141Y-89140592D01*
X120052455Y-89223969D01*
X120046838Y-89241979D01*
X119933997Y-89514278D01*
X119779778Y-89758565D01*
X119589461Y-89971794D01*
X119368325Y-90150919D01*
X119121649Y-90292895D01*
X118854711Y-90394677D01*
X118572790Y-90453220D01*
X118281166Y-90465478D01*
X117988854Y-90429193D01*
X117703104Y-90343185D01*
X117441015Y-90211293D01*
X117205780Y-90036426D01*
X117000592Y-89821497D01*
X116828643Y-89569418D01*
X116693127Y-89283101D01*
X116673272Y-89229344D01*
X116638846Y-89093737D01*
X116615898Y-88923584D01*
X116605147Y-88736155D01*
X116605570Y-88699583D01*
X117782037Y-88699583D01*
X117805793Y-88865717D01*
X117871851Y-89011007D01*
X117972396Y-89130360D01*
X118099616Y-89218686D01*
X118245696Y-89270894D01*
X118402821Y-89281893D01*
X118563178Y-89246591D01*
X118598872Y-89231762D01*
X118679838Y-89181915D01*
X118765047Y-89109972D01*
X118802798Y-89070147D01*
X118896187Y-88924111D01*
X118941371Y-88766363D01*
X118938412Y-88605584D01*
X118887370Y-88450453D01*
X118797496Y-88319626D01*
X118667045Y-88208767D01*
X118522994Y-88142873D01*
X118373059Y-88119057D01*
X118224957Y-88134431D01*
X118086406Y-88186107D01*
X117965121Y-88271199D01*
X117868820Y-88386818D01*
X117805221Y-88530077D01*
X117782039Y-88698089D01*
X117782037Y-88699583D01*
X116605570Y-88699583D01*
X116607315Y-88548714D01*
X116623121Y-88378530D01*
X116635004Y-88311572D01*
X116720797Y-88030591D01*
X116850706Y-87773254D01*
X117019824Y-87543280D01*
X117223244Y-87344386D01*
X117456061Y-87180291D01*
X117713368Y-87054714D01*
X117990258Y-86971372D01*
X118281825Y-86933984D01*
X118451921Y-86934620D01*
X118451921Y-86934620D01*
G37*
X118451921Y-86934620D02*
X118754389Y-86975583D01*
X119038101Y-87064467D01*
X119299228Y-87198427D01*
X119533940Y-87374616D01*
X119738407Y-87590186D01*
X119908799Y-87842292D01*
X120034883Y-88111108D01*
X120062254Y-88187467D01*
X120081245Y-88257006D01*
X120093405Y-88332273D01*
X120100284Y-88425812D01*
X120103430Y-88550171D01*
X120104279Y-88673125D01*
X120103577Y-88836403D01*
X120099373Y-88959967D01*
X120090337Y-89056978D01*
X120075141Y-89140592D01*
X120052455Y-89223969D01*
X120046838Y-89241979D01*
X119933997Y-89514278D01*
X119779778Y-89758565D01*
X119589461Y-89971794D01*
X119368325Y-90150919D01*
X119121649Y-90292895D01*
X118854711Y-90394677D01*
X118572790Y-90453220D01*
X118281166Y-90465478D01*
X117988854Y-90429193D01*
X117703104Y-90343185D01*
X117441015Y-90211293D01*
X117205780Y-90036426D01*
X117000592Y-89821497D01*
X116828643Y-89569418D01*
X116693127Y-89283101D01*
X116673272Y-89229344D01*
X116638846Y-89093737D01*
X116615898Y-88923584D01*
X116605147Y-88736155D01*
X116605570Y-88699583D01*
X117782037Y-88699583D01*
X117805793Y-88865717D01*
X117871851Y-89011007D01*
X117972396Y-89130360D01*
X118099616Y-89218686D01*
X118245696Y-89270894D01*
X118402821Y-89281893D01*
X118563178Y-89246591D01*
X118598872Y-89231762D01*
X118679838Y-89181915D01*
X118765047Y-89109972D01*
X118802798Y-89070147D01*
X118896187Y-88924111D01*
X118941371Y-88766363D01*
X118938412Y-88605584D01*
X118887370Y-88450453D01*
X118797496Y-88319626D01*
X118667045Y-88208767D01*
X118522994Y-88142873D01*
X118373059Y-88119057D01*
X118224957Y-88134431D01*
X118086406Y-88186107D01*
X117965121Y-88271199D01*
X117868820Y-88386818D01*
X117805221Y-88530077D01*
X117782039Y-88698089D01*
X117782037Y-88699583D01*
X116605570Y-88699583D01*
X116607315Y-88548714D01*
X116623121Y-88378530D01*
X116635004Y-88311572D01*
X116720797Y-88030591D01*
X116850706Y-87773254D01*
X117019824Y-87543280D01*
X117223244Y-87344386D01*
X117456061Y-87180291D01*
X117713368Y-87054714D01*
X117990258Y-86971372D01*
X118281825Y-86933984D01*
X118451921Y-86934620D01*
D12*
X146580000Y-74879000D02*
X146580000Y-73621000D01*
X148420000Y-74879000D02*
X148420000Y-73621000D01*
X144292000Y-71384000D02*
X122682000Y-71384000D01*
X122682000Y-71384000D02*
X122682000Y-128514000D01*
X122682000Y-128514000D02*
X144292000Y-128514000D01*
X144292000Y-128514000D02*
X144292000Y-71384000D01*
X136802000Y-71384000D02*
X136802000Y-75495000D01*
X136802000Y-77414000D02*
X136802000Y-78035000D01*
X136802000Y-79954000D02*
X136802000Y-80575000D01*
X136802000Y-82494000D02*
X136802000Y-83115000D01*
X136802000Y-85034000D02*
X136802000Y-85655000D01*
X136802000Y-87574000D02*
X136802000Y-88195000D01*
X136802000Y-90114000D02*
X136802000Y-90735000D01*
X136802000Y-92654000D02*
X136802000Y-93275000D01*
X136802000Y-95194000D02*
X136802000Y-95815000D01*
X136802000Y-97734000D02*
X136802000Y-98355000D01*
X136802000Y-100274000D02*
X136802000Y-100895000D01*
X136802000Y-102814000D02*
X136802000Y-103435000D01*
X136802000Y-105354000D02*
X136802000Y-105975000D01*
X136802000Y-107894000D02*
X136802000Y-108515000D01*
X136802000Y-110434000D02*
X136802000Y-111055000D01*
X136802000Y-112974000D02*
X136802000Y-113595000D01*
X136802000Y-115514000D02*
X136802000Y-116135000D01*
X136802000Y-118054000D02*
X136802000Y-118675000D01*
X136802000Y-120594000D02*
X136802000Y-121215000D01*
X136802000Y-123134000D02*
X136802000Y-123755000D01*
X136802000Y-125674000D02*
X136802000Y-128514000D01*
X144532000Y-75184000D02*
X145032000Y-74684000D01*
X145032000Y-74684000D02*
X145032000Y-75684000D01*
X145032000Y-75684000D02*
X144532000Y-75184000D01*
X175708000Y-105089000D02*
X178368000Y-105089000D01*
X175708000Y-97409000D02*
X175708000Y-105089000D01*
X178368000Y-97409000D02*
X178368000Y-105089000D01*
X175708000Y-97409000D02*
X178368000Y-97409000D01*
X175708000Y-96139000D02*
X175708000Y-94809000D01*
X175708000Y-94809000D02*
X177038000Y-94809000D01*
X146000000Y-78300000D02*
G75*
G02X146700000Y-77600000I700000J0D01*
G01*
X147300000Y-77600000D02*
G75*
G02X148000000Y-78300000I0J-700000D01*
G01*
X148000000Y-79700000D02*
G75*
G02X147300000Y-80400000I-700000J0D01*
G01*
X146700000Y-80400000D02*
G75*
G02X146000000Y-79700000I0J700000D01*
G01*
X147300000Y-80400000D02*
X146700000Y-80400000D01*
X148000000Y-78300000D02*
X148000000Y-79700000D01*
X146700000Y-77600000D02*
X147300000Y-77600000D01*
X146000000Y-79700000D02*
X146000000Y-78300000D01*
X149670000Y-76190000D02*
G75*
G02X149670000Y-78190000I0J-1000000D01*
G01*
X149670000Y-78190000D02*
X149670000Y-79840000D01*
X149670000Y-79840000D02*
X170110000Y-79840000D01*
X170110000Y-79840000D02*
X170110000Y-74540000D01*
X170110000Y-74540000D02*
X149670000Y-74540000D01*
X149670000Y-74540000D02*
X149670000Y-76190000D01*
X149610000Y-82330000D02*
X170170000Y-82330000D01*
X170170000Y-82330000D02*
X170170000Y-72050000D01*
X170170000Y-72050000D02*
X149610000Y-72050000D01*
X149610000Y-72050000D02*
X149610000Y-82330000D01*
X153360000Y-84990000D02*
X153360000Y-97140000D01*
X165510000Y-84240000D02*
X154110000Y-84240000D01*
X166260000Y-96390000D02*
X166260000Y-84990000D01*
X153360000Y-97140000D02*
X165510000Y-97140000D01*
X165510000Y-97140000D02*
G75*
G03X166260000Y-96390000I0J750000D01*
G01*
X166260000Y-84990000D02*
G75*
G03X165510000Y-84240000I-750000J0D01*
G01*
X154110000Y-84240000D02*
G75*
G03X153360000Y-84990000I0J-750000D01*
G01*
X150421392Y-101057665D02*
G75*
G03X150264484Y-104290000I1078608J-1672335D01*
G01*
X152578608Y-101057665D02*
G75*
G02X152735516Y-104290000I-1078608J-1672335D01*
G01*
X150420163Y-101688870D02*
G75*
G03X150420000Y-103770961I1079837J-1041130D01*
G01*
X152579837Y-101688870D02*
G75*
G02X152580000Y-103770961I-1079837J-1041130D01*
G01*
X150264000Y-104290000D02*
X150420000Y-104290000D01*
X152580000Y-104290000D02*
X152736000Y-104290000D01*
X161080000Y-104290000D02*
X161236000Y-104290000D01*
X158764000Y-104290000D02*
X158920000Y-104290000D01*
X161079837Y-101688870D02*
G75*
G02X161080000Y-103770961I-1079837J-1041130D01*
G01*
X158920163Y-101688870D02*
G75*
G03X158920000Y-103770961I1079837J-1041130D01*
G01*
X161078608Y-101057665D02*
G75*
G02X161235516Y-104290000I-1078608J-1672335D01*
G01*
X158921392Y-101057665D02*
G75*
G03X158764484Y-104290000I1078608J-1672335D01*
G01*
X167421392Y-101057665D02*
G75*
G03X167264484Y-104290000I1078608J-1672335D01*
G01*
X169578608Y-101057665D02*
G75*
G02X169735516Y-104290000I-1078608J-1672335D01*
G01*
X167420163Y-101688870D02*
G75*
G03X167420000Y-103770961I1079837J-1041130D01*
G01*
X169579837Y-101688870D02*
G75*
G02X169580000Y-103770961I-1079837J-1041130D01*
G01*
X167264000Y-104290000D02*
X167420000Y-104290000D01*
X169580000Y-104290000D02*
X169736000Y-104290000D01*
X93200000Y-116700000D02*
X93500000Y-116400000D01*
X93500000Y-117000000D02*
X93500000Y-116400000D01*
X93200000Y-116700000D02*
X93500000Y-117000000D01*
X92300000Y-117550000D02*
X91700000Y-117550000D01*
X93000000Y-114100000D02*
X93000000Y-116900000D01*
X91700000Y-113450000D02*
X92300000Y-113450000D01*
X91000000Y-116900000D02*
X91000000Y-114100000D01*
X91000000Y-114150000D02*
G75*
G02X91700000Y-113450000I700000J0D01*
G01*
X92300000Y-113450000D02*
G75*
G02X93000000Y-114150000I0J-700000D01*
G01*
X93000000Y-116850000D02*
G75*
G02X92300000Y-117550000I-700000J0D01*
G01*
X91700000Y-117550000D02*
G75*
G02X91000000Y-116850000I0J700000D01*
G01*
X100200000Y-117550000D02*
G75*
G02X99500000Y-116850000I0J700000D01*
G01*
X101500000Y-116850000D02*
G75*
G02X100800000Y-117550000I-700000J0D01*
G01*
X100800000Y-113450000D02*
G75*
G02X101500000Y-114150000I0J-700000D01*
G01*
X99500000Y-114150000D02*
G75*
G02X100200000Y-113450000I700000J0D01*
G01*
X99500000Y-116900000D02*
X99500000Y-114100000D01*
X100200000Y-113450000D02*
X100800000Y-113450000D01*
X101500000Y-114100000D02*
X101500000Y-116900000D01*
X100800000Y-117550000D02*
X100200000Y-117550000D01*
X101700000Y-116700000D02*
X102000000Y-117000000D01*
X102000000Y-117000000D02*
X102000000Y-116400000D01*
X101700000Y-116700000D02*
X102000000Y-116400000D01*
X99350000Y-127000000D02*
G75*
G02X100050000Y-127700000I0J-700000D01*
G01*
X100050000Y-128300000D02*
G75*
G02X99350000Y-129000000I-700000J0D01*
G01*
X97950000Y-129000000D02*
G75*
G02X97250000Y-128300000I0J700000D01*
G01*
X97250000Y-127700000D02*
G75*
G02X97950000Y-127000000I700000J0D01*
G01*
X97250000Y-128300000D02*
X97250000Y-127700000D01*
X99350000Y-129000000D02*
X97950000Y-129000000D01*
X100050000Y-127700000D02*
X100050000Y-128300000D01*
X97950000Y-127000000D02*
X99350000Y-127000000D01*
X97800000Y-99700000D02*
X98100000Y-100000000D01*
X97500000Y-100000000D02*
X98100000Y-100000000D01*
X97800000Y-99700000D02*
X97500000Y-100000000D01*
X96950000Y-98800000D02*
X96950000Y-98200000D01*
X100400000Y-99500000D02*
X97600000Y-99500000D01*
X101050000Y-98200000D02*
X101050000Y-98800000D01*
X97600000Y-97500000D02*
X100400000Y-97500000D01*
X100350000Y-97500000D02*
G75*
G02X101050000Y-98200000I0J-700000D01*
G01*
X101050000Y-98800000D02*
G75*
G02X100350000Y-99500000I-700000J0D01*
G01*
X97650000Y-99500000D02*
G75*
G02X96950000Y-98800000I0J700000D01*
G01*
X96950000Y-98200000D02*
G75*
G02X97650000Y-97500000I700000J0D01*
G01*
X95200000Y-87300000D02*
X94900000Y-87000000D01*
X95500000Y-87000000D02*
X94900000Y-87000000D01*
X95200000Y-87300000D02*
X95500000Y-87000000D01*
X96050000Y-88200000D02*
X96050000Y-88800000D01*
X92600000Y-87500000D02*
X95400000Y-87500000D01*
X91950000Y-88800000D02*
X91950000Y-88200000D01*
X95400000Y-89500000D02*
X92600000Y-89500000D01*
X92650000Y-89500000D02*
G75*
G02X91950000Y-88800000I0J700000D01*
G01*
X91950000Y-88200000D02*
G75*
G02X92650000Y-87500000I700000J0D01*
G01*
X95350000Y-87500000D02*
G75*
G02X96050000Y-88200000I0J-700000D01*
G01*
X96050000Y-88800000D02*
G75*
G02X95350000Y-89500000I-700000J0D01*
G01*
X92300000Y-76950000D02*
G75*
G02X93000000Y-77650000I0J-700000D01*
G01*
X91000000Y-77650000D02*
G75*
G02X91700000Y-76950000I700000J0D01*
G01*
X91700000Y-81050000D02*
G75*
G02X91000000Y-80350000I0J700000D01*
G01*
X93000000Y-80350000D02*
G75*
G02X92300000Y-81050000I-700000J0D01*
G01*
X93000000Y-77600000D02*
X93000000Y-80400000D01*
X92300000Y-81050000D02*
X91700000Y-81050000D01*
X91000000Y-80400000D02*
X91000000Y-77600000D01*
X91700000Y-76950000D02*
X92300000Y-76950000D01*
X90800000Y-77800000D02*
X90500000Y-77500000D01*
X90500000Y-77500000D02*
X90500000Y-78100000D01*
X90800000Y-77800000D02*
X90500000Y-78100000D01*
X100800000Y-76950000D02*
G75*
G02X101500000Y-77650000I0J-700000D01*
G01*
X99500000Y-77650000D02*
G75*
G02X100200000Y-76950000I700000J0D01*
G01*
X100200000Y-81050000D02*
G75*
G02X99500000Y-80350000I0J700000D01*
G01*
X101500000Y-80350000D02*
G75*
G02X100800000Y-81050000I-700000J0D01*
G01*
X101500000Y-77600000D02*
X101500000Y-80400000D01*
X100800000Y-81050000D02*
X100200000Y-81050000D01*
X99500000Y-80400000D02*
X99500000Y-77600000D01*
X100200000Y-76950000D02*
X100800000Y-76950000D01*
X99300000Y-77800000D02*
X99000000Y-77500000D01*
X99000000Y-77500000D02*
X99000000Y-78100000D01*
X99300000Y-77800000D02*
X99000000Y-78100000D01*
X99000000Y-124000000D02*
G75*
G03X99000000Y-124000000I-1500000J0D01*
G01*
X105500000Y-115500000D02*
G75*
G03X105500000Y-115500000I-1500000J0D01*
G01*
X112500000Y-78500000D02*
G75*
G03X112500000Y-78500000I-1500000J0D01*
G01*
X95500000Y-99500000D02*
G75*
G03X95500000Y-99500000I-1500000J0D01*
G01*
X104000000Y-86000000D02*
G75*
G03X104000000Y-86000000I-1500000J0D01*
G01*
D10*
X146107142Y-72916666D02*
X146154761Y-72964285D01*
X146202380Y-73107142D01*
X146202380Y-73202380D01*
X146154761Y-73345238D01*
X146059523Y-73440476D01*
X145964285Y-73488095D01*
X145773809Y-73535714D01*
X145630952Y-73535714D01*
X145440476Y-73488095D01*
X145345238Y-73440476D01*
X145250000Y-73345238D01*
X145202380Y-73202380D01*
X145202380Y-73107142D01*
X145250000Y-72964285D01*
X145297619Y-72916666D01*
X145297619Y-72535714D02*
X145250000Y-72488095D01*
X145202380Y-72392857D01*
X145202380Y-72154761D01*
X145250000Y-72059523D01*
X145297619Y-72011904D01*
X145392857Y-71964285D01*
X145488095Y-71964285D01*
X145630952Y-72011904D01*
X146202380Y-72583333D01*
X146202380Y-71964285D01*
X133952380Y-100282333D02*
X134666666Y-100282333D01*
X134809523Y-100329952D01*
X134904761Y-100425190D01*
X134952380Y-100568047D01*
X134952380Y-100663285D01*
X134952380Y-99282333D02*
X134952380Y-99853761D01*
X134952380Y-99568047D02*
X133952380Y-99568047D01*
X134095238Y-99663285D01*
X134190476Y-99758523D01*
X134238095Y-99853761D01*
X176704666Y-93261380D02*
X176704666Y-93975666D01*
X176657047Y-94118523D01*
X176561809Y-94213761D01*
X176418952Y-94261380D01*
X176323714Y-94261380D01*
X177085619Y-93261380D02*
X177704666Y-93261380D01*
X177371333Y-93642333D01*
X177514190Y-93642333D01*
X177609428Y-93689952D01*
X177657047Y-93737571D01*
X177704666Y-93832809D01*
X177704666Y-94070904D01*
X177657047Y-94166142D01*
X177609428Y-94213761D01*
X177514190Y-94261380D01*
X177228476Y-94261380D01*
X177133238Y-94213761D01*
X177085619Y-94166142D01*
X144702380Y-79833333D02*
X145416666Y-79833333D01*
X145559523Y-79880952D01*
X145654761Y-79976190D01*
X145702380Y-80119047D01*
X145702380Y-80214285D01*
X145702380Y-79357142D02*
X144702380Y-79357142D01*
X144702380Y-78976190D01*
X144750000Y-78880952D01*
X144797619Y-78833333D01*
X144892857Y-78785714D01*
X145035714Y-78785714D01*
X145130952Y-78833333D01*
X145178571Y-78880952D01*
X145226190Y-78976190D01*
X145226190Y-79357142D01*
X145702380Y-77833333D02*
X145702380Y-78404761D01*
X145702380Y-78119047D02*
X144702380Y-78119047D01*
X144845238Y-78214285D01*
X144940476Y-78309523D01*
X144988095Y-78404761D01*
X158666666Y-121904761D02*
X158809523Y-121952380D01*
X159047619Y-121952380D01*
X159142857Y-121904761D01*
X159190476Y-121857142D01*
X159238095Y-121761904D01*
X159238095Y-121666666D01*
X159190476Y-121571428D01*
X159142857Y-121523809D01*
X159047619Y-121476190D01*
X158857142Y-121428571D01*
X158761904Y-121380952D01*
X158714285Y-121333333D01*
X158666666Y-121238095D01*
X158666666Y-121142857D01*
X158714285Y-121047619D01*
X158761904Y-121000000D01*
X158857142Y-120952380D01*
X159095238Y-120952380D01*
X159238095Y-121000000D01*
X159571428Y-120952380D02*
X159809523Y-121952380D01*
X160000000Y-121238095D01*
X160190476Y-121952380D01*
X160428571Y-120952380D01*
X161333333Y-121952380D02*
X160761904Y-121952380D01*
X161047619Y-121952380D02*
X161047619Y-120952380D01*
X160952380Y-121095238D01*
X160857142Y-121190476D01*
X160761904Y-121238095D01*
X159238095Y-76642380D02*
X159238095Y-77451904D01*
X159285714Y-77547142D01*
X159333333Y-77594761D01*
X159428571Y-77642380D01*
X159619047Y-77642380D01*
X159714285Y-77594761D01*
X159761904Y-77547142D01*
X159809523Y-77451904D01*
X159809523Y-76642380D01*
X160238095Y-76737619D02*
X160285714Y-76690000D01*
X160380952Y-76642380D01*
X160619047Y-76642380D01*
X160714285Y-76690000D01*
X160761904Y-76737619D01*
X160809523Y-76832857D01*
X160809523Y-76928095D01*
X160761904Y-77070952D01*
X160190476Y-77642380D01*
X160809523Y-77642380D01*
X159000476Y-89952380D02*
X159667142Y-90952380D01*
X159667142Y-89952380D02*
X159000476Y-90952380D01*
X160571904Y-90952380D02*
X160000476Y-90952380D01*
X160286190Y-90952380D02*
X160286190Y-89952380D01*
X160190952Y-90095238D01*
X160095714Y-90190476D01*
X160000476Y-90238095D01*
X150761904Y-106452380D02*
X150761904Y-105452380D01*
X151000000Y-105452380D01*
X151142857Y-105500000D01*
X151238095Y-105595238D01*
X151285714Y-105690476D01*
X151333333Y-105880952D01*
X151333333Y-106023809D01*
X151285714Y-106214285D01*
X151238095Y-106309523D01*
X151142857Y-106404761D01*
X151000000Y-106452380D01*
X150761904Y-106452380D01*
X152285714Y-106452380D02*
X151714285Y-106452380D01*
X152000000Y-106452380D02*
X152000000Y-105452380D01*
X151904761Y-105595238D01*
X151809523Y-105690476D01*
X151714285Y-105738095D01*
X159261904Y-106452380D02*
X159261904Y-105452380D01*
X159500000Y-105452380D01*
X159642857Y-105500000D01*
X159738095Y-105595238D01*
X159785714Y-105690476D01*
X159833333Y-105880952D01*
X159833333Y-106023809D01*
X159785714Y-106214285D01*
X159738095Y-106309523D01*
X159642857Y-106404761D01*
X159500000Y-106452380D01*
X159261904Y-106452380D01*
X160214285Y-105547619D02*
X160261904Y-105500000D01*
X160357142Y-105452380D01*
X160595238Y-105452380D01*
X160690476Y-105500000D01*
X160738095Y-105547619D01*
X160785714Y-105642857D01*
X160785714Y-105738095D01*
X160738095Y-105880952D01*
X160166666Y-106452380D01*
X160785714Y-106452380D01*
X167761904Y-106452380D02*
X167761904Y-105452380D01*
X168000000Y-105452380D01*
X168142857Y-105500000D01*
X168238095Y-105595238D01*
X168285714Y-105690476D01*
X168333333Y-105880952D01*
X168333333Y-106023809D01*
X168285714Y-106214285D01*
X168238095Y-106309523D01*
X168142857Y-106404761D01*
X168000000Y-106452380D01*
X167761904Y-106452380D01*
X168666666Y-105452380D02*
X169285714Y-105452380D01*
X168952380Y-105833333D01*
X169095238Y-105833333D01*
X169190476Y-105880952D01*
X169238095Y-105928571D01*
X169285714Y-106023809D01*
X169285714Y-106261904D01*
X169238095Y-106357142D01*
X169190476Y-106404761D01*
X169095238Y-106452380D01*
X168809523Y-106452380D01*
X168714285Y-106404761D01*
X168666666Y-106357142D01*
X92738095Y-73952380D02*
X92738095Y-72952380D01*
X92738095Y-73428571D02*
X93309523Y-73428571D01*
X93309523Y-73952380D02*
X93309523Y-72952380D01*
X94309523Y-73952380D02*
X93738095Y-73952380D01*
X94023809Y-73952380D02*
X94023809Y-72952380D01*
X93928571Y-73095238D01*
X93833333Y-73190476D01*
X93738095Y-73238095D01*
X175738095Y-73952380D02*
X175738095Y-72952380D01*
X175738095Y-73428571D02*
X176309523Y-73428571D01*
X176309523Y-73952380D02*
X176309523Y-72952380D01*
X176738095Y-73047619D02*
X176785714Y-73000000D01*
X176880952Y-72952380D01*
X177119047Y-72952380D01*
X177214285Y-73000000D01*
X177261904Y-73047619D01*
X177309523Y-73142857D01*
X177309523Y-73238095D01*
X177261904Y-73380952D01*
X176690476Y-73952380D01*
X177309523Y-73952380D01*
X92738095Y-126952380D02*
X92738095Y-125952380D01*
X92738095Y-126428571D02*
X93309523Y-126428571D01*
X93309523Y-126952380D02*
X93309523Y-125952380D01*
X93690476Y-125952380D02*
X94309523Y-125952380D01*
X93976190Y-126333333D01*
X94119047Y-126333333D01*
X94214285Y-126380952D01*
X94261904Y-126428571D01*
X94309523Y-126523809D01*
X94309523Y-126761904D01*
X94261904Y-126857142D01*
X94214285Y-126904761D01*
X94119047Y-126952380D01*
X93833333Y-126952380D01*
X93738095Y-126904761D01*
X93690476Y-126857142D01*
X175738095Y-126952380D02*
X175738095Y-125952380D01*
X175738095Y-126428571D02*
X176309523Y-126428571D01*
X176309523Y-126952380D02*
X176309523Y-125952380D01*
X177214285Y-126285714D02*
X177214285Y-126952380D01*
X176976190Y-125904761D02*
X176738095Y-126619047D01*
X177357142Y-126619047D01*
X91452380Y-119833333D02*
X92166666Y-119833333D01*
X92309523Y-119880952D01*
X92404761Y-119976190D01*
X92452380Y-120119047D01*
X92452380Y-120214285D01*
X92452380Y-119357142D02*
X91452380Y-119357142D01*
X91452380Y-118976190D01*
X91500000Y-118880952D01*
X91547619Y-118833333D01*
X91642857Y-118785714D01*
X91785714Y-118785714D01*
X91880952Y-118833333D01*
X91928571Y-118880952D01*
X91976190Y-118976190D01*
X91976190Y-119357142D01*
X91547619Y-118404761D02*
X91500000Y-118357142D01*
X91452380Y-118261904D01*
X91452380Y-118023809D01*
X91500000Y-117928571D01*
X91547619Y-117880952D01*
X91642857Y-117833333D01*
X91738095Y-117833333D01*
X91880952Y-117880952D01*
X92452380Y-118452380D01*
X92452380Y-117833333D01*
X99952380Y-119833333D02*
X100666666Y-119833333D01*
X100809523Y-119880952D01*
X100904761Y-119976190D01*
X100952380Y-120119047D01*
X100952380Y-120214285D01*
X100952380Y-119357142D02*
X99952380Y-119357142D01*
X99952380Y-118976190D01*
X100000000Y-118880952D01*
X100047619Y-118833333D01*
X100142857Y-118785714D01*
X100285714Y-118785714D01*
X100380952Y-118833333D01*
X100428571Y-118880952D01*
X100476190Y-118976190D01*
X100476190Y-119357142D01*
X99952380Y-118452380D02*
X99952380Y-117833333D01*
X100333333Y-118166666D01*
X100333333Y-118023809D01*
X100380952Y-117928571D01*
X100428571Y-117880952D01*
X100523809Y-117833333D01*
X100761904Y-117833333D01*
X100857142Y-117880952D01*
X100904761Y-117928571D01*
X100952380Y-118023809D01*
X100952380Y-118309523D01*
X100904761Y-118404761D01*
X100857142Y-118452380D01*
X100666666Y-127952380D02*
X100666666Y-128666666D01*
X100619047Y-128809523D01*
X100523809Y-128904761D01*
X100380952Y-128952380D01*
X100285714Y-128952380D01*
X101142857Y-128952380D02*
X101142857Y-127952380D01*
X101523809Y-127952380D01*
X101619047Y-128000000D01*
X101666666Y-128047619D01*
X101714285Y-128142857D01*
X101714285Y-128285714D01*
X101666666Y-128380952D01*
X101619047Y-128428571D01*
X101523809Y-128476190D01*
X101142857Y-128476190D01*
X102571428Y-128285714D02*
X102571428Y-128952380D01*
X102333333Y-127904761D02*
X102095238Y-128619047D01*
X102714285Y-128619047D01*
X98166666Y-96152380D02*
X98166666Y-96866666D01*
X98119047Y-97009523D01*
X98023809Y-97104761D01*
X97880952Y-97152380D01*
X97785714Y-97152380D01*
X98642857Y-97152380D02*
X98642857Y-96152380D01*
X99023809Y-96152380D01*
X99119047Y-96200000D01*
X99166666Y-96247619D01*
X99214285Y-96342857D01*
X99214285Y-96485714D01*
X99166666Y-96580952D01*
X99119047Y-96628571D01*
X99023809Y-96676190D01*
X98642857Y-96676190D01*
X100119047Y-96152380D02*
X99642857Y-96152380D01*
X99595238Y-96628571D01*
X99642857Y-96580952D01*
X99738095Y-96533333D01*
X99976190Y-96533333D01*
X100071428Y-96580952D01*
X100119047Y-96628571D01*
X100166666Y-96723809D01*
X100166666Y-96961904D01*
X100119047Y-97057142D01*
X100071428Y-97104761D01*
X99976190Y-97152380D01*
X99738095Y-97152380D01*
X99642857Y-97104761D01*
X99595238Y-97057142D01*
X93166666Y-89752380D02*
X93166666Y-90466666D01*
X93119047Y-90609523D01*
X93023809Y-90704761D01*
X92880952Y-90752380D01*
X92785714Y-90752380D01*
X93642857Y-90752380D02*
X93642857Y-89752380D01*
X94023809Y-89752380D01*
X94119047Y-89800000D01*
X94166666Y-89847619D01*
X94214285Y-89942857D01*
X94214285Y-90085714D01*
X94166666Y-90180952D01*
X94119047Y-90228571D01*
X94023809Y-90276190D01*
X93642857Y-90276190D01*
X95071428Y-89752380D02*
X94880952Y-89752380D01*
X94785714Y-89800000D01*
X94738095Y-89847619D01*
X94642857Y-89990476D01*
X94595238Y-90180952D01*
X94595238Y-90561904D01*
X94642857Y-90657142D01*
X94690476Y-90704761D01*
X94785714Y-90752380D01*
X94976190Y-90752380D01*
X95071428Y-90704761D01*
X95119047Y-90657142D01*
X95166666Y-90561904D01*
X95166666Y-90323809D01*
X95119047Y-90228571D01*
X95071428Y-90180952D01*
X94976190Y-90133333D01*
X94785714Y-90133333D01*
X94690476Y-90180952D01*
X94642857Y-90228571D01*
X94595238Y-90323809D01*
X91452380Y-83333333D02*
X92166666Y-83333333D01*
X92309523Y-83380952D01*
X92404761Y-83476190D01*
X92452380Y-83619047D01*
X92452380Y-83714285D01*
X92452380Y-82857142D02*
X91452380Y-82857142D01*
X91452380Y-82476190D01*
X91500000Y-82380952D01*
X91547619Y-82333333D01*
X91642857Y-82285714D01*
X91785714Y-82285714D01*
X91880952Y-82333333D01*
X91928571Y-82380952D01*
X91976190Y-82476190D01*
X91976190Y-82857142D01*
X91452380Y-81952380D02*
X91452380Y-81285714D01*
X92452380Y-81714285D01*
X99952380Y-83333333D02*
X100666666Y-83333333D01*
X100809523Y-83380952D01*
X100904761Y-83476190D01*
X100952380Y-83619047D01*
X100952380Y-83714285D01*
X100952380Y-82857142D02*
X99952380Y-82857142D01*
X99952380Y-82476190D01*
X100000000Y-82380952D01*
X100047619Y-82333333D01*
X100142857Y-82285714D01*
X100285714Y-82285714D01*
X100380952Y-82333333D01*
X100428571Y-82380952D01*
X100476190Y-82476190D01*
X100476190Y-82857142D01*
X100380952Y-81714285D02*
X100333333Y-81809523D01*
X100285714Y-81857142D01*
X100190476Y-81904761D01*
X100142857Y-81904761D01*
X100047619Y-81857142D01*
X100000000Y-81809523D01*
X99952380Y-81714285D01*
X99952380Y-81523809D01*
X100000000Y-81428571D01*
X100047619Y-81380952D01*
X100142857Y-81333333D01*
X100190476Y-81333333D01*
X100285714Y-81380952D01*
X100333333Y-81428571D01*
X100380952Y-81523809D01*
X100380952Y-81714285D01*
X100428571Y-81809523D01*
X100476190Y-81857142D01*
X100571428Y-81904761D01*
X100761904Y-81904761D01*
X100857142Y-81857142D01*
X100904761Y-81809523D01*
X100952380Y-81714285D01*
X100952380Y-81523809D01*
X100904761Y-81428571D01*
X100857142Y-81380952D01*
X100761904Y-81333333D01*
X100571428Y-81333333D01*
X100476190Y-81380952D01*
X100428571Y-81428571D01*
X100380952Y-81523809D01*
M02*
