G04 #@! TF.GenerationSoftware,KiCad,Pcbnew,(5.1.2)-1*
G04 #@! TF.CreationDate,2019-07-19T10:40:57+09:00*
G04 #@! TF.ProjectId,Chip_da_Tunetaro,43686970-5f64-4615-9f54-756e65746172,rev?*
G04 #@! TF.SameCoordinates,Original*
G04 #@! TF.FileFunction,Legend,Bot*
G04 #@! TF.FilePolarity,Positive*
%FSLAX46Y46*%
G04 Gerber Fmt 4.6, Leading zero omitted, Abs format (unit mm)*
G04 Created by KiCad (PCBNEW (5.1.2)-1) date 2019-07-19 10:40:57*
%MOMM*%
%LPD*%
G04 APERTURE LIST*
%ADD10C,0.010000*%
%ADD11C,0.127000*%
%ADD12C,0.280000*%
%ADD13C,0.120000*%
%ADD14C,0.250000*%
%ADD15C,0.150000*%
%ADD16C,0.100000*%
%ADD17C,0.400000*%
%ADD18C,0.050000*%
%ADD19C,0.254000*%
G04 APERTURE END LIST*
D10*
G36*
X129260555Y-117862495D02*
G01*
X129265032Y-117921145D01*
X129298437Y-118154673D01*
X129354494Y-118378263D01*
X129432082Y-118590776D01*
X129530079Y-118791076D01*
X129647364Y-118978028D01*
X129782814Y-119150493D01*
X129935308Y-119307336D01*
X130103724Y-119447419D01*
X130286941Y-119569607D01*
X130483836Y-119672763D01*
X130693289Y-119755749D01*
X130914177Y-119817430D01*
X131145379Y-119856669D01*
X131178750Y-119860332D01*
X131216722Y-119863064D01*
X131273659Y-119865379D01*
X131350263Y-119867282D01*
X131447236Y-119868778D01*
X131565279Y-119869871D01*
X131705093Y-119870566D01*
X131867381Y-119870867D01*
X132052844Y-119870779D01*
X132262184Y-119870307D01*
X132496102Y-119869455D01*
X132537650Y-119869276D01*
X132743281Y-119868383D01*
X132925267Y-119867568D01*
X133085361Y-119866747D01*
X133225315Y-119865839D01*
X133346886Y-119864759D01*
X133451824Y-119863426D01*
X133541885Y-119861756D01*
X133618822Y-119859666D01*
X133684389Y-119857074D01*
X133740338Y-119853897D01*
X133788425Y-119850051D01*
X133830402Y-119845454D01*
X133868023Y-119840024D01*
X133903042Y-119833677D01*
X133937212Y-119826330D01*
X133972287Y-119817900D01*
X134010021Y-119808306D01*
X134050987Y-119797765D01*
X134250202Y-119734311D01*
X134445859Y-119647749D01*
X134634365Y-119540374D01*
X134812129Y-119414477D01*
X134975561Y-119272351D01*
X135121068Y-119116290D01*
X135124058Y-119112695D01*
X135252897Y-118942225D01*
X135361482Y-118764692D01*
X135451596Y-118576396D01*
X135525021Y-118373635D01*
X135581152Y-118163303D01*
X135585936Y-118141879D01*
X135590158Y-118121232D01*
X135593862Y-118099698D01*
X135597088Y-118075611D01*
X135599877Y-118047304D01*
X135602270Y-118013112D01*
X135604310Y-117971369D01*
X135606036Y-117920409D01*
X135607491Y-117858566D01*
X135608716Y-117784176D01*
X135609752Y-117695570D01*
X135610639Y-117591085D01*
X135611421Y-117469053D01*
X135612137Y-117327810D01*
X135612829Y-117165688D01*
X135613538Y-116981024D01*
X135614079Y-116834325D01*
X135614606Y-116661885D01*
X135614906Y-116496837D01*
X135614989Y-116340927D01*
X135614863Y-116195901D01*
X135614535Y-116063506D01*
X135614015Y-115945490D01*
X135613310Y-115843598D01*
X135612429Y-115759577D01*
X135611379Y-115695175D01*
X135610170Y-115652137D01*
X135608810Y-115632211D01*
X135608359Y-115631000D01*
X135597783Y-115639737D01*
X135570897Y-115664896D01*
X135529309Y-115704897D01*
X135474631Y-115758161D01*
X135408471Y-115823109D01*
X135332439Y-115898162D01*
X135248144Y-115981739D01*
X135157196Y-116072261D01*
X135074417Y-116154931D01*
X134550600Y-116678863D01*
X134550600Y-117245468D01*
X134550429Y-117390360D01*
X134549871Y-117512353D01*
X134548853Y-117613945D01*
X134547303Y-117697633D01*
X134545149Y-117765916D01*
X134542320Y-117821293D01*
X134538744Y-117866261D01*
X134534350Y-117903319D01*
X134531107Y-117923850D01*
X134491398Y-118079728D01*
X134429322Y-118225785D01*
X134346692Y-118359968D01*
X134245324Y-118480225D01*
X134127033Y-118584504D01*
X133993634Y-118670753D01*
X133846941Y-118736920D01*
X133797396Y-118753545D01*
X133752832Y-118764615D01*
X133694845Y-118775091D01*
X133627481Y-118784667D01*
X133554788Y-118793035D01*
X133480812Y-118799888D01*
X133409600Y-118804918D01*
X133345199Y-118807818D01*
X133291657Y-118808281D01*
X133253019Y-118806000D01*
X133233333Y-118800667D01*
X133231977Y-118796475D01*
X133239084Y-118781609D01*
X133254704Y-118749380D01*
X133276188Y-118705241D01*
X133290798Y-118675299D01*
X133348114Y-118543643D01*
X133399833Y-118397323D01*
X133442560Y-118246981D01*
X133472387Y-118106272D01*
X133482054Y-118045609D01*
X133488860Y-117991185D01*
X133493113Y-117936903D01*
X133495120Y-117876668D01*
X133495190Y-117804384D01*
X133493631Y-117713955D01*
X133493188Y-117694750D01*
X133485840Y-117531528D01*
X133471014Y-117386534D01*
X133447158Y-117253296D01*
X133412719Y-117125341D01*
X133366145Y-116996197D01*
X133305882Y-116859392D01*
X133279909Y-116805750D01*
X133196620Y-116650413D01*
X133107682Y-116512485D01*
X133007378Y-116383970D01*
X132889991Y-116256877D01*
X132880329Y-116247170D01*
X132753020Y-116128269D01*
X132624890Y-116026882D01*
X132487945Y-115937289D01*
X132334194Y-115853774D01*
X132321750Y-115847590D01*
X132178275Y-115780983D01*
X132044802Y-115729005D01*
X131914717Y-115690059D01*
X131781407Y-115662548D01*
X131638257Y-115644875D01*
X131478654Y-115635444D01*
X131441312Y-115634346D01*
X131441312Y-116699997D01*
X131586713Y-116718651D01*
X131728429Y-116757714D01*
X131864221Y-116816904D01*
X131991847Y-116895937D01*
X132109068Y-116994533D01*
X132213641Y-117112407D01*
X132300749Y-117244677D01*
X132361411Y-117376609D01*
X132403240Y-117520630D01*
X132425327Y-117670837D01*
X132426764Y-117821323D01*
X132409581Y-117952460D01*
X132365171Y-118106155D01*
X132297338Y-118251662D01*
X132207363Y-118386714D01*
X132096525Y-118509040D01*
X132095023Y-118510469D01*
X131982909Y-118603859D01*
X131861721Y-118678132D01*
X131724957Y-118737179D01*
X131703902Y-118744552D01*
X131648832Y-118762328D01*
X131601424Y-118774474D01*
X131553492Y-118782316D01*
X131496849Y-118787178D01*
X131423308Y-118790387D01*
X131420050Y-118790495D01*
X131341964Y-118792160D01*
X131280935Y-118790876D01*
X131228727Y-118786016D01*
X131177105Y-118776956D01*
X131144342Y-118769567D01*
X130987969Y-118719757D01*
X130844113Y-118648644D01*
X130714433Y-118557884D01*
X130600585Y-118449135D01*
X130504227Y-118324054D01*
X130427016Y-118184299D01*
X130370608Y-118031525D01*
X130357932Y-117983157D01*
X130346162Y-117928122D01*
X130338953Y-117877257D01*
X130335681Y-117822326D01*
X130335719Y-117755094D01*
X130337004Y-117707450D01*
X130340176Y-117633099D01*
X130344951Y-117575961D01*
X130352655Y-117527847D01*
X130364612Y-117480570D01*
X130382147Y-117425943D01*
X130382947Y-117423597D01*
X130440147Y-117284096D01*
X130512021Y-117161092D01*
X130602460Y-117048085D01*
X130617030Y-117032476D01*
X130737478Y-116922746D01*
X130867686Y-116835119D01*
X131005415Y-116769313D01*
X131148422Y-116725046D01*
X131294468Y-116702034D01*
X131441312Y-116699997D01*
X131441312Y-115634346D01*
X131438223Y-115634255D01*
X131273374Y-115633774D01*
X131126019Y-115641779D01*
X130989331Y-115659422D01*
X130856485Y-115687859D01*
X130720656Y-115728242D01*
X130581850Y-115779032D01*
X130380279Y-115871602D01*
X130191694Y-115984837D01*
X130017187Y-116116959D01*
X129857851Y-116266190D01*
X129714780Y-116430751D01*
X129589068Y-116608862D01*
X129481808Y-116798746D01*
X129394093Y-116998624D01*
X129327017Y-117206716D01*
X129281673Y-117421245D01*
X129259154Y-117640431D01*
X129260555Y-117862495D01*
X129260555Y-117862495D01*
G37*
X129260555Y-117862495D02*
X129265032Y-117921145D01*
X129298437Y-118154673D01*
X129354494Y-118378263D01*
X129432082Y-118590776D01*
X129530079Y-118791076D01*
X129647364Y-118978028D01*
X129782814Y-119150493D01*
X129935308Y-119307336D01*
X130103724Y-119447419D01*
X130286941Y-119569607D01*
X130483836Y-119672763D01*
X130693289Y-119755749D01*
X130914177Y-119817430D01*
X131145379Y-119856669D01*
X131178750Y-119860332D01*
X131216722Y-119863064D01*
X131273659Y-119865379D01*
X131350263Y-119867282D01*
X131447236Y-119868778D01*
X131565279Y-119869871D01*
X131705093Y-119870566D01*
X131867381Y-119870867D01*
X132052844Y-119870779D01*
X132262184Y-119870307D01*
X132496102Y-119869455D01*
X132537650Y-119869276D01*
X132743281Y-119868383D01*
X132925267Y-119867568D01*
X133085361Y-119866747D01*
X133225315Y-119865839D01*
X133346886Y-119864759D01*
X133451824Y-119863426D01*
X133541885Y-119861756D01*
X133618822Y-119859666D01*
X133684389Y-119857074D01*
X133740338Y-119853897D01*
X133788425Y-119850051D01*
X133830402Y-119845454D01*
X133868023Y-119840024D01*
X133903042Y-119833677D01*
X133937212Y-119826330D01*
X133972287Y-119817900D01*
X134010021Y-119808306D01*
X134050987Y-119797765D01*
X134250202Y-119734311D01*
X134445859Y-119647749D01*
X134634365Y-119540374D01*
X134812129Y-119414477D01*
X134975561Y-119272351D01*
X135121068Y-119116290D01*
X135124058Y-119112695D01*
X135252897Y-118942225D01*
X135361482Y-118764692D01*
X135451596Y-118576396D01*
X135525021Y-118373635D01*
X135581152Y-118163303D01*
X135585936Y-118141879D01*
X135590158Y-118121232D01*
X135593862Y-118099698D01*
X135597088Y-118075611D01*
X135599877Y-118047304D01*
X135602270Y-118013112D01*
X135604310Y-117971369D01*
X135606036Y-117920409D01*
X135607491Y-117858566D01*
X135608716Y-117784176D01*
X135609752Y-117695570D01*
X135610639Y-117591085D01*
X135611421Y-117469053D01*
X135612137Y-117327810D01*
X135612829Y-117165688D01*
X135613538Y-116981024D01*
X135614079Y-116834325D01*
X135614606Y-116661885D01*
X135614906Y-116496837D01*
X135614989Y-116340927D01*
X135614863Y-116195901D01*
X135614535Y-116063506D01*
X135614015Y-115945490D01*
X135613310Y-115843598D01*
X135612429Y-115759577D01*
X135611379Y-115695175D01*
X135610170Y-115652137D01*
X135608810Y-115632211D01*
X135608359Y-115631000D01*
X135597783Y-115639737D01*
X135570897Y-115664896D01*
X135529309Y-115704897D01*
X135474631Y-115758161D01*
X135408471Y-115823109D01*
X135332439Y-115898162D01*
X135248144Y-115981739D01*
X135157196Y-116072261D01*
X135074417Y-116154931D01*
X134550600Y-116678863D01*
X134550600Y-117245468D01*
X134550429Y-117390360D01*
X134549871Y-117512353D01*
X134548853Y-117613945D01*
X134547303Y-117697633D01*
X134545149Y-117765916D01*
X134542320Y-117821293D01*
X134538744Y-117866261D01*
X134534350Y-117903319D01*
X134531107Y-117923850D01*
X134491398Y-118079728D01*
X134429322Y-118225785D01*
X134346692Y-118359968D01*
X134245324Y-118480225D01*
X134127033Y-118584504D01*
X133993634Y-118670753D01*
X133846941Y-118736920D01*
X133797396Y-118753545D01*
X133752832Y-118764615D01*
X133694845Y-118775091D01*
X133627481Y-118784667D01*
X133554788Y-118793035D01*
X133480812Y-118799888D01*
X133409600Y-118804918D01*
X133345199Y-118807818D01*
X133291657Y-118808281D01*
X133253019Y-118806000D01*
X133233333Y-118800667D01*
X133231977Y-118796475D01*
X133239084Y-118781609D01*
X133254704Y-118749380D01*
X133276188Y-118705241D01*
X133290798Y-118675299D01*
X133348114Y-118543643D01*
X133399833Y-118397323D01*
X133442560Y-118246981D01*
X133472387Y-118106272D01*
X133482054Y-118045609D01*
X133488860Y-117991185D01*
X133493113Y-117936903D01*
X133495120Y-117876668D01*
X133495190Y-117804384D01*
X133493631Y-117713955D01*
X133493188Y-117694750D01*
X133485840Y-117531528D01*
X133471014Y-117386534D01*
X133447158Y-117253296D01*
X133412719Y-117125341D01*
X133366145Y-116996197D01*
X133305882Y-116859392D01*
X133279909Y-116805750D01*
X133196620Y-116650413D01*
X133107682Y-116512485D01*
X133007378Y-116383970D01*
X132889991Y-116256877D01*
X132880329Y-116247170D01*
X132753020Y-116128269D01*
X132624890Y-116026882D01*
X132487945Y-115937289D01*
X132334194Y-115853774D01*
X132321750Y-115847590D01*
X132178275Y-115780983D01*
X132044802Y-115729005D01*
X131914717Y-115690059D01*
X131781407Y-115662548D01*
X131638257Y-115644875D01*
X131478654Y-115635444D01*
X131441312Y-115634346D01*
X131441312Y-116699997D01*
X131586713Y-116718651D01*
X131728429Y-116757714D01*
X131864221Y-116816904D01*
X131991847Y-116895937D01*
X132109068Y-116994533D01*
X132213641Y-117112407D01*
X132300749Y-117244677D01*
X132361411Y-117376609D01*
X132403240Y-117520630D01*
X132425327Y-117670837D01*
X132426764Y-117821323D01*
X132409581Y-117952460D01*
X132365171Y-118106155D01*
X132297338Y-118251662D01*
X132207363Y-118386714D01*
X132096525Y-118509040D01*
X132095023Y-118510469D01*
X131982909Y-118603859D01*
X131861721Y-118678132D01*
X131724957Y-118737179D01*
X131703902Y-118744552D01*
X131648832Y-118762328D01*
X131601424Y-118774474D01*
X131553492Y-118782316D01*
X131496849Y-118787178D01*
X131423308Y-118790387D01*
X131420050Y-118790495D01*
X131341964Y-118792160D01*
X131280935Y-118790876D01*
X131228727Y-118786016D01*
X131177105Y-118776956D01*
X131144342Y-118769567D01*
X130987969Y-118719757D01*
X130844113Y-118648644D01*
X130714433Y-118557884D01*
X130600585Y-118449135D01*
X130504227Y-118324054D01*
X130427016Y-118184299D01*
X130370608Y-118031525D01*
X130357932Y-117983157D01*
X130346162Y-117928122D01*
X130338953Y-117877257D01*
X130335681Y-117822326D01*
X130335719Y-117755094D01*
X130337004Y-117707450D01*
X130340176Y-117633099D01*
X130344951Y-117575961D01*
X130352655Y-117527847D01*
X130364612Y-117480570D01*
X130382147Y-117425943D01*
X130382947Y-117423597D01*
X130440147Y-117284096D01*
X130512021Y-117161092D01*
X130602460Y-117048085D01*
X130617030Y-117032476D01*
X130737478Y-116922746D01*
X130867686Y-116835119D01*
X131005415Y-116769313D01*
X131148422Y-116725046D01*
X131294468Y-116702034D01*
X131441312Y-116699997D01*
X131441312Y-115634346D01*
X131438223Y-115634255D01*
X131273374Y-115633774D01*
X131126019Y-115641779D01*
X130989331Y-115659422D01*
X130856485Y-115687859D01*
X130720656Y-115728242D01*
X130581850Y-115779032D01*
X130380279Y-115871602D01*
X130191694Y-115984837D01*
X130017187Y-116116959D01*
X129857851Y-116266190D01*
X129714780Y-116430751D01*
X129589068Y-116608862D01*
X129481808Y-116798746D01*
X129394093Y-116998624D01*
X129327017Y-117206716D01*
X129281673Y-117421245D01*
X129259154Y-117640431D01*
X129260555Y-117862495D01*
G36*
X133496500Y-103997800D02*
G01*
X133496500Y-99756000D01*
X132429700Y-99756000D01*
X132429700Y-103997800D01*
X133496500Y-103997800D01*
X133496500Y-103997800D01*
G37*
X133496500Y-103997800D02*
X133496500Y-99756000D01*
X132429700Y-99756000D01*
X132429700Y-103997800D01*
X133496500Y-103997800D01*
G36*
X127146601Y-108283638D02*
G01*
X127146897Y-108445996D01*
X127147372Y-108599162D01*
X127148012Y-108741363D01*
X127148803Y-108870825D01*
X127149729Y-108985775D01*
X127150776Y-109084438D01*
X127151930Y-109165041D01*
X127153176Y-109225811D01*
X127154499Y-109264974D01*
X127155886Y-109280757D01*
X127156082Y-109281000D01*
X127166558Y-109272263D01*
X127193349Y-109247107D01*
X127234847Y-109207110D01*
X127289443Y-109153851D01*
X127355531Y-109088910D01*
X127431503Y-109013865D01*
X127515750Y-108930296D01*
X127606667Y-108839781D01*
X127689482Y-108757068D01*
X128213300Y-108233136D01*
X128213300Y-107645282D01*
X128213431Y-107501130D01*
X128213872Y-107379927D01*
X128214695Y-107279226D01*
X128215972Y-107196576D01*
X128217775Y-107129530D01*
X128220175Y-107075637D01*
X128223245Y-107032450D01*
X128227056Y-106997520D01*
X128231680Y-106968396D01*
X128233418Y-106959539D01*
X128277828Y-106805844D01*
X128345661Y-106660337D01*
X128435636Y-106525285D01*
X128546474Y-106402959D01*
X128547976Y-106401530D01*
X128652606Y-106313280D01*
X128763989Y-106242067D01*
X128885004Y-106186919D01*
X129018527Y-106146868D01*
X129167436Y-106120943D01*
X129334610Y-106108173D01*
X129423102Y-106106427D01*
X129534354Y-106106000D01*
X129478551Y-106217125D01*
X129390212Y-106420908D01*
X129324309Y-106634109D01*
X129280989Y-106853961D01*
X129260402Y-107077698D01*
X129262696Y-107302550D01*
X129288021Y-107525751D01*
X129336525Y-107744534D01*
X129387866Y-107903146D01*
X129478938Y-108113350D01*
X129590903Y-108310345D01*
X129722256Y-108492903D01*
X129871491Y-108659793D01*
X130037103Y-108809785D01*
X130217586Y-108941649D01*
X130411435Y-109054156D01*
X130617144Y-109146075D01*
X130833209Y-109216177D01*
X131051253Y-109262165D01*
X131141422Y-109272432D01*
X131248182Y-109278359D01*
X131364770Y-109280099D01*
X131484425Y-109277799D01*
X131600384Y-109271610D01*
X131705885Y-109261681D01*
X131794168Y-109248163D01*
X131807400Y-109245427D01*
X131937881Y-109213964D01*
X132055331Y-109178131D01*
X132169915Y-109134351D01*
X132291799Y-109079045D01*
X132321750Y-109064409D01*
X132477086Y-108981120D01*
X132615014Y-108892182D01*
X132743529Y-108791878D01*
X132870622Y-108674491D01*
X132880329Y-108664829D01*
X132999230Y-108537520D01*
X133100617Y-108409390D01*
X133190210Y-108272445D01*
X133273725Y-108118694D01*
X133279909Y-108106250D01*
X133338271Y-107981458D01*
X133384336Y-107866235D01*
X133421710Y-107750340D01*
X133454000Y-107623537D01*
X133461054Y-107591900D01*
X133474360Y-107511784D01*
X133484309Y-107412812D01*
X133490818Y-107301313D01*
X133493805Y-107183618D01*
X133493188Y-107066059D01*
X133488882Y-106954966D01*
X133480807Y-106856669D01*
X133471509Y-106791130D01*
X133418231Y-106566038D01*
X133342685Y-106351627D01*
X133246167Y-106149097D01*
X133129972Y-105959645D01*
X132995397Y-105784470D01*
X132843736Y-105624771D01*
X132676286Y-105481745D01*
X132494342Y-105356592D01*
X132299200Y-105250510D01*
X132092155Y-105164697D01*
X131874503Y-105100351D01*
X131647540Y-105058672D01*
X131591500Y-105052141D01*
X131556550Y-105049904D01*
X131498512Y-105047884D01*
X131419697Y-105046080D01*
X131322417Y-105044493D01*
X131305173Y-105044285D01*
X131305173Y-106120181D01*
X131372405Y-106120219D01*
X131420050Y-106121504D01*
X131494400Y-106124676D01*
X131551538Y-106129451D01*
X131599652Y-106137155D01*
X131646929Y-106149112D01*
X131701556Y-106166647D01*
X131703902Y-106167447D01*
X131843403Y-106224647D01*
X131966407Y-106296521D01*
X132079414Y-106386960D01*
X132095023Y-106401530D01*
X132204737Y-106522105D01*
X132293687Y-106654556D01*
X132361062Y-106796448D01*
X132406050Y-106945341D01*
X132427840Y-107098798D01*
X132425621Y-107254380D01*
X132411479Y-107352657D01*
X132367815Y-107514727D01*
X132302989Y-107662849D01*
X132217137Y-107796798D01*
X132110396Y-107916349D01*
X132023300Y-107991364D01*
X131887660Y-108081255D01*
X131744476Y-108147923D01*
X131596065Y-108191555D01*
X131444749Y-108212334D01*
X131292845Y-108210446D01*
X131142675Y-108186073D01*
X130996557Y-108139401D01*
X130856811Y-108070615D01*
X130725757Y-107979899D01*
X130617030Y-107879523D01*
X130523640Y-107767409D01*
X130449367Y-107646221D01*
X130390320Y-107509457D01*
X130382947Y-107488402D01*
X130365171Y-107433332D01*
X130353025Y-107385924D01*
X130345183Y-107337992D01*
X130340321Y-107281349D01*
X130337112Y-107207808D01*
X130337004Y-107204550D01*
X130335339Y-107126464D01*
X130336623Y-107065435D01*
X130341483Y-107013227D01*
X130350543Y-106961605D01*
X130357932Y-106928842D01*
X130407742Y-106772469D01*
X130478855Y-106628613D01*
X130569615Y-106498933D01*
X130678364Y-106385085D01*
X130803445Y-106288727D01*
X130943200Y-106211516D01*
X131095974Y-106155108D01*
X131144342Y-106142432D01*
X131199377Y-106130662D01*
X131250242Y-106123453D01*
X131305173Y-106120181D01*
X131305173Y-105044285D01*
X131208983Y-105043121D01*
X131081706Y-105041965D01*
X130942897Y-105041025D01*
X130794868Y-105040299D01*
X130639929Y-105039789D01*
X130480392Y-105039492D01*
X130318567Y-105039410D01*
X130156768Y-105039542D01*
X129997303Y-105039888D01*
X129842486Y-105040447D01*
X129694626Y-105041219D01*
X129556035Y-105042204D01*
X129429025Y-105043402D01*
X129315906Y-105044811D01*
X129218990Y-105046433D01*
X129140588Y-105048266D01*
X129083011Y-105050311D01*
X129049670Y-105052452D01*
X128822886Y-105087626D01*
X128604622Y-105145839D01*
X128396226Y-105225836D01*
X128199046Y-105326362D01*
X128014429Y-105446163D01*
X127843723Y-105583984D01*
X127688275Y-105738571D01*
X127549434Y-105908668D01*
X127428546Y-106093022D01*
X127326959Y-106290377D01*
X127246021Y-106499479D01*
X127187080Y-106719073D01*
X127171381Y-106801182D01*
X127167127Y-106827140D01*
X127163386Y-106853272D01*
X127160125Y-106881309D01*
X127157311Y-106912981D01*
X127154912Y-106950019D01*
X127152895Y-106994155D01*
X127151227Y-107047119D01*
X127149875Y-107110643D01*
X127148806Y-107186457D01*
X127147988Y-107276293D01*
X127147387Y-107381881D01*
X127146972Y-107504953D01*
X127146708Y-107647239D01*
X127146564Y-107810471D01*
X127146506Y-107996379D01*
X127146500Y-108113862D01*
X127146601Y-108283638D01*
X127146601Y-108283638D01*
G37*
X127146601Y-108283638D02*
X127146897Y-108445996D01*
X127147372Y-108599162D01*
X127148012Y-108741363D01*
X127148803Y-108870825D01*
X127149729Y-108985775D01*
X127150776Y-109084438D01*
X127151930Y-109165041D01*
X127153176Y-109225811D01*
X127154499Y-109264974D01*
X127155886Y-109280757D01*
X127156082Y-109281000D01*
X127166558Y-109272263D01*
X127193349Y-109247107D01*
X127234847Y-109207110D01*
X127289443Y-109153851D01*
X127355531Y-109088910D01*
X127431503Y-109013865D01*
X127515750Y-108930296D01*
X127606667Y-108839781D01*
X127689482Y-108757068D01*
X128213300Y-108233136D01*
X128213300Y-107645282D01*
X128213431Y-107501130D01*
X128213872Y-107379927D01*
X128214695Y-107279226D01*
X128215972Y-107196576D01*
X128217775Y-107129530D01*
X128220175Y-107075637D01*
X128223245Y-107032450D01*
X128227056Y-106997520D01*
X128231680Y-106968396D01*
X128233418Y-106959539D01*
X128277828Y-106805844D01*
X128345661Y-106660337D01*
X128435636Y-106525285D01*
X128546474Y-106402959D01*
X128547976Y-106401530D01*
X128652606Y-106313280D01*
X128763989Y-106242067D01*
X128885004Y-106186919D01*
X129018527Y-106146868D01*
X129167436Y-106120943D01*
X129334610Y-106108173D01*
X129423102Y-106106427D01*
X129534354Y-106106000D01*
X129478551Y-106217125D01*
X129390212Y-106420908D01*
X129324309Y-106634109D01*
X129280989Y-106853961D01*
X129260402Y-107077698D01*
X129262696Y-107302550D01*
X129288021Y-107525751D01*
X129336525Y-107744534D01*
X129387866Y-107903146D01*
X129478938Y-108113350D01*
X129590903Y-108310345D01*
X129722256Y-108492903D01*
X129871491Y-108659793D01*
X130037103Y-108809785D01*
X130217586Y-108941649D01*
X130411435Y-109054156D01*
X130617144Y-109146075D01*
X130833209Y-109216177D01*
X131051253Y-109262165D01*
X131141422Y-109272432D01*
X131248182Y-109278359D01*
X131364770Y-109280099D01*
X131484425Y-109277799D01*
X131600384Y-109271610D01*
X131705885Y-109261681D01*
X131794168Y-109248163D01*
X131807400Y-109245427D01*
X131937881Y-109213964D01*
X132055331Y-109178131D01*
X132169915Y-109134351D01*
X132291799Y-109079045D01*
X132321750Y-109064409D01*
X132477086Y-108981120D01*
X132615014Y-108892182D01*
X132743529Y-108791878D01*
X132870622Y-108674491D01*
X132880329Y-108664829D01*
X132999230Y-108537520D01*
X133100617Y-108409390D01*
X133190210Y-108272445D01*
X133273725Y-108118694D01*
X133279909Y-108106250D01*
X133338271Y-107981458D01*
X133384336Y-107866235D01*
X133421710Y-107750340D01*
X133454000Y-107623537D01*
X133461054Y-107591900D01*
X133474360Y-107511784D01*
X133484309Y-107412812D01*
X133490818Y-107301313D01*
X133493805Y-107183618D01*
X133493188Y-107066059D01*
X133488882Y-106954966D01*
X133480807Y-106856669D01*
X133471509Y-106791130D01*
X133418231Y-106566038D01*
X133342685Y-106351627D01*
X133246167Y-106149097D01*
X133129972Y-105959645D01*
X132995397Y-105784470D01*
X132843736Y-105624771D01*
X132676286Y-105481745D01*
X132494342Y-105356592D01*
X132299200Y-105250510D01*
X132092155Y-105164697D01*
X131874503Y-105100351D01*
X131647540Y-105058672D01*
X131591500Y-105052141D01*
X131556550Y-105049904D01*
X131498512Y-105047884D01*
X131419697Y-105046080D01*
X131322417Y-105044493D01*
X131305173Y-105044285D01*
X131305173Y-106120181D01*
X131372405Y-106120219D01*
X131420050Y-106121504D01*
X131494400Y-106124676D01*
X131551538Y-106129451D01*
X131599652Y-106137155D01*
X131646929Y-106149112D01*
X131701556Y-106166647D01*
X131703902Y-106167447D01*
X131843403Y-106224647D01*
X131966407Y-106296521D01*
X132079414Y-106386960D01*
X132095023Y-106401530D01*
X132204737Y-106522105D01*
X132293687Y-106654556D01*
X132361062Y-106796448D01*
X132406050Y-106945341D01*
X132427840Y-107098798D01*
X132425621Y-107254380D01*
X132411479Y-107352657D01*
X132367815Y-107514727D01*
X132302989Y-107662849D01*
X132217137Y-107796798D01*
X132110396Y-107916349D01*
X132023300Y-107991364D01*
X131887660Y-108081255D01*
X131744476Y-108147923D01*
X131596065Y-108191555D01*
X131444749Y-108212334D01*
X131292845Y-108210446D01*
X131142675Y-108186073D01*
X130996557Y-108139401D01*
X130856811Y-108070615D01*
X130725757Y-107979899D01*
X130617030Y-107879523D01*
X130523640Y-107767409D01*
X130449367Y-107646221D01*
X130390320Y-107509457D01*
X130382947Y-107488402D01*
X130365171Y-107433332D01*
X130353025Y-107385924D01*
X130345183Y-107337992D01*
X130340321Y-107281349D01*
X130337112Y-107207808D01*
X130337004Y-107204550D01*
X130335339Y-107126464D01*
X130336623Y-107065435D01*
X130341483Y-107013227D01*
X130350543Y-106961605D01*
X130357932Y-106928842D01*
X130407742Y-106772469D01*
X130478855Y-106628613D01*
X130569615Y-106498933D01*
X130678364Y-106385085D01*
X130803445Y-106288727D01*
X130943200Y-106211516D01*
X131095974Y-106155108D01*
X131144342Y-106142432D01*
X131199377Y-106130662D01*
X131250242Y-106123453D01*
X131305173Y-106120181D01*
X131305173Y-105044285D01*
X131208983Y-105043121D01*
X131081706Y-105041965D01*
X130942897Y-105041025D01*
X130794868Y-105040299D01*
X130639929Y-105039789D01*
X130480392Y-105039492D01*
X130318567Y-105039410D01*
X130156768Y-105039542D01*
X129997303Y-105039888D01*
X129842486Y-105040447D01*
X129694626Y-105041219D01*
X129556035Y-105042204D01*
X129429025Y-105043402D01*
X129315906Y-105044811D01*
X129218990Y-105046433D01*
X129140588Y-105048266D01*
X129083011Y-105050311D01*
X129049670Y-105052452D01*
X128822886Y-105087626D01*
X128604622Y-105145839D01*
X128396226Y-105225836D01*
X128199046Y-105326362D01*
X128014429Y-105446163D01*
X127843723Y-105583984D01*
X127688275Y-105738571D01*
X127549434Y-105908668D01*
X127428546Y-106093022D01*
X127326959Y-106290377D01*
X127246021Y-106499479D01*
X127187080Y-106719073D01*
X127171381Y-106801182D01*
X127167127Y-106827140D01*
X127163386Y-106853272D01*
X127160125Y-106881309D01*
X127157311Y-106912981D01*
X127154912Y-106950019D01*
X127152895Y-106994155D01*
X127151227Y-107047119D01*
X127149875Y-107110643D01*
X127148806Y-107186457D01*
X127147988Y-107276293D01*
X127147387Y-107381881D01*
X127146972Y-107504953D01*
X127146708Y-107647239D01*
X127146564Y-107810471D01*
X127146506Y-107996379D01*
X127146500Y-108113862D01*
X127146601Y-108283638D01*
G36*
X129272680Y-112688075D02*
G01*
X129305312Y-112908345D01*
X129360467Y-113118898D01*
X129438776Y-113321820D01*
X129540869Y-113519198D01*
X129621289Y-113647007D01*
X129760771Y-113831975D01*
X129916960Y-113997873D01*
X130089572Y-114144513D01*
X130278321Y-114271705D01*
X130482924Y-114379260D01*
X130703097Y-114466988D01*
X130938555Y-114534701D01*
X130964196Y-114540652D01*
X130985620Y-114545436D01*
X131006267Y-114549658D01*
X131027801Y-114553362D01*
X131051888Y-114556588D01*
X131080195Y-114559377D01*
X131114387Y-114561770D01*
X131156130Y-114563810D01*
X131207090Y-114565536D01*
X131268933Y-114566991D01*
X131343323Y-114568216D01*
X131431929Y-114569252D01*
X131536414Y-114570139D01*
X131658446Y-114570921D01*
X131799689Y-114571637D01*
X131961811Y-114572329D01*
X132146475Y-114573038D01*
X132293175Y-114573579D01*
X133496500Y-114577984D01*
X133496500Y-113510100D01*
X132405963Y-113510100D01*
X132202776Y-113510071D01*
X132023250Y-113509923D01*
X131865644Y-113509561D01*
X131728220Y-113508890D01*
X131609237Y-113507816D01*
X131506955Y-113506243D01*
X131419636Y-113504077D01*
X131345539Y-113501223D01*
X131282926Y-113497587D01*
X131230055Y-113493074D01*
X131185188Y-113487589D01*
X131146585Y-113481038D01*
X131112506Y-113473326D01*
X131081212Y-113464358D01*
X131050963Y-113454040D01*
X131020020Y-113442277D01*
X130997848Y-113433466D01*
X130850929Y-113361312D01*
X130718675Y-113269044D01*
X130602519Y-113158226D01*
X130503894Y-113030424D01*
X130424232Y-112887205D01*
X130370288Y-112747553D01*
X130358444Y-112706683D01*
X130350180Y-112668190D01*
X130344879Y-112626037D01*
X130341926Y-112574189D01*
X130340706Y-112506610D01*
X130340550Y-112456000D01*
X130341026Y-112376084D01*
X130342865Y-112315521D01*
X130346683Y-112268276D01*
X130353095Y-112228311D01*
X130362718Y-112189592D01*
X130370288Y-112164446D01*
X130431806Y-112008781D01*
X130513566Y-111867136D01*
X130614135Y-111741077D01*
X130732082Y-111632169D01*
X130865973Y-111541978D01*
X130997848Y-111478533D01*
X131030245Y-111465740D01*
X131060772Y-111454456D01*
X131091170Y-111444587D01*
X131123177Y-111436037D01*
X131158533Y-111428712D01*
X131198979Y-111422517D01*
X131246253Y-111417358D01*
X131302095Y-111413141D01*
X131368245Y-111409769D01*
X131446442Y-111407149D01*
X131538426Y-111405186D01*
X131645938Y-111403785D01*
X131770715Y-111402851D01*
X131914499Y-111402291D01*
X132079028Y-111402009D01*
X132266043Y-111401910D01*
X132405963Y-111401900D01*
X133496500Y-111401900D01*
X133496500Y-110334015D01*
X132293175Y-110338420D01*
X132091379Y-110339167D01*
X131913318Y-110339868D01*
X131757325Y-110340562D01*
X131621734Y-110341293D01*
X131504879Y-110342100D01*
X131405096Y-110343026D01*
X131320717Y-110344111D01*
X131250077Y-110345398D01*
X131191510Y-110346926D01*
X131143350Y-110348737D01*
X131103932Y-110350874D01*
X131071590Y-110353376D01*
X131044657Y-110356285D01*
X131021468Y-110359643D01*
X131000357Y-110363491D01*
X130979658Y-110367870D01*
X130964196Y-110371347D01*
X130727147Y-110436944D01*
X130505353Y-110522576D01*
X130299099Y-110628055D01*
X130108668Y-110753191D01*
X129934346Y-110897794D01*
X129776417Y-111061675D01*
X129635164Y-111244646D01*
X129621289Y-111264992D01*
X129503210Y-111459862D01*
X129409329Y-111658903D01*
X129339015Y-111864202D01*
X129291639Y-112077846D01*
X129266572Y-112301921D01*
X129261943Y-112456000D01*
X129272680Y-112688075D01*
X129272680Y-112688075D01*
G37*
X129272680Y-112688075D02*
X129305312Y-112908345D01*
X129360467Y-113118898D01*
X129438776Y-113321820D01*
X129540869Y-113519198D01*
X129621289Y-113647007D01*
X129760771Y-113831975D01*
X129916960Y-113997873D01*
X130089572Y-114144513D01*
X130278321Y-114271705D01*
X130482924Y-114379260D01*
X130703097Y-114466988D01*
X130938555Y-114534701D01*
X130964196Y-114540652D01*
X130985620Y-114545436D01*
X131006267Y-114549658D01*
X131027801Y-114553362D01*
X131051888Y-114556588D01*
X131080195Y-114559377D01*
X131114387Y-114561770D01*
X131156130Y-114563810D01*
X131207090Y-114565536D01*
X131268933Y-114566991D01*
X131343323Y-114568216D01*
X131431929Y-114569252D01*
X131536414Y-114570139D01*
X131658446Y-114570921D01*
X131799689Y-114571637D01*
X131961811Y-114572329D01*
X132146475Y-114573038D01*
X132293175Y-114573579D01*
X133496500Y-114577984D01*
X133496500Y-113510100D01*
X132405963Y-113510100D01*
X132202776Y-113510071D01*
X132023250Y-113509923D01*
X131865644Y-113509561D01*
X131728220Y-113508890D01*
X131609237Y-113507816D01*
X131506955Y-113506243D01*
X131419636Y-113504077D01*
X131345539Y-113501223D01*
X131282926Y-113497587D01*
X131230055Y-113493074D01*
X131185188Y-113487589D01*
X131146585Y-113481038D01*
X131112506Y-113473326D01*
X131081212Y-113464358D01*
X131050963Y-113454040D01*
X131020020Y-113442277D01*
X130997848Y-113433466D01*
X130850929Y-113361312D01*
X130718675Y-113269044D01*
X130602519Y-113158226D01*
X130503894Y-113030424D01*
X130424232Y-112887205D01*
X130370288Y-112747553D01*
X130358444Y-112706683D01*
X130350180Y-112668190D01*
X130344879Y-112626037D01*
X130341926Y-112574189D01*
X130340706Y-112506610D01*
X130340550Y-112456000D01*
X130341026Y-112376084D01*
X130342865Y-112315521D01*
X130346683Y-112268276D01*
X130353095Y-112228311D01*
X130362718Y-112189592D01*
X130370288Y-112164446D01*
X130431806Y-112008781D01*
X130513566Y-111867136D01*
X130614135Y-111741077D01*
X130732082Y-111632169D01*
X130865973Y-111541978D01*
X130997848Y-111478533D01*
X131030245Y-111465740D01*
X131060772Y-111454456D01*
X131091170Y-111444587D01*
X131123177Y-111436037D01*
X131158533Y-111428712D01*
X131198979Y-111422517D01*
X131246253Y-111417358D01*
X131302095Y-111413141D01*
X131368245Y-111409769D01*
X131446442Y-111407149D01*
X131538426Y-111405186D01*
X131645938Y-111403785D01*
X131770715Y-111402851D01*
X131914499Y-111402291D01*
X132079028Y-111402009D01*
X132266043Y-111401910D01*
X132405963Y-111401900D01*
X133496500Y-111401900D01*
X133496500Y-110334015D01*
X132293175Y-110338420D01*
X132091379Y-110339167D01*
X131913318Y-110339868D01*
X131757325Y-110340562D01*
X131621734Y-110341293D01*
X131504879Y-110342100D01*
X131405096Y-110343026D01*
X131320717Y-110344111D01*
X131250077Y-110345398D01*
X131191510Y-110346926D01*
X131143350Y-110348737D01*
X131103932Y-110350874D01*
X131071590Y-110353376D01*
X131044657Y-110356285D01*
X131021468Y-110359643D01*
X131000357Y-110363491D01*
X130979658Y-110367870D01*
X130964196Y-110371347D01*
X130727147Y-110436944D01*
X130505353Y-110522576D01*
X130299099Y-110628055D01*
X130108668Y-110753191D01*
X129934346Y-110897794D01*
X129776417Y-111061675D01*
X129635164Y-111244646D01*
X129621289Y-111264992D01*
X129503210Y-111459862D01*
X129409329Y-111658903D01*
X129339015Y-111864202D01*
X129291639Y-112077846D01*
X129266572Y-112301921D01*
X129261943Y-112456000D01*
X129272680Y-112688075D01*
G36*
X130319897Y-125156000D02*
G01*
X130324747Y-124028875D01*
X130325599Y-123833842D01*
X130326397Y-123662504D01*
X130327187Y-123513158D01*
X130328014Y-123384097D01*
X130328922Y-123273619D01*
X130329955Y-123180017D01*
X130331159Y-123101588D01*
X130332579Y-123036628D01*
X130334258Y-122983431D01*
X130336241Y-122940293D01*
X130338574Y-122905510D01*
X130341301Y-122877377D01*
X130344466Y-122854189D01*
X130348115Y-122834243D01*
X130352291Y-122815833D01*
X130357033Y-122797281D01*
X130411587Y-122636892D01*
X130486628Y-122490926D01*
X130580959Y-122360579D01*
X130693383Y-122247051D01*
X130822700Y-122151540D01*
X130967713Y-122075242D01*
X131127224Y-122019356D01*
X131137781Y-122016533D01*
X131156357Y-122011785D01*
X131174768Y-122007609D01*
X131194718Y-122003961D01*
X131217911Y-122000797D01*
X131246052Y-121998071D01*
X131280845Y-121995738D01*
X131323996Y-121993755D01*
X131377207Y-121992076D01*
X131442185Y-121990658D01*
X131520633Y-121989454D01*
X131614256Y-121988421D01*
X131724759Y-121987513D01*
X131853846Y-121986686D01*
X132003221Y-121985896D01*
X132174589Y-121985098D01*
X132369375Y-121984247D01*
X133496500Y-121979397D01*
X133496500Y-120914200D01*
X132391099Y-120914200D01*
X132184880Y-120914257D01*
X132002242Y-120914473D01*
X131841365Y-120914913D01*
X131700430Y-120915642D01*
X131577618Y-120916725D01*
X131471109Y-120918227D01*
X131379085Y-120920214D01*
X131299725Y-120922752D01*
X131231212Y-120925904D01*
X131171724Y-120929737D01*
X131119444Y-120934316D01*
X131072552Y-120939706D01*
X131029229Y-120945972D01*
X130987655Y-120953179D01*
X130946011Y-120961393D01*
X130919566Y-120966976D01*
X130702009Y-121026480D01*
X130493723Y-121108771D01*
X130296290Y-121212427D01*
X130111292Y-121336025D01*
X129940311Y-121478144D01*
X129784930Y-121637363D01*
X129646730Y-121812258D01*
X129527293Y-122001409D01*
X129428203Y-122203393D01*
X129368779Y-122360664D01*
X129350566Y-122416182D01*
X129334401Y-122467771D01*
X129320161Y-122517240D01*
X129307725Y-122566394D01*
X129296971Y-122617043D01*
X129287777Y-122670991D01*
X129280020Y-122730047D01*
X129273580Y-122796018D01*
X129268333Y-122870711D01*
X129264159Y-122955932D01*
X129260934Y-123053489D01*
X129258537Y-123165189D01*
X129256846Y-123292839D01*
X129255739Y-123438246D01*
X129255094Y-123603218D01*
X129254789Y-123789560D01*
X129254702Y-123999081D01*
X129254700Y-124050599D01*
X129254700Y-125156000D01*
X130319897Y-125156000D01*
X130319897Y-125156000D01*
G37*
X130319897Y-125156000D02*
X130324747Y-124028875D01*
X130325599Y-123833842D01*
X130326397Y-123662504D01*
X130327187Y-123513158D01*
X130328014Y-123384097D01*
X130328922Y-123273619D01*
X130329955Y-123180017D01*
X130331159Y-123101588D01*
X130332579Y-123036628D01*
X130334258Y-122983431D01*
X130336241Y-122940293D01*
X130338574Y-122905510D01*
X130341301Y-122877377D01*
X130344466Y-122854189D01*
X130348115Y-122834243D01*
X130352291Y-122815833D01*
X130357033Y-122797281D01*
X130411587Y-122636892D01*
X130486628Y-122490926D01*
X130580959Y-122360579D01*
X130693383Y-122247051D01*
X130822700Y-122151540D01*
X130967713Y-122075242D01*
X131127224Y-122019356D01*
X131137781Y-122016533D01*
X131156357Y-122011785D01*
X131174768Y-122007609D01*
X131194718Y-122003961D01*
X131217911Y-122000797D01*
X131246052Y-121998071D01*
X131280845Y-121995738D01*
X131323996Y-121993755D01*
X131377207Y-121992076D01*
X131442185Y-121990658D01*
X131520633Y-121989454D01*
X131614256Y-121988421D01*
X131724759Y-121987513D01*
X131853846Y-121986686D01*
X132003221Y-121985896D01*
X132174589Y-121985098D01*
X132369375Y-121984247D01*
X133496500Y-121979397D01*
X133496500Y-120914200D01*
X132391099Y-120914200D01*
X132184880Y-120914257D01*
X132002242Y-120914473D01*
X131841365Y-120914913D01*
X131700430Y-120915642D01*
X131577618Y-120916725D01*
X131471109Y-120918227D01*
X131379085Y-120920214D01*
X131299725Y-120922752D01*
X131231212Y-120925904D01*
X131171724Y-120929737D01*
X131119444Y-120934316D01*
X131072552Y-120939706D01*
X131029229Y-120945972D01*
X130987655Y-120953179D01*
X130946011Y-120961393D01*
X130919566Y-120966976D01*
X130702009Y-121026480D01*
X130493723Y-121108771D01*
X130296290Y-121212427D01*
X130111292Y-121336025D01*
X129940311Y-121478144D01*
X129784930Y-121637363D01*
X129646730Y-121812258D01*
X129527293Y-122001409D01*
X129428203Y-122203393D01*
X129368779Y-122360664D01*
X129350566Y-122416182D01*
X129334401Y-122467771D01*
X129320161Y-122517240D01*
X129307725Y-122566394D01*
X129296971Y-122617043D01*
X129287777Y-122670991D01*
X129280020Y-122730047D01*
X129273580Y-122796018D01*
X129268333Y-122870711D01*
X129264159Y-122955932D01*
X129260934Y-123053489D01*
X129258537Y-123165189D01*
X129256846Y-123292839D01*
X129255739Y-123438246D01*
X129255094Y-123603218D01*
X129254789Y-123789560D01*
X129254702Y-123999081D01*
X129254700Y-124050599D01*
X129254700Y-125156000D01*
X130319897Y-125156000D01*
D11*
X173950000Y-129500000D02*
X173950000Y-81300000D01*
X146050000Y-81300000D02*
X146050000Y-129500000D01*
X146050000Y-129500000D02*
X173950000Y-129500000D01*
D12*
X174740000Y-82350000D02*
G75*
G03X174740000Y-82350000I-140000J0D01*
G01*
D11*
X169000000Y-74500000D02*
X151000000Y-74500000D01*
X151000000Y-74500000D02*
X151000000Y-81300000D01*
X169000000Y-74500000D02*
X169000000Y-81300000D01*
X173950000Y-81300000D02*
X169000000Y-81300000D01*
X146050000Y-81300000D02*
X151000000Y-81300000D01*
D13*
X175080000Y-86879000D02*
X175080000Y-85621000D01*
X176920000Y-86879000D02*
X176920000Y-85621000D01*
X174690000Y-117440000D02*
X179410000Y-117440000D01*
X179410000Y-117440000D02*
X179410000Y-123560000D01*
X179410000Y-123560000D02*
X174690000Y-123560000D01*
X174690000Y-123560000D02*
X174690000Y-117440000D01*
X174690000Y-119200000D02*
X174490000Y-119200000D01*
X174490000Y-119200000D02*
X174490000Y-118900000D01*
X174490000Y-118900000D02*
X174690000Y-118900000D01*
X174590000Y-119200000D02*
X174590000Y-118900000D01*
X174690000Y-120000000D02*
X175300000Y-120000000D01*
X175300000Y-120000000D02*
X175300000Y-118050000D01*
X175300000Y-118050000D02*
X178800000Y-118050000D01*
X178800000Y-118050000D02*
X178800000Y-122950000D01*
X178800000Y-122950000D02*
X175300000Y-122950000D01*
X175300000Y-122950000D02*
X175300000Y-121000000D01*
X175300000Y-121000000D02*
X174690000Y-121000000D01*
X176000000Y-117440000D02*
X176000000Y-118050000D01*
X177300000Y-117440000D02*
X177300000Y-118050000D01*
X176000000Y-123560000D02*
X176000000Y-122950000D01*
X177300000Y-123560000D02*
X177300000Y-122950000D01*
X178800000Y-120400000D02*
X178300000Y-120400000D01*
X178300000Y-120400000D02*
X178300000Y-120600000D01*
X178300000Y-120600000D02*
X178800000Y-120600000D01*
X178800000Y-120500000D02*
X178300000Y-120500000D01*
X174390000Y-118390000D02*
X174390000Y-117140000D01*
X174390000Y-117140000D02*
X175640000Y-117140000D01*
D14*
X161625000Y-114350000D02*
G75*
G03X161625000Y-114350000I-125000J0D01*
G01*
D15*
X153000000Y-112000000D02*
X153000000Y-111000000D01*
X153000000Y-111000000D02*
X154000000Y-111000000D01*
X154000000Y-125000000D02*
X153000000Y-125000000D01*
X153000000Y-125000000D02*
X153000000Y-124000000D01*
X167000000Y-124000000D02*
X167000000Y-125000000D01*
X167000000Y-125000000D02*
X166000000Y-125000000D01*
X166000000Y-111000000D02*
X167000000Y-111000000D01*
X167000000Y-111000000D02*
X167000000Y-112000000D01*
D13*
X118770000Y-71080000D02*
X114730000Y-71080000D01*
X118770000Y-73920000D02*
X114730000Y-73920000D01*
X118770000Y-71080000D02*
X118770000Y-71705000D01*
X118770000Y-73295000D02*
X118770000Y-73920000D01*
X114730000Y-71080000D02*
X114730000Y-71705000D01*
X114730000Y-73295000D02*
X114730000Y-73920000D01*
X109730000Y-73295000D02*
X109730000Y-73920000D01*
X109730000Y-71080000D02*
X109730000Y-71705000D01*
X113770000Y-73295000D02*
X113770000Y-73920000D01*
X113770000Y-71080000D02*
X113770000Y-71705000D01*
X113770000Y-73920000D02*
X109730000Y-73920000D01*
X113770000Y-71080000D02*
X109730000Y-71080000D01*
X112920000Y-109770000D02*
X112920000Y-105730000D01*
X110080000Y-109770000D02*
X110080000Y-105730000D01*
X112920000Y-109770000D02*
X112295000Y-109770000D01*
X110705000Y-109770000D02*
X110080000Y-109770000D01*
X112920000Y-105730000D02*
X112295000Y-105730000D01*
X110705000Y-105730000D02*
X110080000Y-105730000D01*
X105205000Y-78230000D02*
X104580000Y-78230000D01*
X107420000Y-78230000D02*
X106795000Y-78230000D01*
X105205000Y-82270000D02*
X104580000Y-82270000D01*
X107420000Y-82270000D02*
X106795000Y-82270000D01*
X104580000Y-82270000D02*
X104580000Y-78230000D01*
X107420000Y-82270000D02*
X107420000Y-78230000D01*
X120205000Y-105730000D02*
X119580000Y-105730000D01*
X122420000Y-105730000D02*
X121795000Y-105730000D01*
X120205000Y-109770000D02*
X119580000Y-109770000D01*
X122420000Y-109770000D02*
X121795000Y-109770000D01*
X119580000Y-109770000D02*
X119580000Y-105730000D01*
X122420000Y-109770000D02*
X122420000Y-105730000D01*
X116920000Y-82270000D02*
X116920000Y-78230000D01*
X114080000Y-82270000D02*
X114080000Y-78230000D01*
X116920000Y-82270000D02*
X116295000Y-82270000D01*
X114705000Y-82270000D02*
X114080000Y-82270000D01*
X116920000Y-78230000D02*
X116295000Y-78230000D01*
X114705000Y-78230000D02*
X114080000Y-78230000D01*
X113620000Y-127920000D02*
X117460000Y-127920000D01*
X113620000Y-126080000D02*
X117460000Y-126080000D01*
X113620000Y-122920000D02*
X117460000Y-122920000D01*
X113620000Y-121080000D02*
X117460000Y-121080000D01*
X113620000Y-124080000D02*
X117460000Y-124080000D01*
X113620000Y-125920000D02*
X117460000Y-125920000D01*
X113620000Y-119080000D02*
X117460000Y-119080000D01*
X113620000Y-120920000D02*
X117460000Y-120920000D01*
X119880000Y-74580000D02*
X116040000Y-74580000D01*
X119880000Y-76420000D02*
X116040000Y-76420000D01*
X112380000Y-76420000D02*
X108540000Y-76420000D01*
X112380000Y-74580000D02*
X108540000Y-74580000D01*
X107580000Y-107040000D02*
X107580000Y-110880000D01*
X109420000Y-107040000D02*
X109420000Y-110880000D01*
X106920000Y-103380000D02*
X106920000Y-99540000D01*
X105080000Y-103380000D02*
X105080000Y-99540000D01*
X105080000Y-88460000D02*
X105080000Y-84620000D01*
X106920000Y-88460000D02*
X106920000Y-84620000D01*
X110580000Y-115960000D02*
X110580000Y-112120000D01*
X112420000Y-115960000D02*
X112420000Y-112120000D01*
X105080000Y-110880000D02*
X105080000Y-107040000D01*
X106920000Y-110880000D02*
X106920000Y-107040000D01*
X106920000Y-95880000D02*
X106920000Y-92040000D01*
X105080000Y-95880000D02*
X105080000Y-92040000D01*
X117080000Y-107040000D02*
X117080000Y-110880000D01*
X118920000Y-107040000D02*
X118920000Y-110880000D01*
X116420000Y-103380000D02*
X116420000Y-99540000D01*
X114580000Y-103380000D02*
X114580000Y-99540000D01*
X116420000Y-88380000D02*
X116420000Y-84540000D01*
X114580000Y-88380000D02*
X114580000Y-84540000D01*
X120080000Y-115960000D02*
X120080000Y-112120000D01*
X121920000Y-115960000D02*
X121920000Y-112120000D01*
X114580000Y-110880000D02*
X114580000Y-107040000D01*
X116420000Y-110880000D02*
X116420000Y-107040000D01*
X114580000Y-95880000D02*
X114580000Y-92040000D01*
X116420000Y-95880000D02*
X116420000Y-92040000D01*
X106426000Y-127879000D02*
X102976000Y-127879000D01*
X106426000Y-127879000D02*
X108376000Y-127879000D01*
X106426000Y-119009000D02*
X104476000Y-119009000D01*
X106426000Y-119009000D02*
X108376000Y-119009000D01*
X126492000Y-84465000D02*
X128442000Y-84465000D01*
X126492000Y-84465000D02*
X124542000Y-84465000D01*
X126492000Y-93335000D02*
X128442000Y-93335000D01*
X126492000Y-93335000D02*
X123042000Y-93335000D01*
D15*
X90000000Y-112000000D02*
X90000000Y-103900000D01*
X90000000Y-103900000D02*
X104000000Y-103900000D01*
X104000000Y-103900000D02*
X104000000Y-112000000D01*
X104000000Y-112000000D02*
X90000000Y-112000000D01*
X104000000Y-96500000D02*
X90000000Y-96500000D01*
X104000000Y-88400000D02*
X104000000Y-96500000D01*
X90000000Y-88400000D02*
X104000000Y-88400000D01*
X90000000Y-96500000D02*
X90000000Y-88400000D01*
D16*
X99600000Y-113250000D02*
X90000000Y-113250000D01*
X90000000Y-113250000D02*
X90000000Y-122750000D01*
X90000000Y-122750000D02*
X99600000Y-122750000D01*
X99600000Y-122750000D02*
X99600000Y-113250000D01*
X90000000Y-115000000D02*
X75000000Y-115000000D01*
X75000000Y-115000000D02*
X75000000Y-121000000D01*
X75000000Y-121000000D02*
X90000000Y-121000000D01*
D17*
X95000000Y-123500000D02*
X95000000Y-123500000D01*
X94900000Y-123500000D02*
X94900000Y-123500000D01*
X94900000Y-123500000D02*
G75*
G03X95000000Y-123500000I50000J0D01*
G01*
X95000000Y-123500000D02*
G75*
G03X94900000Y-123500000I-50000J0D01*
G01*
X95000000Y-87000000D02*
G75*
G03X94900000Y-87000000I-50000J0D01*
G01*
X94900000Y-87000000D02*
G75*
G03X95000000Y-87000000I50000J0D01*
G01*
X94900000Y-87000000D02*
X94900000Y-87000000D01*
X95000000Y-87000000D02*
X95000000Y-87000000D01*
D16*
X75000000Y-84500000D02*
X90000000Y-84500000D01*
X75000000Y-78500000D02*
X75000000Y-84500000D01*
X90000000Y-78500000D02*
X75000000Y-78500000D01*
X99600000Y-86250000D02*
X99600000Y-76750000D01*
X90000000Y-86250000D02*
X99600000Y-86250000D01*
X90000000Y-76750000D02*
X90000000Y-86250000D01*
X99600000Y-76750000D02*
X90000000Y-76750000D01*
D13*
X130370000Y-72670000D02*
X130370000Y-75330000D01*
X127770000Y-72670000D02*
X130370000Y-72670000D01*
X127770000Y-75330000D02*
X130370000Y-75330000D01*
X127770000Y-72670000D02*
X127770000Y-75330000D01*
X126500000Y-72670000D02*
X125170000Y-72670000D01*
X125170000Y-72670000D02*
X125170000Y-74000000D01*
X110000000Y-114500000D02*
G75*
G03X110000000Y-114500000I-1500000J0D01*
G01*
X100000000Y-73000000D02*
G75*
G03X100000000Y-73000000I-1500000J0D01*
G01*
X119500000Y-116500000D02*
G75*
G03X119500000Y-116500000I-1500000J0D01*
G01*
X104500000Y-73000000D02*
G75*
G03X104500000Y-73000000I-1500000J0D01*
G01*
D18*
X166926621Y-71996167D02*
X166926621Y-72806006D01*
X166878984Y-72901282D01*
X166831346Y-72948919D01*
X166736071Y-72996557D01*
X166545520Y-72996557D01*
X166450245Y-72948919D01*
X166402608Y-72901282D01*
X166354970Y-72806006D01*
X166354970Y-71996167D01*
X165354580Y-72996557D02*
X165926231Y-72996557D01*
X165640406Y-72996557D02*
X165640406Y-71996167D01*
X165735681Y-72139080D01*
X165830956Y-72234355D01*
X165926231Y-72281993D01*
X170767954Y-128428496D02*
X170434271Y-128428496D01*
X170291264Y-128952855D02*
X170767954Y-128952855D01*
X170767954Y-127951805D01*
X170291264Y-127951805D01*
X169909911Y-128905186D02*
X169766904Y-128952855D01*
X169528559Y-128952855D01*
X169433221Y-128905186D01*
X169385552Y-128857517D01*
X169337883Y-128762179D01*
X169337883Y-128666841D01*
X169385552Y-128571503D01*
X169433221Y-128523834D01*
X169528559Y-128476165D01*
X169719235Y-128428496D01*
X169814573Y-128380827D01*
X169862242Y-128333158D01*
X169909911Y-128237820D01*
X169909911Y-128142482D01*
X169862242Y-128047144D01*
X169814573Y-127999475D01*
X169719235Y-127951805D01*
X169480890Y-127951805D01*
X169337883Y-127999475D01*
X168908861Y-128952855D02*
X168908861Y-127951805D01*
X168527509Y-127951805D01*
X168432171Y-127999475D01*
X168384502Y-128047144D01*
X168336833Y-128142482D01*
X168336833Y-128285489D01*
X168384502Y-128380827D01*
X168432171Y-128428496D01*
X168527509Y-128476165D01*
X168908861Y-128476165D01*
X168003150Y-127951805D02*
X167383452Y-127951805D01*
X167717135Y-128333158D01*
X167574128Y-128333158D01*
X167478790Y-128380827D01*
X167431121Y-128428496D01*
X167383452Y-128523834D01*
X167383452Y-128762179D01*
X167431121Y-128857517D01*
X167478790Y-128905186D01*
X167574128Y-128952855D01*
X167860142Y-128952855D01*
X167955480Y-128905186D01*
X168003150Y-128857517D01*
X167002100Y-128047144D02*
X166954430Y-127999475D01*
X166859092Y-127951805D01*
X166620747Y-127951805D01*
X166525409Y-127999475D01*
X166477740Y-128047144D01*
X166430071Y-128142482D01*
X166430071Y-128237820D01*
X166477740Y-128380827D01*
X167049769Y-128952855D01*
X166430071Y-128952855D01*
X166001050Y-128571503D02*
X165238345Y-128571503D01*
X164761654Y-128952855D02*
X164761654Y-127951805D01*
X164523309Y-127951805D01*
X164380302Y-127999475D01*
X164284964Y-128094813D01*
X164237295Y-128190151D01*
X164189626Y-128380827D01*
X164189626Y-128523834D01*
X164237295Y-128714510D01*
X164284964Y-128809848D01*
X164380302Y-128905186D01*
X164523309Y-128952855D01*
X164761654Y-128952855D01*
X163760604Y-128428496D02*
X163426921Y-128428496D01*
X163283914Y-128952855D02*
X163760604Y-128952855D01*
X163760604Y-127951805D01*
X163283914Y-127951805D01*
X162997900Y-127951805D02*
X162664216Y-128952855D01*
X162330533Y-127951805D01*
X161996850Y-128952855D02*
X161996850Y-127951805D01*
X161424821Y-128952855D02*
X161853842Y-128380827D01*
X161424821Y-127951805D02*
X161996850Y-128523834D01*
X160995800Y-128952855D02*
X160995800Y-127951805D01*
X160662116Y-127951805D02*
X160090088Y-127951805D01*
X160376102Y-128952855D02*
X160376102Y-127951805D01*
X159184376Y-128857517D02*
X159232045Y-128905186D01*
X159375052Y-128952855D01*
X159470390Y-128952855D01*
X159613397Y-128905186D01*
X159708735Y-128809848D01*
X159756404Y-128714510D01*
X159804073Y-128523834D01*
X159804073Y-128380827D01*
X159756404Y-128190151D01*
X159708735Y-128094813D01*
X159613397Y-127999475D01*
X159470390Y-127951805D01*
X159375052Y-127951805D01*
X159232045Y-127999475D01*
X159184376Y-128047144D01*
D15*
X178407142Y-86083333D02*
X178454761Y-86035714D01*
X178502380Y-85892857D01*
X178502380Y-85797619D01*
X178454761Y-85654761D01*
X178359523Y-85559523D01*
X178264285Y-85511904D01*
X178073809Y-85464285D01*
X177930952Y-85464285D01*
X177740476Y-85511904D01*
X177645238Y-85559523D01*
X177550000Y-85654761D01*
X177502380Y-85797619D01*
X177502380Y-85892857D01*
X177550000Y-86035714D01*
X177597619Y-86083333D01*
X178502380Y-87035714D02*
X178502380Y-86464285D01*
X178502380Y-86750000D02*
X177502380Y-86750000D01*
X177645238Y-86654761D01*
X177740476Y-86559523D01*
X177788095Y-86464285D01*
X175952380Y-115166666D02*
X176666666Y-115166666D01*
X176809523Y-115119047D01*
X176904761Y-115023809D01*
X176952380Y-114880952D01*
X176952380Y-114785714D01*
X176047619Y-115595238D02*
X176000000Y-115642857D01*
X175952380Y-115738095D01*
X175952380Y-115976190D01*
X176000000Y-116071428D01*
X176047619Y-116119047D01*
X176142857Y-116166666D01*
X176238095Y-116166666D01*
X176380952Y-116119047D01*
X176952380Y-115547619D01*
X176952380Y-116166666D01*
D19*
X156925476Y-114126904D02*
X157530238Y-114550238D01*
X156925476Y-114852619D02*
X158195476Y-114852619D01*
X158195476Y-114368809D01*
X158135000Y-114247857D01*
X158074523Y-114187380D01*
X157953571Y-114126904D01*
X157772142Y-114126904D01*
X157651190Y-114187380D01*
X157590714Y-114247857D01*
X157530238Y-114368809D01*
X157530238Y-114852619D01*
X156925476Y-113582619D02*
X158195476Y-113582619D01*
X156925476Y-112856904D01*
X158195476Y-112856904D01*
X156925476Y-111586904D02*
X156925476Y-112312619D01*
X156925476Y-111949761D02*
X158195476Y-111949761D01*
X158014047Y-112070714D01*
X157893095Y-112191666D01*
X157832619Y-112312619D01*
D15*
X120666666Y-72857142D02*
X120714285Y-72904761D01*
X120857142Y-72952380D01*
X120952380Y-72952380D01*
X121095238Y-72904761D01*
X121190476Y-72809523D01*
X121238095Y-72714285D01*
X121285714Y-72523809D01*
X121285714Y-72380952D01*
X121238095Y-72190476D01*
X121190476Y-72095238D01*
X121095238Y-72000000D01*
X120952380Y-71952380D01*
X120857142Y-71952380D01*
X120714285Y-72000000D01*
X120666666Y-72047619D01*
X120333333Y-71952380D02*
X119714285Y-71952380D01*
X120047619Y-72333333D01*
X119904761Y-72333333D01*
X119809523Y-72380952D01*
X119761904Y-72428571D01*
X119714285Y-72523809D01*
X119714285Y-72761904D01*
X119761904Y-72857142D01*
X119809523Y-72904761D01*
X119904761Y-72952380D01*
X120190476Y-72952380D01*
X120285714Y-72904761D01*
X120333333Y-72857142D01*
X108166666Y-72857142D02*
X108214285Y-72904761D01*
X108357142Y-72952380D01*
X108452380Y-72952380D01*
X108595238Y-72904761D01*
X108690476Y-72809523D01*
X108738095Y-72714285D01*
X108785714Y-72523809D01*
X108785714Y-72380952D01*
X108738095Y-72190476D01*
X108690476Y-72095238D01*
X108595238Y-72000000D01*
X108452380Y-71952380D01*
X108357142Y-71952380D01*
X108214285Y-72000000D01*
X108166666Y-72047619D01*
X107309523Y-72285714D02*
X107309523Y-72952380D01*
X107547619Y-71904761D02*
X107785714Y-72619047D01*
X107166666Y-72619047D01*
X111857142Y-104083333D02*
X111904761Y-104035714D01*
X111952380Y-103892857D01*
X111952380Y-103797619D01*
X111904761Y-103654761D01*
X111809523Y-103559523D01*
X111714285Y-103511904D01*
X111523809Y-103464285D01*
X111380952Y-103464285D01*
X111190476Y-103511904D01*
X111095238Y-103559523D01*
X111000000Y-103654761D01*
X110952380Y-103797619D01*
X110952380Y-103892857D01*
X111000000Y-104035714D01*
X111047619Y-104083333D01*
X110952380Y-104988095D02*
X110952380Y-104511904D01*
X111428571Y-104464285D01*
X111380952Y-104511904D01*
X111333333Y-104607142D01*
X111333333Y-104845238D01*
X111380952Y-104940476D01*
X111428571Y-104988095D01*
X111523809Y-105035714D01*
X111761904Y-105035714D01*
X111857142Y-104988095D01*
X111904761Y-104940476D01*
X111952380Y-104845238D01*
X111952380Y-104607142D01*
X111904761Y-104511904D01*
X111857142Y-104464285D01*
X108907142Y-80083333D02*
X108954761Y-80035714D01*
X109002380Y-79892857D01*
X109002380Y-79797619D01*
X108954761Y-79654761D01*
X108859523Y-79559523D01*
X108764285Y-79511904D01*
X108573809Y-79464285D01*
X108430952Y-79464285D01*
X108240476Y-79511904D01*
X108145238Y-79559523D01*
X108050000Y-79654761D01*
X108002380Y-79797619D01*
X108002380Y-79892857D01*
X108050000Y-80035714D01*
X108097619Y-80083333D01*
X108002380Y-80940476D02*
X108002380Y-80750000D01*
X108050000Y-80654761D01*
X108097619Y-80607142D01*
X108240476Y-80511904D01*
X108430952Y-80464285D01*
X108811904Y-80464285D01*
X108907142Y-80511904D01*
X108954761Y-80559523D01*
X109002380Y-80654761D01*
X109002380Y-80845238D01*
X108954761Y-80940476D01*
X108907142Y-80988095D01*
X108811904Y-81035714D01*
X108573809Y-81035714D01*
X108478571Y-80988095D01*
X108430952Y-80940476D01*
X108383333Y-80845238D01*
X108383333Y-80654761D01*
X108430952Y-80559523D01*
X108478571Y-80511904D01*
X108573809Y-80464285D01*
X121357142Y-104083333D02*
X121404761Y-104035714D01*
X121452380Y-103892857D01*
X121452380Y-103797619D01*
X121404761Y-103654761D01*
X121309523Y-103559523D01*
X121214285Y-103511904D01*
X121023809Y-103464285D01*
X120880952Y-103464285D01*
X120690476Y-103511904D01*
X120595238Y-103559523D01*
X120500000Y-103654761D01*
X120452380Y-103797619D01*
X120452380Y-103892857D01*
X120500000Y-104035714D01*
X120547619Y-104083333D01*
X120452380Y-104416666D02*
X120452380Y-105083333D01*
X121452380Y-104654761D01*
X118407142Y-80083333D02*
X118454761Y-80035714D01*
X118502380Y-79892857D01*
X118502380Y-79797619D01*
X118454761Y-79654761D01*
X118359523Y-79559523D01*
X118264285Y-79511904D01*
X118073809Y-79464285D01*
X117930952Y-79464285D01*
X117740476Y-79511904D01*
X117645238Y-79559523D01*
X117550000Y-79654761D01*
X117502380Y-79797619D01*
X117502380Y-79892857D01*
X117550000Y-80035714D01*
X117597619Y-80083333D01*
X117930952Y-80654761D02*
X117883333Y-80559523D01*
X117835714Y-80511904D01*
X117740476Y-80464285D01*
X117692857Y-80464285D01*
X117597619Y-80511904D01*
X117550000Y-80559523D01*
X117502380Y-80654761D01*
X117502380Y-80845238D01*
X117550000Y-80940476D01*
X117597619Y-80988095D01*
X117692857Y-81035714D01*
X117740476Y-81035714D01*
X117835714Y-80988095D01*
X117883333Y-80940476D01*
X117930952Y-80845238D01*
X117930952Y-80654761D01*
X117978571Y-80559523D01*
X118026190Y-80511904D01*
X118121428Y-80464285D01*
X118311904Y-80464285D01*
X118407142Y-80511904D01*
X118454761Y-80559523D01*
X118502380Y-80654761D01*
X118502380Y-80845238D01*
X118454761Y-80940476D01*
X118407142Y-80988095D01*
X118311904Y-81035714D01*
X118121428Y-81035714D01*
X118026190Y-80988095D01*
X117978571Y-80940476D01*
X117930952Y-80845238D01*
X115706666Y-127452380D02*
X116040000Y-126976190D01*
X116278095Y-127452380D02*
X116278095Y-126452380D01*
X115897142Y-126452380D01*
X115801904Y-126500000D01*
X115754285Y-126547619D01*
X115706666Y-126642857D01*
X115706666Y-126785714D01*
X115754285Y-126880952D01*
X115801904Y-126928571D01*
X115897142Y-126976190D01*
X116278095Y-126976190D01*
X114754285Y-127452380D02*
X115325714Y-127452380D01*
X115040000Y-127452380D02*
X115040000Y-126452380D01*
X115135238Y-126595238D01*
X115230476Y-126690476D01*
X115325714Y-126738095D01*
X115666666Y-122452380D02*
X116000000Y-121976190D01*
X116238095Y-122452380D02*
X116238095Y-121452380D01*
X115857142Y-121452380D01*
X115761904Y-121500000D01*
X115714285Y-121547619D01*
X115666666Y-121642857D01*
X115666666Y-121785714D01*
X115714285Y-121880952D01*
X115761904Y-121928571D01*
X115857142Y-121976190D01*
X116238095Y-121976190D01*
X115285714Y-121547619D02*
X115238095Y-121500000D01*
X115142857Y-121452380D01*
X114904761Y-121452380D01*
X114809523Y-121500000D01*
X114761904Y-121547619D01*
X114714285Y-121642857D01*
X114714285Y-121738095D01*
X114761904Y-121880952D01*
X115333333Y-122452380D01*
X114714285Y-122452380D01*
X115666666Y-125452380D02*
X116000000Y-124976190D01*
X116238095Y-125452380D02*
X116238095Y-124452380D01*
X115857142Y-124452380D01*
X115761904Y-124500000D01*
X115714285Y-124547619D01*
X115666666Y-124642857D01*
X115666666Y-124785714D01*
X115714285Y-124880952D01*
X115761904Y-124928571D01*
X115857142Y-124976190D01*
X116238095Y-124976190D01*
X115333333Y-124452380D02*
X114714285Y-124452380D01*
X115047619Y-124833333D01*
X114904761Y-124833333D01*
X114809523Y-124880952D01*
X114761904Y-124928571D01*
X114714285Y-125023809D01*
X114714285Y-125261904D01*
X114761904Y-125357142D01*
X114809523Y-125404761D01*
X114904761Y-125452380D01*
X115190476Y-125452380D01*
X115285714Y-125404761D01*
X115333333Y-125357142D01*
X115746666Y-120452380D02*
X116080000Y-119976190D01*
X116318095Y-120452380D02*
X116318095Y-119452380D01*
X115937142Y-119452380D01*
X115841904Y-119500000D01*
X115794285Y-119547619D01*
X115746666Y-119642857D01*
X115746666Y-119785714D01*
X115794285Y-119880952D01*
X115841904Y-119928571D01*
X115937142Y-119976190D01*
X116318095Y-119976190D01*
X114889523Y-119785714D02*
X114889523Y-120452380D01*
X115127619Y-119404761D02*
X115365714Y-120119047D01*
X114746666Y-120119047D01*
X118166666Y-75952380D02*
X118500000Y-75476190D01*
X118738095Y-75952380D02*
X118738095Y-74952380D01*
X118357142Y-74952380D01*
X118261904Y-75000000D01*
X118214285Y-75047619D01*
X118166666Y-75142857D01*
X118166666Y-75285714D01*
X118214285Y-75380952D01*
X118261904Y-75428571D01*
X118357142Y-75476190D01*
X118738095Y-75476190D01*
X117261904Y-74952380D02*
X117738095Y-74952380D01*
X117785714Y-75428571D01*
X117738095Y-75380952D01*
X117642857Y-75333333D01*
X117404761Y-75333333D01*
X117309523Y-75380952D01*
X117261904Y-75428571D01*
X117214285Y-75523809D01*
X117214285Y-75761904D01*
X117261904Y-75857142D01*
X117309523Y-75904761D01*
X117404761Y-75952380D01*
X117642857Y-75952380D01*
X117738095Y-75904761D01*
X117785714Y-75857142D01*
X110626666Y-75952380D02*
X110960000Y-75476190D01*
X111198095Y-75952380D02*
X111198095Y-74952380D01*
X110817142Y-74952380D01*
X110721904Y-75000000D01*
X110674285Y-75047619D01*
X110626666Y-75142857D01*
X110626666Y-75285714D01*
X110674285Y-75380952D01*
X110721904Y-75428571D01*
X110817142Y-75476190D01*
X111198095Y-75476190D01*
X109769523Y-74952380D02*
X109960000Y-74952380D01*
X110055238Y-75000000D01*
X110102857Y-75047619D01*
X110198095Y-75190476D01*
X110245714Y-75380952D01*
X110245714Y-75761904D01*
X110198095Y-75857142D01*
X110150476Y-75904761D01*
X110055238Y-75952380D01*
X109864761Y-75952380D01*
X109769523Y-75904761D01*
X109721904Y-75857142D01*
X109674285Y-75761904D01*
X109674285Y-75523809D01*
X109721904Y-75428571D01*
X109769523Y-75380952D01*
X109864761Y-75333333D01*
X110055238Y-75333333D01*
X110150476Y-75380952D01*
X110198095Y-75428571D01*
X110245714Y-75523809D01*
X108952380Y-108793333D02*
X108476190Y-108460000D01*
X108952380Y-108221904D02*
X107952380Y-108221904D01*
X107952380Y-108602857D01*
X108000000Y-108698095D01*
X108047619Y-108745714D01*
X108142857Y-108793333D01*
X108285714Y-108793333D01*
X108380952Y-108745714D01*
X108428571Y-108698095D01*
X108476190Y-108602857D01*
X108476190Y-108221904D01*
X107952380Y-109126666D02*
X107952380Y-109793333D01*
X108952380Y-109364761D01*
X106452380Y-101293333D02*
X105976190Y-100960000D01*
X106452380Y-100721904D02*
X105452380Y-100721904D01*
X105452380Y-101102857D01*
X105500000Y-101198095D01*
X105547619Y-101245714D01*
X105642857Y-101293333D01*
X105785714Y-101293333D01*
X105880952Y-101245714D01*
X105928571Y-101198095D01*
X105976190Y-101102857D01*
X105976190Y-100721904D01*
X105880952Y-101864761D02*
X105833333Y-101769523D01*
X105785714Y-101721904D01*
X105690476Y-101674285D01*
X105642857Y-101674285D01*
X105547619Y-101721904D01*
X105500000Y-101769523D01*
X105452380Y-101864761D01*
X105452380Y-102055238D01*
X105500000Y-102150476D01*
X105547619Y-102198095D01*
X105642857Y-102245714D01*
X105690476Y-102245714D01*
X105785714Y-102198095D01*
X105833333Y-102150476D01*
X105880952Y-102055238D01*
X105880952Y-101864761D01*
X105928571Y-101769523D01*
X105976190Y-101721904D01*
X106071428Y-101674285D01*
X106261904Y-101674285D01*
X106357142Y-101721904D01*
X106404761Y-101769523D01*
X106452380Y-101864761D01*
X106452380Y-102055238D01*
X106404761Y-102150476D01*
X106357142Y-102198095D01*
X106261904Y-102245714D01*
X106071428Y-102245714D01*
X105976190Y-102198095D01*
X105928571Y-102150476D01*
X105880952Y-102055238D01*
X106452380Y-86333333D02*
X105976190Y-86000000D01*
X106452380Y-85761904D02*
X105452380Y-85761904D01*
X105452380Y-86142857D01*
X105500000Y-86238095D01*
X105547619Y-86285714D01*
X105642857Y-86333333D01*
X105785714Y-86333333D01*
X105880952Y-86285714D01*
X105928571Y-86238095D01*
X105976190Y-86142857D01*
X105976190Y-85761904D01*
X106452380Y-86809523D02*
X106452380Y-87000000D01*
X106404761Y-87095238D01*
X106357142Y-87142857D01*
X106214285Y-87238095D01*
X106023809Y-87285714D01*
X105642857Y-87285714D01*
X105547619Y-87238095D01*
X105500000Y-87190476D01*
X105452380Y-87095238D01*
X105452380Y-86904761D01*
X105500000Y-86809523D01*
X105547619Y-86761904D01*
X105642857Y-86714285D01*
X105880952Y-86714285D01*
X105976190Y-86761904D01*
X106023809Y-86809523D01*
X106071428Y-86904761D01*
X106071428Y-87095238D01*
X106023809Y-87190476D01*
X105976190Y-87238095D01*
X105880952Y-87285714D01*
X111952380Y-113357142D02*
X111476190Y-113023809D01*
X111952380Y-112785714D02*
X110952380Y-112785714D01*
X110952380Y-113166666D01*
X111000000Y-113261904D01*
X111047619Y-113309523D01*
X111142857Y-113357142D01*
X111285714Y-113357142D01*
X111380952Y-113309523D01*
X111428571Y-113261904D01*
X111476190Y-113166666D01*
X111476190Y-112785714D01*
X111952380Y-114309523D02*
X111952380Y-113738095D01*
X111952380Y-114023809D02*
X110952380Y-114023809D01*
X111095238Y-113928571D01*
X111190476Y-113833333D01*
X111238095Y-113738095D01*
X110952380Y-114928571D02*
X110952380Y-115023809D01*
X111000000Y-115119047D01*
X111047619Y-115166666D01*
X111142857Y-115214285D01*
X111333333Y-115261904D01*
X111571428Y-115261904D01*
X111761904Y-115214285D01*
X111857142Y-115166666D01*
X111904761Y-115119047D01*
X111952380Y-115023809D01*
X111952380Y-114928571D01*
X111904761Y-114833333D01*
X111857142Y-114785714D01*
X111761904Y-114738095D01*
X111571428Y-114690476D01*
X111333333Y-114690476D01*
X111142857Y-114738095D01*
X111047619Y-114785714D01*
X111000000Y-114833333D01*
X110952380Y-114928571D01*
X106452380Y-108317142D02*
X105976190Y-107983809D01*
X106452380Y-107745714D02*
X105452380Y-107745714D01*
X105452380Y-108126666D01*
X105500000Y-108221904D01*
X105547619Y-108269523D01*
X105642857Y-108317142D01*
X105785714Y-108317142D01*
X105880952Y-108269523D01*
X105928571Y-108221904D01*
X105976190Y-108126666D01*
X105976190Y-107745714D01*
X106452380Y-109269523D02*
X106452380Y-108698095D01*
X106452380Y-108983809D02*
X105452380Y-108983809D01*
X105595238Y-108888571D01*
X105690476Y-108793333D01*
X105738095Y-108698095D01*
X106452380Y-110221904D02*
X106452380Y-109650476D01*
X106452380Y-109936190D02*
X105452380Y-109936190D01*
X105595238Y-109840952D01*
X105690476Y-109745714D01*
X105738095Y-109650476D01*
X106452380Y-93317142D02*
X105976190Y-92983809D01*
X106452380Y-92745714D02*
X105452380Y-92745714D01*
X105452380Y-93126666D01*
X105500000Y-93221904D01*
X105547619Y-93269523D01*
X105642857Y-93317142D01*
X105785714Y-93317142D01*
X105880952Y-93269523D01*
X105928571Y-93221904D01*
X105976190Y-93126666D01*
X105976190Y-92745714D01*
X106452380Y-94269523D02*
X106452380Y-93698095D01*
X106452380Y-93983809D02*
X105452380Y-93983809D01*
X105595238Y-93888571D01*
X105690476Y-93793333D01*
X105738095Y-93698095D01*
X105547619Y-94650476D02*
X105500000Y-94698095D01*
X105452380Y-94793333D01*
X105452380Y-95031428D01*
X105500000Y-95126666D01*
X105547619Y-95174285D01*
X105642857Y-95221904D01*
X105738095Y-95221904D01*
X105880952Y-95174285D01*
X106452380Y-94602857D01*
X106452380Y-95221904D01*
X118452380Y-108277142D02*
X117976190Y-107943809D01*
X118452380Y-107705714D02*
X117452380Y-107705714D01*
X117452380Y-108086666D01*
X117500000Y-108181904D01*
X117547619Y-108229523D01*
X117642857Y-108277142D01*
X117785714Y-108277142D01*
X117880952Y-108229523D01*
X117928571Y-108181904D01*
X117976190Y-108086666D01*
X117976190Y-107705714D01*
X118452380Y-109229523D02*
X118452380Y-108658095D01*
X118452380Y-108943809D02*
X117452380Y-108943809D01*
X117595238Y-108848571D01*
X117690476Y-108753333D01*
X117738095Y-108658095D01*
X117452380Y-109562857D02*
X117452380Y-110181904D01*
X117833333Y-109848571D01*
X117833333Y-109991428D01*
X117880952Y-110086666D01*
X117928571Y-110134285D01*
X118023809Y-110181904D01*
X118261904Y-110181904D01*
X118357142Y-110134285D01*
X118404761Y-110086666D01*
X118452380Y-109991428D01*
X118452380Y-109705714D01*
X118404761Y-109610476D01*
X118357142Y-109562857D01*
X115952380Y-100817142D02*
X115476190Y-100483809D01*
X115952380Y-100245714D02*
X114952380Y-100245714D01*
X114952380Y-100626666D01*
X115000000Y-100721904D01*
X115047619Y-100769523D01*
X115142857Y-100817142D01*
X115285714Y-100817142D01*
X115380952Y-100769523D01*
X115428571Y-100721904D01*
X115476190Y-100626666D01*
X115476190Y-100245714D01*
X115952380Y-101769523D02*
X115952380Y-101198095D01*
X115952380Y-101483809D02*
X114952380Y-101483809D01*
X115095238Y-101388571D01*
X115190476Y-101293333D01*
X115238095Y-101198095D01*
X115285714Y-102626666D02*
X115952380Y-102626666D01*
X114904761Y-102388571D02*
X115619047Y-102150476D01*
X115619047Y-102769523D01*
X115952380Y-85817142D02*
X115476190Y-85483809D01*
X115952380Y-85245714D02*
X114952380Y-85245714D01*
X114952380Y-85626666D01*
X115000000Y-85721904D01*
X115047619Y-85769523D01*
X115142857Y-85817142D01*
X115285714Y-85817142D01*
X115380952Y-85769523D01*
X115428571Y-85721904D01*
X115476190Y-85626666D01*
X115476190Y-85245714D01*
X115952380Y-86769523D02*
X115952380Y-86198095D01*
X115952380Y-86483809D02*
X114952380Y-86483809D01*
X115095238Y-86388571D01*
X115190476Y-86293333D01*
X115238095Y-86198095D01*
X114952380Y-87674285D02*
X114952380Y-87198095D01*
X115428571Y-87150476D01*
X115380952Y-87198095D01*
X115333333Y-87293333D01*
X115333333Y-87531428D01*
X115380952Y-87626666D01*
X115428571Y-87674285D01*
X115523809Y-87721904D01*
X115761904Y-87721904D01*
X115857142Y-87674285D01*
X115904761Y-87626666D01*
X115952380Y-87531428D01*
X115952380Y-87293333D01*
X115904761Y-87198095D01*
X115857142Y-87150476D01*
X121452380Y-113397142D02*
X120976190Y-113063809D01*
X121452380Y-112825714D02*
X120452380Y-112825714D01*
X120452380Y-113206666D01*
X120500000Y-113301904D01*
X120547619Y-113349523D01*
X120642857Y-113397142D01*
X120785714Y-113397142D01*
X120880952Y-113349523D01*
X120928571Y-113301904D01*
X120976190Y-113206666D01*
X120976190Y-112825714D01*
X121452380Y-114349523D02*
X121452380Y-113778095D01*
X121452380Y-114063809D02*
X120452380Y-114063809D01*
X120595238Y-113968571D01*
X120690476Y-113873333D01*
X120738095Y-113778095D01*
X120452380Y-115206666D02*
X120452380Y-115016190D01*
X120500000Y-114920952D01*
X120547619Y-114873333D01*
X120690476Y-114778095D01*
X120880952Y-114730476D01*
X121261904Y-114730476D01*
X121357142Y-114778095D01*
X121404761Y-114825714D01*
X121452380Y-114920952D01*
X121452380Y-115111428D01*
X121404761Y-115206666D01*
X121357142Y-115254285D01*
X121261904Y-115301904D01*
X121023809Y-115301904D01*
X120928571Y-115254285D01*
X120880952Y-115206666D01*
X120833333Y-115111428D01*
X120833333Y-114920952D01*
X120880952Y-114825714D01*
X120928571Y-114778095D01*
X121023809Y-114730476D01*
X115952380Y-108357142D02*
X115476190Y-108023809D01*
X115952380Y-107785714D02*
X114952380Y-107785714D01*
X114952380Y-108166666D01*
X115000000Y-108261904D01*
X115047619Y-108309523D01*
X115142857Y-108357142D01*
X115285714Y-108357142D01*
X115380952Y-108309523D01*
X115428571Y-108261904D01*
X115476190Y-108166666D01*
X115476190Y-107785714D01*
X115952380Y-109309523D02*
X115952380Y-108738095D01*
X115952380Y-109023809D02*
X114952380Y-109023809D01*
X115095238Y-108928571D01*
X115190476Y-108833333D01*
X115238095Y-108738095D01*
X114952380Y-109642857D02*
X114952380Y-110309523D01*
X115952380Y-109880952D01*
X115952380Y-93317142D02*
X115476190Y-92983809D01*
X115952380Y-92745714D02*
X114952380Y-92745714D01*
X114952380Y-93126666D01*
X115000000Y-93221904D01*
X115047619Y-93269523D01*
X115142857Y-93317142D01*
X115285714Y-93317142D01*
X115380952Y-93269523D01*
X115428571Y-93221904D01*
X115476190Y-93126666D01*
X115476190Y-92745714D01*
X115952380Y-94269523D02*
X115952380Y-93698095D01*
X115952380Y-93983809D02*
X114952380Y-93983809D01*
X115095238Y-93888571D01*
X115190476Y-93793333D01*
X115238095Y-93698095D01*
X115380952Y-94840952D02*
X115333333Y-94745714D01*
X115285714Y-94698095D01*
X115190476Y-94650476D01*
X115142857Y-94650476D01*
X115047619Y-94698095D01*
X115000000Y-94745714D01*
X114952380Y-94840952D01*
X114952380Y-95031428D01*
X115000000Y-95126666D01*
X115047619Y-95174285D01*
X115142857Y-95221904D01*
X115190476Y-95221904D01*
X115285714Y-95174285D01*
X115333333Y-95126666D01*
X115380952Y-95031428D01*
X115380952Y-94840952D01*
X115428571Y-94745714D01*
X115476190Y-94698095D01*
X115571428Y-94650476D01*
X115761904Y-94650476D01*
X115857142Y-94698095D01*
X115904761Y-94745714D01*
X115952380Y-94840952D01*
X115952380Y-95031428D01*
X115904761Y-95126666D01*
X115857142Y-95174285D01*
X115761904Y-95221904D01*
X115571428Y-95221904D01*
X115476190Y-95174285D01*
X115428571Y-95126666D01*
X115380952Y-95031428D01*
X107187904Y-122896380D02*
X107187904Y-123705904D01*
X107140285Y-123801142D01*
X107092666Y-123848761D01*
X106997428Y-123896380D01*
X106806952Y-123896380D01*
X106711714Y-123848761D01*
X106664095Y-123801142D01*
X106616476Y-123705904D01*
X106616476Y-122896380D01*
X106235523Y-122896380D02*
X105616476Y-122896380D01*
X105949809Y-123277333D01*
X105806952Y-123277333D01*
X105711714Y-123324952D01*
X105664095Y-123372571D01*
X105616476Y-123467809D01*
X105616476Y-123705904D01*
X105664095Y-123801142D01*
X105711714Y-123848761D01*
X105806952Y-123896380D01*
X106092666Y-123896380D01*
X106187904Y-123848761D01*
X106235523Y-123801142D01*
X127253904Y-93632380D02*
X127253904Y-94441904D01*
X127206285Y-94537142D01*
X127158666Y-94584761D01*
X127063428Y-94632380D01*
X126872952Y-94632380D01*
X126777714Y-94584761D01*
X126730095Y-94537142D01*
X126682476Y-94441904D01*
X126682476Y-93632380D01*
X125777714Y-93965714D02*
X125777714Y-94632380D01*
X126015809Y-93584761D02*
X126253904Y-94299047D01*
X125634857Y-94299047D01*
X94761904Y-105452380D02*
X94761904Y-106261904D01*
X94714285Y-106357142D01*
X94666666Y-106404761D01*
X94571428Y-106452380D01*
X94380952Y-106452380D01*
X94285714Y-106404761D01*
X94238095Y-106357142D01*
X94190476Y-106261904D01*
X94190476Y-105452380D01*
X93238095Y-105452380D02*
X93714285Y-105452380D01*
X93761904Y-105928571D01*
X93714285Y-105880952D01*
X93619047Y-105833333D01*
X93380952Y-105833333D01*
X93285714Y-105880952D01*
X93238095Y-105928571D01*
X93190476Y-106023809D01*
X93190476Y-106261904D01*
X93238095Y-106357142D01*
X93285714Y-106404761D01*
X93380952Y-106452380D01*
X93619047Y-106452380D01*
X93714285Y-106404761D01*
X93761904Y-106357142D01*
X94761904Y-89952380D02*
X94761904Y-90761904D01*
X94714285Y-90857142D01*
X94666666Y-90904761D01*
X94571428Y-90952380D01*
X94380952Y-90952380D01*
X94285714Y-90904761D01*
X94238095Y-90857142D01*
X94190476Y-90761904D01*
X94190476Y-89952380D01*
X93285714Y-89952380D02*
X93476190Y-89952380D01*
X93571428Y-90000000D01*
X93619047Y-90047619D01*
X93714285Y-90190476D01*
X93761904Y-90380952D01*
X93761904Y-90761904D01*
X93714285Y-90857142D01*
X93666666Y-90904761D01*
X93571428Y-90952380D01*
X93380952Y-90952380D01*
X93285714Y-90904761D01*
X93238095Y-90857142D01*
X93190476Y-90761904D01*
X93190476Y-90523809D01*
X93238095Y-90428571D01*
X93285714Y-90380952D01*
X93380952Y-90333333D01*
X93571428Y-90333333D01*
X93666666Y-90380952D01*
X93714285Y-90428571D01*
X93761904Y-90523809D01*
D19*
X93663095Y-113804523D02*
X93239761Y-115074523D01*
X92816428Y-113804523D01*
X91667380Y-115074523D02*
X92090714Y-114469761D01*
X92393095Y-115074523D02*
X92393095Y-113804523D01*
X91909285Y-113804523D01*
X91788333Y-113865000D01*
X91727857Y-113925476D01*
X91667380Y-114046428D01*
X91667380Y-114227857D01*
X91727857Y-114348809D01*
X91788333Y-114409285D01*
X91909285Y-114469761D01*
X92393095Y-114469761D01*
X90457857Y-115074523D02*
X91183571Y-115074523D01*
X90820714Y-115074523D02*
X90820714Y-113804523D01*
X90941666Y-113985952D01*
X91062619Y-114106904D01*
X91183571Y-114167380D01*
X93913095Y-77554523D02*
X93489761Y-78824523D01*
X93066428Y-77554523D01*
X91917380Y-78824523D02*
X92340714Y-78219761D01*
X92643095Y-78824523D02*
X92643095Y-77554523D01*
X92159285Y-77554523D01*
X92038333Y-77615000D01*
X91977857Y-77675476D01*
X91917380Y-77796428D01*
X91917380Y-77977857D01*
X91977857Y-78098809D01*
X92038333Y-78159285D01*
X92159285Y-78219761D01*
X92643095Y-78219761D01*
X91433571Y-77675476D02*
X91373095Y-77615000D01*
X91252142Y-77554523D01*
X90949761Y-77554523D01*
X90828809Y-77615000D01*
X90768333Y-77675476D01*
X90707857Y-77796428D01*
X90707857Y-77917380D01*
X90768333Y-78098809D01*
X91494047Y-78824523D01*
X90707857Y-78824523D01*
D15*
X127833333Y-70952380D02*
X127833333Y-71666666D01*
X127880952Y-71809523D01*
X127976190Y-71904761D01*
X128119047Y-71952380D01*
X128214285Y-71952380D01*
X126928571Y-71285714D02*
X126928571Y-71952380D01*
X127166666Y-70904761D02*
X127404761Y-71619047D01*
X126785714Y-71619047D01*
X101761904Y-123452380D02*
X101190476Y-123452380D01*
X101476190Y-124452380D02*
X101476190Y-123452380D01*
X100857142Y-124452380D02*
X100857142Y-123452380D01*
X100476190Y-123452380D01*
X100380952Y-123500000D01*
X100333333Y-123547619D01*
X100285714Y-123642857D01*
X100285714Y-123785714D01*
X100333333Y-123880952D01*
X100380952Y-123928571D01*
X100476190Y-123976190D01*
X100857142Y-123976190D01*
X99333333Y-124452380D02*
X99904761Y-124452380D01*
X99619047Y-124452380D02*
X99619047Y-123452380D01*
X99714285Y-123595238D01*
X99809523Y-123690476D01*
X99904761Y-123738095D01*
X105261904Y-117452380D02*
X104690476Y-117452380D01*
X104976190Y-118452380D02*
X104976190Y-117452380D01*
X104357142Y-118452380D02*
X104357142Y-117452380D01*
X103976190Y-117452380D01*
X103880952Y-117500000D01*
X103833333Y-117547619D01*
X103785714Y-117642857D01*
X103785714Y-117785714D01*
X103833333Y-117880952D01*
X103880952Y-117928571D01*
X103976190Y-117976190D01*
X104357142Y-117976190D01*
X103404761Y-117547619D02*
X103357142Y-117500000D01*
X103261904Y-117452380D01*
X103023809Y-117452380D01*
X102928571Y-117500000D01*
X102880952Y-117547619D01*
X102833333Y-117642857D01*
X102833333Y-117738095D01*
X102880952Y-117880952D01*
X103452380Y-118452380D01*
X102833333Y-118452380D01*
X112261904Y-80452380D02*
X111690476Y-80452380D01*
X111976190Y-81452380D02*
X111976190Y-80452380D01*
X111357142Y-81452380D02*
X111357142Y-80452380D01*
X110976190Y-80452380D01*
X110880952Y-80500000D01*
X110833333Y-80547619D01*
X110785714Y-80642857D01*
X110785714Y-80785714D01*
X110833333Y-80880952D01*
X110880952Y-80928571D01*
X110976190Y-80976190D01*
X111357142Y-80976190D01*
X110452380Y-80452380D02*
X109833333Y-80452380D01*
X110166666Y-80833333D01*
X110023809Y-80833333D01*
X109928571Y-80880952D01*
X109880952Y-80928571D01*
X109833333Y-81023809D01*
X109833333Y-81261904D01*
X109880952Y-81357142D01*
X109928571Y-81404761D01*
X110023809Y-81452380D01*
X110309523Y-81452380D01*
X110404761Y-81404761D01*
X110452380Y-81357142D01*
X95261904Y-101452380D02*
X94690476Y-101452380D01*
X94976190Y-102452380D02*
X94976190Y-101452380D01*
X94357142Y-102452380D02*
X94357142Y-101452380D01*
X93976190Y-101452380D01*
X93880952Y-101500000D01*
X93833333Y-101547619D01*
X93785714Y-101642857D01*
X93785714Y-101785714D01*
X93833333Y-101880952D01*
X93880952Y-101928571D01*
X93976190Y-101976190D01*
X94357142Y-101976190D01*
X92928571Y-101785714D02*
X92928571Y-102452380D01*
X93166666Y-101404761D02*
X93404761Y-102119047D01*
X92785714Y-102119047D01*
X105452380Y-112538095D02*
X105452380Y-113109523D01*
X106452380Y-112823809D02*
X105452380Y-112823809D01*
X106452380Y-113442857D02*
X105452380Y-113442857D01*
X105452380Y-113823809D01*
X105500000Y-113919047D01*
X105547619Y-113966666D01*
X105642857Y-114014285D01*
X105785714Y-114014285D01*
X105880952Y-113966666D01*
X105928571Y-113919047D01*
X105976190Y-113823809D01*
X105976190Y-113442857D01*
X105452380Y-114919047D02*
X105452380Y-114442857D01*
X105928571Y-114395238D01*
X105880952Y-114442857D01*
X105833333Y-114538095D01*
X105833333Y-114776190D01*
X105880952Y-114871428D01*
X105928571Y-114919047D01*
X106023809Y-114966666D01*
X106261904Y-114966666D01*
X106357142Y-114919047D01*
X106404761Y-114871428D01*
X106452380Y-114776190D01*
X106452380Y-114538095D01*
X106404761Y-114442857D01*
X106357142Y-114395238D01*
X103761904Y-87952380D02*
X103190476Y-87952380D01*
X103476190Y-88952380D02*
X103476190Y-87952380D01*
X102857142Y-88952380D02*
X102857142Y-87952380D01*
X102476190Y-87952380D01*
X102380952Y-88000000D01*
X102333333Y-88047619D01*
X102285714Y-88142857D01*
X102285714Y-88285714D01*
X102333333Y-88380952D01*
X102380952Y-88428571D01*
X102476190Y-88476190D01*
X102857142Y-88476190D01*
X101428571Y-87952380D02*
X101619047Y-87952380D01*
X101714285Y-88000000D01*
X101761904Y-88047619D01*
X101857142Y-88190476D01*
X101904761Y-88380952D01*
X101904761Y-88761904D01*
X101857142Y-88857142D01*
X101809523Y-88904761D01*
X101714285Y-88952380D01*
X101523809Y-88952380D01*
X101428571Y-88904761D01*
X101380952Y-88857142D01*
X101333333Y-88761904D01*
X101333333Y-88523809D01*
X101380952Y-88428571D01*
X101428571Y-88380952D01*
X101523809Y-88333333D01*
X101714285Y-88333333D01*
X101809523Y-88380952D01*
X101857142Y-88428571D01*
X101904761Y-88523809D01*
X99761904Y-74952380D02*
X99190476Y-74952380D01*
X99476190Y-75952380D02*
X99476190Y-74952380D01*
X98857142Y-75952380D02*
X98857142Y-74952380D01*
X98476190Y-74952380D01*
X98380952Y-75000000D01*
X98333333Y-75047619D01*
X98285714Y-75142857D01*
X98285714Y-75285714D01*
X98333333Y-75380952D01*
X98380952Y-75428571D01*
X98476190Y-75476190D01*
X98857142Y-75476190D01*
X97952380Y-74952380D02*
X97285714Y-74952380D01*
X97714285Y-75952380D01*
X114952380Y-114538095D02*
X114952380Y-115109523D01*
X115952380Y-114823809D02*
X114952380Y-114823809D01*
X115952380Y-115442857D02*
X114952380Y-115442857D01*
X114952380Y-115823809D01*
X115000000Y-115919047D01*
X115047619Y-115966666D01*
X115142857Y-116014285D01*
X115285714Y-116014285D01*
X115380952Y-115966666D01*
X115428571Y-115919047D01*
X115476190Y-115823809D01*
X115476190Y-115442857D01*
X115380952Y-116585714D02*
X115333333Y-116490476D01*
X115285714Y-116442857D01*
X115190476Y-116395238D01*
X115142857Y-116395238D01*
X115047619Y-116442857D01*
X115000000Y-116490476D01*
X114952380Y-116585714D01*
X114952380Y-116776190D01*
X115000000Y-116871428D01*
X115047619Y-116919047D01*
X115142857Y-116966666D01*
X115190476Y-116966666D01*
X115285714Y-116919047D01*
X115333333Y-116871428D01*
X115380952Y-116776190D01*
X115380952Y-116585714D01*
X115428571Y-116490476D01*
X115476190Y-116442857D01*
X115571428Y-116395238D01*
X115761904Y-116395238D01*
X115857142Y-116442857D01*
X115904761Y-116490476D01*
X115952380Y-116585714D01*
X115952380Y-116776190D01*
X115904761Y-116871428D01*
X115857142Y-116919047D01*
X115761904Y-116966666D01*
X115571428Y-116966666D01*
X115476190Y-116919047D01*
X115428571Y-116871428D01*
X115380952Y-116776190D01*
X104261904Y-74952380D02*
X103690476Y-74952380D01*
X103976190Y-75952380D02*
X103976190Y-74952380D01*
X103357142Y-75952380D02*
X103357142Y-74952380D01*
X102976190Y-74952380D01*
X102880952Y-75000000D01*
X102833333Y-75047619D01*
X102785714Y-75142857D01*
X102785714Y-75285714D01*
X102833333Y-75380952D01*
X102880952Y-75428571D01*
X102976190Y-75476190D01*
X103357142Y-75476190D01*
X102309523Y-75952380D02*
X102119047Y-75952380D01*
X102023809Y-75904761D01*
X101976190Y-75857142D01*
X101880952Y-75714285D01*
X101833333Y-75523809D01*
X101833333Y-75142857D01*
X101880952Y-75047619D01*
X101928571Y-75000000D01*
X102023809Y-74952380D01*
X102214285Y-74952380D01*
X102309523Y-75000000D01*
X102357142Y-75047619D01*
X102404761Y-75142857D01*
X102404761Y-75380952D01*
X102357142Y-75476190D01*
X102309523Y-75523809D01*
X102214285Y-75571428D01*
X102023809Y-75571428D01*
X101928571Y-75523809D01*
X101880952Y-75476190D01*
X101833333Y-75380952D01*
M02*
