M48
; DRILL file {KiCad (5.1.2)-1} date 2019/07/19 10:41:02
; FORMAT={-:-/ absolute / metric / decimal}
; #@! TF.CreationDate,2019-07-19T10:41:02+09:00
; #@! TF.GenerationSoftware,Kicad,Pcbnew,(5.1.2)-1
FMAT,2
METRIC
T1C0.400
T2C0.700
T3C0.750
T4C0.800
T5C0.900
T6C1.000
T7C1.040
T8C1.200
T9C1.270
T10C0.800
T11C0.991
T12C1.702
T13C2.200
T14C3.429
%
G90
G05
T1
X92.0Y-80.25
X92.0Y-114.25
X92.75Y-88.5
X98.0Y-128.0
X99.25Y-128.0
X100.25Y-98.5
X100.5Y-80.25
X100.5Y-114.25
X102.228Y-112.264
X103.886Y-119.634
X103.886Y-120.904
X103.886Y-122.174
X103.886Y-123.444
X103.886Y-124.714
X103.886Y-125.984
X103.886Y-127.254
X108.966Y-119.634
X108.966Y-120.904
X108.966Y-122.174
X108.966Y-123.444
X108.966Y-124.714
X108.966Y-125.984
X108.966Y-127.254
X123.952Y-85.09
X123.952Y-86.36
X123.952Y-87.63
X123.952Y-88.9
X123.952Y-90.17
X123.952Y-91.44
X123.952Y-92.71
X129.032Y-85.09
X129.032Y-86.36
X129.032Y-87.63
X129.032Y-88.9
X129.032Y-90.17
X129.032Y-91.44
X129.032Y-92.71
X144.261Y-122.608
X156.093Y-114.259
X164.167Y-97.611
T2
X121.0Y-111.5
X121.0Y-116.58
X115.5Y-106.42
X115.5Y-111.5
X113.0Y-125.0
X118.08Y-125.0
X111.5Y-111.5
X111.5Y-116.58
X106.0Y-106.42
X106.0Y-111.5
X115.5Y-98.92
X115.5Y-104.0
X108.5Y-106.42
X108.5Y-111.5
X113.0Y-120.0
X118.08Y-120.0
X106.0Y-84.0
X106.0Y-89.08
X118.0Y-106.42
X118.0Y-111.5
X106.0Y-98.92
X106.0Y-104.0
X113.0Y-122.0
X118.08Y-122.0
X107.92Y-75.5
X113.0Y-75.5
X113.0Y-127.0
X118.08Y-127.0
X115.42Y-75.5
X120.5Y-75.5
X115.5Y-83.92
X115.5Y-89.0
X115.5Y-91.42
X115.5Y-96.5
X106.0Y-91.42
X106.0Y-96.5
T3
X176.5Y-119.5
X176.5Y-121.5
T4
X111.5Y-106.5
X111.5Y-109.0
X151.0Y-73.38
X151.0Y-81.0
X153.54Y-73.38
X153.54Y-81.0
X156.08Y-73.38
X156.08Y-81.0
X158.62Y-73.38
X158.62Y-81.0
X161.16Y-73.38
X161.16Y-81.0
X163.7Y-73.38
X163.7Y-81.0
X166.24Y-73.38
X166.24Y-81.0
X168.78Y-73.38
X168.78Y-81.0
X115.5Y-72.5
X118.0Y-72.5
X115.5Y-79.0
X115.5Y-81.5
X176.0Y-85.0
X176.0Y-87.5
X110.5Y-72.5
X113.0Y-72.5
X121.0Y-106.5
X121.0Y-109.0
X156.0Y-86.88
X156.0Y-94.5
X163.62Y-86.88
X163.62Y-94.5
X147.5Y-73.0
X147.5Y-75.5
X106.0Y-79.0
X106.0Y-81.5
T5
X160.0Y-101.46
X160.0Y-104.0
X168.5Y-101.46
X168.5Y-104.0
X151.5Y-101.46
X151.5Y-104.0
T6
X97.5Y-124.0
X118.0Y-116.5
X126.5Y-74.0
X129.04Y-74.0
X98.5Y-73.0
X111.0Y-78.5
X108.5Y-114.5
X104.0Y-115.5
X103.0Y-73.0
X94.0Y-99.5
X102.5Y-86.0
X177.038Y-96.139
X177.038Y-98.679
X177.038Y-101.219
X177.038Y-103.759
X137.302Y-76.454
X137.302Y-78.994
X137.302Y-81.534
X137.302Y-84.074
X137.302Y-86.614
X137.302Y-89.154
X137.302Y-91.694
X137.302Y-94.234
X137.302Y-96.774
X137.302Y-99.314
X137.302Y-101.854
X137.302Y-104.394
X137.302Y-106.934
X137.302Y-109.474
X137.302Y-112.014
X137.302Y-114.554
X137.302Y-117.094
X137.302Y-119.634
X137.302Y-122.174
X137.302Y-124.714
X139.202Y-75.184
X139.202Y-77.724
X139.202Y-80.264
X139.202Y-82.804
X139.202Y-85.344
X139.202Y-87.884
X139.202Y-90.424
X139.202Y-92.964
X139.202Y-95.504
X139.202Y-98.044
X139.202Y-100.584
X139.202Y-103.124
X139.202Y-105.664
X139.202Y-108.204
X139.202Y-110.744
X139.202Y-113.284
X139.202Y-115.824
X139.202Y-118.364
X139.202Y-120.904
X139.202Y-123.444
X141.102Y-76.454
X141.102Y-78.994
X141.102Y-81.534
X141.102Y-84.074
X141.102Y-86.614
X141.102Y-89.154
X141.102Y-91.694
X141.102Y-94.234
X141.102Y-96.774
X141.102Y-99.314
X141.102Y-101.854
X141.102Y-104.394
X141.102Y-106.934
X141.102Y-109.474
X141.102Y-112.014
X141.102Y-114.554
X141.102Y-117.094
X141.102Y-119.634
X141.102Y-122.174
X141.102Y-124.714
X143.002Y-75.184
X143.002Y-77.724
X143.002Y-80.264
X143.002Y-82.804
X143.002Y-85.344
X143.002Y-87.884
X143.002Y-90.424
X143.002Y-92.964
X143.002Y-95.504
X143.002Y-98.044
X143.002Y-100.584
X143.002Y-103.124
X143.002Y-105.664
X143.002Y-108.204
X143.002Y-110.744
X143.002Y-113.284
X143.002Y-115.824
X143.002Y-118.364
X143.002Y-120.904
X143.002Y-123.444
T7
X147.3Y-82.54
X147.3Y-85.08
X147.3Y-87.62
X147.3Y-95.24
X147.3Y-97.78
X147.3Y-100.32
X147.3Y-102.86
X147.3Y-105.4
X147.3Y-107.94
X147.3Y-110.48
X147.3Y-113.02
X147.3Y-120.64
X172.7Y-82.54
X172.7Y-85.08
X172.7Y-87.62
X172.7Y-90.16
X172.7Y-92.7
X172.7Y-95.24
X172.7Y-97.78
X172.7Y-100.32
X172.7Y-107.94
X172.7Y-110.48
X172.7Y-113.02
X172.7Y-115.56
X172.7Y-118.1
X172.7Y-128.26
T8
X95.0Y-79.0
X95.0Y-81.5
X95.0Y-84.0
X97.5Y-79.0
X97.5Y-81.5
X97.5Y-84.0
X95.0Y-115.5
X95.0Y-118.0
X95.0Y-120.5
X97.5Y-115.5
X97.5Y-118.0
X97.5Y-120.5
T9
X155.0Y-121.8
X160.0Y-123.9
T10
X147.3Y-90.16
X147.3Y-92.7
X147.3Y-115.56
X147.3Y-118.1
X147.3Y-123.18
X147.3Y-125.72
X147.3Y-128.26
X172.7Y-102.86
X172.7Y-105.4
X172.7Y-120.64
X172.7Y-123.18
X172.7Y-125.72
T11
X165.22Y-113.8
T12
X154.5Y-118.0
X165.5Y-118.0
T13
X93.5Y-126.5
X93.5Y-73.5
X176.5Y-73.5
X176.5Y-126.5
T14
X160.0Y-118.0
T4
G00X91.2Y-91.9
M15
G01X91.2Y-93.1
M16
G05
G00X93.7Y-93.9
M15
G01X93.7Y-95.1
M16
G05
G00X97.4Y-91.9
M15
G01X97.4Y-93.1
M16
G05
G00X99.3Y-93.9
M15
G01X99.3Y-95.1
M16
G05
G00X103.0Y-91.9
M15
G01X103.0Y-93.1
M16
G05
G00X91.2Y-107.4
M15
G01X91.2Y-108.6
M16
G05
G00X93.7Y-109.4
M15
G01X93.7Y-110.6
M16
G05
G00X97.4Y-107.4
M15
G01X97.4Y-108.6
M16
G05
G00X99.3Y-109.4
M15
G01X99.3Y-110.6
M16
G05
G00X103.0Y-107.4
M15
G01X103.0Y-108.6
M16
G05
T0
M30
