G04 #@! TF.GenerationSoftware,KiCad,Pcbnew,(5.1.2)-1*
G04 #@! TF.CreationDate,2019-07-19T10:40:57+09:00*
G04 #@! TF.ProjectId,Chip_da_Tunetaro,43686970-5f64-4615-9f54-756e65746172,rev?*
G04 #@! TF.SameCoordinates,Original*
G04 #@! TF.FileFunction,Paste,Bot*
G04 #@! TF.FilePolarity,Positive*
%FSLAX46Y46*%
G04 Gerber Fmt 4.6, Leading zero omitted, Abs format (unit mm)*
G04 Created by KiCad (PCBNEW (5.1.2)-1) date 2019-07-19 10:40:57*
%MOMM*%
%LPD*%
G04 APERTURE LIST*
%ADD10R,0.400000X0.600000*%
%ADD11R,0.300000X0.600000*%
%ADD12C,0.100000*%
%ADD13C,0.600000*%
G04 APERTURE END LIST*
D10*
X160800000Y-112700000D03*
D11*
X160250000Y-112700000D03*
X159750000Y-112700000D03*
D10*
X159200000Y-112700000D03*
X159200000Y-113800000D03*
D11*
X159750000Y-113800000D03*
X160250000Y-113800000D03*
D10*
X160800000Y-113800000D03*
D12*
G36*
X109740703Y-126954722D02*
G01*
X109755264Y-126956882D01*
X109769543Y-126960459D01*
X109783403Y-126965418D01*
X109796710Y-126971712D01*
X109809336Y-126979280D01*
X109821159Y-126988048D01*
X109832066Y-126997934D01*
X109841952Y-127008841D01*
X109850720Y-127020664D01*
X109858288Y-127033290D01*
X109864582Y-127046597D01*
X109869541Y-127060457D01*
X109873118Y-127074736D01*
X109875278Y-127089297D01*
X109876000Y-127104000D01*
X109876000Y-127404000D01*
X109875278Y-127418703D01*
X109873118Y-127433264D01*
X109869541Y-127447543D01*
X109864582Y-127461403D01*
X109858288Y-127474710D01*
X109850720Y-127487336D01*
X109841952Y-127499159D01*
X109832066Y-127510066D01*
X109821159Y-127519952D01*
X109809336Y-127528720D01*
X109796710Y-127536288D01*
X109783403Y-127542582D01*
X109769543Y-127547541D01*
X109755264Y-127551118D01*
X109740703Y-127553278D01*
X109726000Y-127554000D01*
X108076000Y-127554000D01*
X108061297Y-127553278D01*
X108046736Y-127551118D01*
X108032457Y-127547541D01*
X108018597Y-127542582D01*
X108005290Y-127536288D01*
X107992664Y-127528720D01*
X107980841Y-127519952D01*
X107969934Y-127510066D01*
X107960048Y-127499159D01*
X107951280Y-127487336D01*
X107943712Y-127474710D01*
X107937418Y-127461403D01*
X107932459Y-127447543D01*
X107928882Y-127433264D01*
X107926722Y-127418703D01*
X107926000Y-127404000D01*
X107926000Y-127104000D01*
X107926722Y-127089297D01*
X107928882Y-127074736D01*
X107932459Y-127060457D01*
X107937418Y-127046597D01*
X107943712Y-127033290D01*
X107951280Y-127020664D01*
X107960048Y-127008841D01*
X107969934Y-126997934D01*
X107980841Y-126988048D01*
X107992664Y-126979280D01*
X108005290Y-126971712D01*
X108018597Y-126965418D01*
X108032457Y-126960459D01*
X108046736Y-126956882D01*
X108061297Y-126954722D01*
X108076000Y-126954000D01*
X109726000Y-126954000D01*
X109740703Y-126954722D01*
X109740703Y-126954722D01*
G37*
D13*
X108901000Y-127254000D03*
D12*
G36*
X109740703Y-125684722D02*
G01*
X109755264Y-125686882D01*
X109769543Y-125690459D01*
X109783403Y-125695418D01*
X109796710Y-125701712D01*
X109809336Y-125709280D01*
X109821159Y-125718048D01*
X109832066Y-125727934D01*
X109841952Y-125738841D01*
X109850720Y-125750664D01*
X109858288Y-125763290D01*
X109864582Y-125776597D01*
X109869541Y-125790457D01*
X109873118Y-125804736D01*
X109875278Y-125819297D01*
X109876000Y-125834000D01*
X109876000Y-126134000D01*
X109875278Y-126148703D01*
X109873118Y-126163264D01*
X109869541Y-126177543D01*
X109864582Y-126191403D01*
X109858288Y-126204710D01*
X109850720Y-126217336D01*
X109841952Y-126229159D01*
X109832066Y-126240066D01*
X109821159Y-126249952D01*
X109809336Y-126258720D01*
X109796710Y-126266288D01*
X109783403Y-126272582D01*
X109769543Y-126277541D01*
X109755264Y-126281118D01*
X109740703Y-126283278D01*
X109726000Y-126284000D01*
X108076000Y-126284000D01*
X108061297Y-126283278D01*
X108046736Y-126281118D01*
X108032457Y-126277541D01*
X108018597Y-126272582D01*
X108005290Y-126266288D01*
X107992664Y-126258720D01*
X107980841Y-126249952D01*
X107969934Y-126240066D01*
X107960048Y-126229159D01*
X107951280Y-126217336D01*
X107943712Y-126204710D01*
X107937418Y-126191403D01*
X107932459Y-126177543D01*
X107928882Y-126163264D01*
X107926722Y-126148703D01*
X107926000Y-126134000D01*
X107926000Y-125834000D01*
X107926722Y-125819297D01*
X107928882Y-125804736D01*
X107932459Y-125790457D01*
X107937418Y-125776597D01*
X107943712Y-125763290D01*
X107951280Y-125750664D01*
X107960048Y-125738841D01*
X107969934Y-125727934D01*
X107980841Y-125718048D01*
X107992664Y-125709280D01*
X108005290Y-125701712D01*
X108018597Y-125695418D01*
X108032457Y-125690459D01*
X108046736Y-125686882D01*
X108061297Y-125684722D01*
X108076000Y-125684000D01*
X109726000Y-125684000D01*
X109740703Y-125684722D01*
X109740703Y-125684722D01*
G37*
D13*
X108901000Y-125984000D03*
D12*
G36*
X109740703Y-124414722D02*
G01*
X109755264Y-124416882D01*
X109769543Y-124420459D01*
X109783403Y-124425418D01*
X109796710Y-124431712D01*
X109809336Y-124439280D01*
X109821159Y-124448048D01*
X109832066Y-124457934D01*
X109841952Y-124468841D01*
X109850720Y-124480664D01*
X109858288Y-124493290D01*
X109864582Y-124506597D01*
X109869541Y-124520457D01*
X109873118Y-124534736D01*
X109875278Y-124549297D01*
X109876000Y-124564000D01*
X109876000Y-124864000D01*
X109875278Y-124878703D01*
X109873118Y-124893264D01*
X109869541Y-124907543D01*
X109864582Y-124921403D01*
X109858288Y-124934710D01*
X109850720Y-124947336D01*
X109841952Y-124959159D01*
X109832066Y-124970066D01*
X109821159Y-124979952D01*
X109809336Y-124988720D01*
X109796710Y-124996288D01*
X109783403Y-125002582D01*
X109769543Y-125007541D01*
X109755264Y-125011118D01*
X109740703Y-125013278D01*
X109726000Y-125014000D01*
X108076000Y-125014000D01*
X108061297Y-125013278D01*
X108046736Y-125011118D01*
X108032457Y-125007541D01*
X108018597Y-125002582D01*
X108005290Y-124996288D01*
X107992664Y-124988720D01*
X107980841Y-124979952D01*
X107969934Y-124970066D01*
X107960048Y-124959159D01*
X107951280Y-124947336D01*
X107943712Y-124934710D01*
X107937418Y-124921403D01*
X107932459Y-124907543D01*
X107928882Y-124893264D01*
X107926722Y-124878703D01*
X107926000Y-124864000D01*
X107926000Y-124564000D01*
X107926722Y-124549297D01*
X107928882Y-124534736D01*
X107932459Y-124520457D01*
X107937418Y-124506597D01*
X107943712Y-124493290D01*
X107951280Y-124480664D01*
X107960048Y-124468841D01*
X107969934Y-124457934D01*
X107980841Y-124448048D01*
X107992664Y-124439280D01*
X108005290Y-124431712D01*
X108018597Y-124425418D01*
X108032457Y-124420459D01*
X108046736Y-124416882D01*
X108061297Y-124414722D01*
X108076000Y-124414000D01*
X109726000Y-124414000D01*
X109740703Y-124414722D01*
X109740703Y-124414722D01*
G37*
D13*
X108901000Y-124714000D03*
D12*
G36*
X109740703Y-123144722D02*
G01*
X109755264Y-123146882D01*
X109769543Y-123150459D01*
X109783403Y-123155418D01*
X109796710Y-123161712D01*
X109809336Y-123169280D01*
X109821159Y-123178048D01*
X109832066Y-123187934D01*
X109841952Y-123198841D01*
X109850720Y-123210664D01*
X109858288Y-123223290D01*
X109864582Y-123236597D01*
X109869541Y-123250457D01*
X109873118Y-123264736D01*
X109875278Y-123279297D01*
X109876000Y-123294000D01*
X109876000Y-123594000D01*
X109875278Y-123608703D01*
X109873118Y-123623264D01*
X109869541Y-123637543D01*
X109864582Y-123651403D01*
X109858288Y-123664710D01*
X109850720Y-123677336D01*
X109841952Y-123689159D01*
X109832066Y-123700066D01*
X109821159Y-123709952D01*
X109809336Y-123718720D01*
X109796710Y-123726288D01*
X109783403Y-123732582D01*
X109769543Y-123737541D01*
X109755264Y-123741118D01*
X109740703Y-123743278D01*
X109726000Y-123744000D01*
X108076000Y-123744000D01*
X108061297Y-123743278D01*
X108046736Y-123741118D01*
X108032457Y-123737541D01*
X108018597Y-123732582D01*
X108005290Y-123726288D01*
X107992664Y-123718720D01*
X107980841Y-123709952D01*
X107969934Y-123700066D01*
X107960048Y-123689159D01*
X107951280Y-123677336D01*
X107943712Y-123664710D01*
X107937418Y-123651403D01*
X107932459Y-123637543D01*
X107928882Y-123623264D01*
X107926722Y-123608703D01*
X107926000Y-123594000D01*
X107926000Y-123294000D01*
X107926722Y-123279297D01*
X107928882Y-123264736D01*
X107932459Y-123250457D01*
X107937418Y-123236597D01*
X107943712Y-123223290D01*
X107951280Y-123210664D01*
X107960048Y-123198841D01*
X107969934Y-123187934D01*
X107980841Y-123178048D01*
X107992664Y-123169280D01*
X108005290Y-123161712D01*
X108018597Y-123155418D01*
X108032457Y-123150459D01*
X108046736Y-123146882D01*
X108061297Y-123144722D01*
X108076000Y-123144000D01*
X109726000Y-123144000D01*
X109740703Y-123144722D01*
X109740703Y-123144722D01*
G37*
D13*
X108901000Y-123444000D03*
D12*
G36*
X109740703Y-121874722D02*
G01*
X109755264Y-121876882D01*
X109769543Y-121880459D01*
X109783403Y-121885418D01*
X109796710Y-121891712D01*
X109809336Y-121899280D01*
X109821159Y-121908048D01*
X109832066Y-121917934D01*
X109841952Y-121928841D01*
X109850720Y-121940664D01*
X109858288Y-121953290D01*
X109864582Y-121966597D01*
X109869541Y-121980457D01*
X109873118Y-121994736D01*
X109875278Y-122009297D01*
X109876000Y-122024000D01*
X109876000Y-122324000D01*
X109875278Y-122338703D01*
X109873118Y-122353264D01*
X109869541Y-122367543D01*
X109864582Y-122381403D01*
X109858288Y-122394710D01*
X109850720Y-122407336D01*
X109841952Y-122419159D01*
X109832066Y-122430066D01*
X109821159Y-122439952D01*
X109809336Y-122448720D01*
X109796710Y-122456288D01*
X109783403Y-122462582D01*
X109769543Y-122467541D01*
X109755264Y-122471118D01*
X109740703Y-122473278D01*
X109726000Y-122474000D01*
X108076000Y-122474000D01*
X108061297Y-122473278D01*
X108046736Y-122471118D01*
X108032457Y-122467541D01*
X108018597Y-122462582D01*
X108005290Y-122456288D01*
X107992664Y-122448720D01*
X107980841Y-122439952D01*
X107969934Y-122430066D01*
X107960048Y-122419159D01*
X107951280Y-122407336D01*
X107943712Y-122394710D01*
X107937418Y-122381403D01*
X107932459Y-122367543D01*
X107928882Y-122353264D01*
X107926722Y-122338703D01*
X107926000Y-122324000D01*
X107926000Y-122024000D01*
X107926722Y-122009297D01*
X107928882Y-121994736D01*
X107932459Y-121980457D01*
X107937418Y-121966597D01*
X107943712Y-121953290D01*
X107951280Y-121940664D01*
X107960048Y-121928841D01*
X107969934Y-121917934D01*
X107980841Y-121908048D01*
X107992664Y-121899280D01*
X108005290Y-121891712D01*
X108018597Y-121885418D01*
X108032457Y-121880459D01*
X108046736Y-121876882D01*
X108061297Y-121874722D01*
X108076000Y-121874000D01*
X109726000Y-121874000D01*
X109740703Y-121874722D01*
X109740703Y-121874722D01*
G37*
D13*
X108901000Y-122174000D03*
D12*
G36*
X109740703Y-120604722D02*
G01*
X109755264Y-120606882D01*
X109769543Y-120610459D01*
X109783403Y-120615418D01*
X109796710Y-120621712D01*
X109809336Y-120629280D01*
X109821159Y-120638048D01*
X109832066Y-120647934D01*
X109841952Y-120658841D01*
X109850720Y-120670664D01*
X109858288Y-120683290D01*
X109864582Y-120696597D01*
X109869541Y-120710457D01*
X109873118Y-120724736D01*
X109875278Y-120739297D01*
X109876000Y-120754000D01*
X109876000Y-121054000D01*
X109875278Y-121068703D01*
X109873118Y-121083264D01*
X109869541Y-121097543D01*
X109864582Y-121111403D01*
X109858288Y-121124710D01*
X109850720Y-121137336D01*
X109841952Y-121149159D01*
X109832066Y-121160066D01*
X109821159Y-121169952D01*
X109809336Y-121178720D01*
X109796710Y-121186288D01*
X109783403Y-121192582D01*
X109769543Y-121197541D01*
X109755264Y-121201118D01*
X109740703Y-121203278D01*
X109726000Y-121204000D01*
X108076000Y-121204000D01*
X108061297Y-121203278D01*
X108046736Y-121201118D01*
X108032457Y-121197541D01*
X108018597Y-121192582D01*
X108005290Y-121186288D01*
X107992664Y-121178720D01*
X107980841Y-121169952D01*
X107969934Y-121160066D01*
X107960048Y-121149159D01*
X107951280Y-121137336D01*
X107943712Y-121124710D01*
X107937418Y-121111403D01*
X107932459Y-121097543D01*
X107928882Y-121083264D01*
X107926722Y-121068703D01*
X107926000Y-121054000D01*
X107926000Y-120754000D01*
X107926722Y-120739297D01*
X107928882Y-120724736D01*
X107932459Y-120710457D01*
X107937418Y-120696597D01*
X107943712Y-120683290D01*
X107951280Y-120670664D01*
X107960048Y-120658841D01*
X107969934Y-120647934D01*
X107980841Y-120638048D01*
X107992664Y-120629280D01*
X108005290Y-120621712D01*
X108018597Y-120615418D01*
X108032457Y-120610459D01*
X108046736Y-120606882D01*
X108061297Y-120604722D01*
X108076000Y-120604000D01*
X109726000Y-120604000D01*
X109740703Y-120604722D01*
X109740703Y-120604722D01*
G37*
D13*
X108901000Y-120904000D03*
D12*
G36*
X109740703Y-119334722D02*
G01*
X109755264Y-119336882D01*
X109769543Y-119340459D01*
X109783403Y-119345418D01*
X109796710Y-119351712D01*
X109809336Y-119359280D01*
X109821159Y-119368048D01*
X109832066Y-119377934D01*
X109841952Y-119388841D01*
X109850720Y-119400664D01*
X109858288Y-119413290D01*
X109864582Y-119426597D01*
X109869541Y-119440457D01*
X109873118Y-119454736D01*
X109875278Y-119469297D01*
X109876000Y-119484000D01*
X109876000Y-119784000D01*
X109875278Y-119798703D01*
X109873118Y-119813264D01*
X109869541Y-119827543D01*
X109864582Y-119841403D01*
X109858288Y-119854710D01*
X109850720Y-119867336D01*
X109841952Y-119879159D01*
X109832066Y-119890066D01*
X109821159Y-119899952D01*
X109809336Y-119908720D01*
X109796710Y-119916288D01*
X109783403Y-119922582D01*
X109769543Y-119927541D01*
X109755264Y-119931118D01*
X109740703Y-119933278D01*
X109726000Y-119934000D01*
X108076000Y-119934000D01*
X108061297Y-119933278D01*
X108046736Y-119931118D01*
X108032457Y-119927541D01*
X108018597Y-119922582D01*
X108005290Y-119916288D01*
X107992664Y-119908720D01*
X107980841Y-119899952D01*
X107969934Y-119890066D01*
X107960048Y-119879159D01*
X107951280Y-119867336D01*
X107943712Y-119854710D01*
X107937418Y-119841403D01*
X107932459Y-119827543D01*
X107928882Y-119813264D01*
X107926722Y-119798703D01*
X107926000Y-119784000D01*
X107926000Y-119484000D01*
X107926722Y-119469297D01*
X107928882Y-119454736D01*
X107932459Y-119440457D01*
X107937418Y-119426597D01*
X107943712Y-119413290D01*
X107951280Y-119400664D01*
X107960048Y-119388841D01*
X107969934Y-119377934D01*
X107980841Y-119368048D01*
X107992664Y-119359280D01*
X108005290Y-119351712D01*
X108018597Y-119345418D01*
X108032457Y-119340459D01*
X108046736Y-119336882D01*
X108061297Y-119334722D01*
X108076000Y-119334000D01*
X109726000Y-119334000D01*
X109740703Y-119334722D01*
X109740703Y-119334722D01*
G37*
D13*
X108901000Y-119634000D03*
D12*
G36*
X104790703Y-119334722D02*
G01*
X104805264Y-119336882D01*
X104819543Y-119340459D01*
X104833403Y-119345418D01*
X104846710Y-119351712D01*
X104859336Y-119359280D01*
X104871159Y-119368048D01*
X104882066Y-119377934D01*
X104891952Y-119388841D01*
X104900720Y-119400664D01*
X104908288Y-119413290D01*
X104914582Y-119426597D01*
X104919541Y-119440457D01*
X104923118Y-119454736D01*
X104925278Y-119469297D01*
X104926000Y-119484000D01*
X104926000Y-119784000D01*
X104925278Y-119798703D01*
X104923118Y-119813264D01*
X104919541Y-119827543D01*
X104914582Y-119841403D01*
X104908288Y-119854710D01*
X104900720Y-119867336D01*
X104891952Y-119879159D01*
X104882066Y-119890066D01*
X104871159Y-119899952D01*
X104859336Y-119908720D01*
X104846710Y-119916288D01*
X104833403Y-119922582D01*
X104819543Y-119927541D01*
X104805264Y-119931118D01*
X104790703Y-119933278D01*
X104776000Y-119934000D01*
X103126000Y-119934000D01*
X103111297Y-119933278D01*
X103096736Y-119931118D01*
X103082457Y-119927541D01*
X103068597Y-119922582D01*
X103055290Y-119916288D01*
X103042664Y-119908720D01*
X103030841Y-119899952D01*
X103019934Y-119890066D01*
X103010048Y-119879159D01*
X103001280Y-119867336D01*
X102993712Y-119854710D01*
X102987418Y-119841403D01*
X102982459Y-119827543D01*
X102978882Y-119813264D01*
X102976722Y-119798703D01*
X102976000Y-119784000D01*
X102976000Y-119484000D01*
X102976722Y-119469297D01*
X102978882Y-119454736D01*
X102982459Y-119440457D01*
X102987418Y-119426597D01*
X102993712Y-119413290D01*
X103001280Y-119400664D01*
X103010048Y-119388841D01*
X103019934Y-119377934D01*
X103030841Y-119368048D01*
X103042664Y-119359280D01*
X103055290Y-119351712D01*
X103068597Y-119345418D01*
X103082457Y-119340459D01*
X103096736Y-119336882D01*
X103111297Y-119334722D01*
X103126000Y-119334000D01*
X104776000Y-119334000D01*
X104790703Y-119334722D01*
X104790703Y-119334722D01*
G37*
D13*
X103951000Y-119634000D03*
D12*
G36*
X104790703Y-120604722D02*
G01*
X104805264Y-120606882D01*
X104819543Y-120610459D01*
X104833403Y-120615418D01*
X104846710Y-120621712D01*
X104859336Y-120629280D01*
X104871159Y-120638048D01*
X104882066Y-120647934D01*
X104891952Y-120658841D01*
X104900720Y-120670664D01*
X104908288Y-120683290D01*
X104914582Y-120696597D01*
X104919541Y-120710457D01*
X104923118Y-120724736D01*
X104925278Y-120739297D01*
X104926000Y-120754000D01*
X104926000Y-121054000D01*
X104925278Y-121068703D01*
X104923118Y-121083264D01*
X104919541Y-121097543D01*
X104914582Y-121111403D01*
X104908288Y-121124710D01*
X104900720Y-121137336D01*
X104891952Y-121149159D01*
X104882066Y-121160066D01*
X104871159Y-121169952D01*
X104859336Y-121178720D01*
X104846710Y-121186288D01*
X104833403Y-121192582D01*
X104819543Y-121197541D01*
X104805264Y-121201118D01*
X104790703Y-121203278D01*
X104776000Y-121204000D01*
X103126000Y-121204000D01*
X103111297Y-121203278D01*
X103096736Y-121201118D01*
X103082457Y-121197541D01*
X103068597Y-121192582D01*
X103055290Y-121186288D01*
X103042664Y-121178720D01*
X103030841Y-121169952D01*
X103019934Y-121160066D01*
X103010048Y-121149159D01*
X103001280Y-121137336D01*
X102993712Y-121124710D01*
X102987418Y-121111403D01*
X102982459Y-121097543D01*
X102978882Y-121083264D01*
X102976722Y-121068703D01*
X102976000Y-121054000D01*
X102976000Y-120754000D01*
X102976722Y-120739297D01*
X102978882Y-120724736D01*
X102982459Y-120710457D01*
X102987418Y-120696597D01*
X102993712Y-120683290D01*
X103001280Y-120670664D01*
X103010048Y-120658841D01*
X103019934Y-120647934D01*
X103030841Y-120638048D01*
X103042664Y-120629280D01*
X103055290Y-120621712D01*
X103068597Y-120615418D01*
X103082457Y-120610459D01*
X103096736Y-120606882D01*
X103111297Y-120604722D01*
X103126000Y-120604000D01*
X104776000Y-120604000D01*
X104790703Y-120604722D01*
X104790703Y-120604722D01*
G37*
D13*
X103951000Y-120904000D03*
D12*
G36*
X104790703Y-121874722D02*
G01*
X104805264Y-121876882D01*
X104819543Y-121880459D01*
X104833403Y-121885418D01*
X104846710Y-121891712D01*
X104859336Y-121899280D01*
X104871159Y-121908048D01*
X104882066Y-121917934D01*
X104891952Y-121928841D01*
X104900720Y-121940664D01*
X104908288Y-121953290D01*
X104914582Y-121966597D01*
X104919541Y-121980457D01*
X104923118Y-121994736D01*
X104925278Y-122009297D01*
X104926000Y-122024000D01*
X104926000Y-122324000D01*
X104925278Y-122338703D01*
X104923118Y-122353264D01*
X104919541Y-122367543D01*
X104914582Y-122381403D01*
X104908288Y-122394710D01*
X104900720Y-122407336D01*
X104891952Y-122419159D01*
X104882066Y-122430066D01*
X104871159Y-122439952D01*
X104859336Y-122448720D01*
X104846710Y-122456288D01*
X104833403Y-122462582D01*
X104819543Y-122467541D01*
X104805264Y-122471118D01*
X104790703Y-122473278D01*
X104776000Y-122474000D01*
X103126000Y-122474000D01*
X103111297Y-122473278D01*
X103096736Y-122471118D01*
X103082457Y-122467541D01*
X103068597Y-122462582D01*
X103055290Y-122456288D01*
X103042664Y-122448720D01*
X103030841Y-122439952D01*
X103019934Y-122430066D01*
X103010048Y-122419159D01*
X103001280Y-122407336D01*
X102993712Y-122394710D01*
X102987418Y-122381403D01*
X102982459Y-122367543D01*
X102978882Y-122353264D01*
X102976722Y-122338703D01*
X102976000Y-122324000D01*
X102976000Y-122024000D01*
X102976722Y-122009297D01*
X102978882Y-121994736D01*
X102982459Y-121980457D01*
X102987418Y-121966597D01*
X102993712Y-121953290D01*
X103001280Y-121940664D01*
X103010048Y-121928841D01*
X103019934Y-121917934D01*
X103030841Y-121908048D01*
X103042664Y-121899280D01*
X103055290Y-121891712D01*
X103068597Y-121885418D01*
X103082457Y-121880459D01*
X103096736Y-121876882D01*
X103111297Y-121874722D01*
X103126000Y-121874000D01*
X104776000Y-121874000D01*
X104790703Y-121874722D01*
X104790703Y-121874722D01*
G37*
D13*
X103951000Y-122174000D03*
D12*
G36*
X104790703Y-123144722D02*
G01*
X104805264Y-123146882D01*
X104819543Y-123150459D01*
X104833403Y-123155418D01*
X104846710Y-123161712D01*
X104859336Y-123169280D01*
X104871159Y-123178048D01*
X104882066Y-123187934D01*
X104891952Y-123198841D01*
X104900720Y-123210664D01*
X104908288Y-123223290D01*
X104914582Y-123236597D01*
X104919541Y-123250457D01*
X104923118Y-123264736D01*
X104925278Y-123279297D01*
X104926000Y-123294000D01*
X104926000Y-123594000D01*
X104925278Y-123608703D01*
X104923118Y-123623264D01*
X104919541Y-123637543D01*
X104914582Y-123651403D01*
X104908288Y-123664710D01*
X104900720Y-123677336D01*
X104891952Y-123689159D01*
X104882066Y-123700066D01*
X104871159Y-123709952D01*
X104859336Y-123718720D01*
X104846710Y-123726288D01*
X104833403Y-123732582D01*
X104819543Y-123737541D01*
X104805264Y-123741118D01*
X104790703Y-123743278D01*
X104776000Y-123744000D01*
X103126000Y-123744000D01*
X103111297Y-123743278D01*
X103096736Y-123741118D01*
X103082457Y-123737541D01*
X103068597Y-123732582D01*
X103055290Y-123726288D01*
X103042664Y-123718720D01*
X103030841Y-123709952D01*
X103019934Y-123700066D01*
X103010048Y-123689159D01*
X103001280Y-123677336D01*
X102993712Y-123664710D01*
X102987418Y-123651403D01*
X102982459Y-123637543D01*
X102978882Y-123623264D01*
X102976722Y-123608703D01*
X102976000Y-123594000D01*
X102976000Y-123294000D01*
X102976722Y-123279297D01*
X102978882Y-123264736D01*
X102982459Y-123250457D01*
X102987418Y-123236597D01*
X102993712Y-123223290D01*
X103001280Y-123210664D01*
X103010048Y-123198841D01*
X103019934Y-123187934D01*
X103030841Y-123178048D01*
X103042664Y-123169280D01*
X103055290Y-123161712D01*
X103068597Y-123155418D01*
X103082457Y-123150459D01*
X103096736Y-123146882D01*
X103111297Y-123144722D01*
X103126000Y-123144000D01*
X104776000Y-123144000D01*
X104790703Y-123144722D01*
X104790703Y-123144722D01*
G37*
D13*
X103951000Y-123444000D03*
D12*
G36*
X104790703Y-124414722D02*
G01*
X104805264Y-124416882D01*
X104819543Y-124420459D01*
X104833403Y-124425418D01*
X104846710Y-124431712D01*
X104859336Y-124439280D01*
X104871159Y-124448048D01*
X104882066Y-124457934D01*
X104891952Y-124468841D01*
X104900720Y-124480664D01*
X104908288Y-124493290D01*
X104914582Y-124506597D01*
X104919541Y-124520457D01*
X104923118Y-124534736D01*
X104925278Y-124549297D01*
X104926000Y-124564000D01*
X104926000Y-124864000D01*
X104925278Y-124878703D01*
X104923118Y-124893264D01*
X104919541Y-124907543D01*
X104914582Y-124921403D01*
X104908288Y-124934710D01*
X104900720Y-124947336D01*
X104891952Y-124959159D01*
X104882066Y-124970066D01*
X104871159Y-124979952D01*
X104859336Y-124988720D01*
X104846710Y-124996288D01*
X104833403Y-125002582D01*
X104819543Y-125007541D01*
X104805264Y-125011118D01*
X104790703Y-125013278D01*
X104776000Y-125014000D01*
X103126000Y-125014000D01*
X103111297Y-125013278D01*
X103096736Y-125011118D01*
X103082457Y-125007541D01*
X103068597Y-125002582D01*
X103055290Y-124996288D01*
X103042664Y-124988720D01*
X103030841Y-124979952D01*
X103019934Y-124970066D01*
X103010048Y-124959159D01*
X103001280Y-124947336D01*
X102993712Y-124934710D01*
X102987418Y-124921403D01*
X102982459Y-124907543D01*
X102978882Y-124893264D01*
X102976722Y-124878703D01*
X102976000Y-124864000D01*
X102976000Y-124564000D01*
X102976722Y-124549297D01*
X102978882Y-124534736D01*
X102982459Y-124520457D01*
X102987418Y-124506597D01*
X102993712Y-124493290D01*
X103001280Y-124480664D01*
X103010048Y-124468841D01*
X103019934Y-124457934D01*
X103030841Y-124448048D01*
X103042664Y-124439280D01*
X103055290Y-124431712D01*
X103068597Y-124425418D01*
X103082457Y-124420459D01*
X103096736Y-124416882D01*
X103111297Y-124414722D01*
X103126000Y-124414000D01*
X104776000Y-124414000D01*
X104790703Y-124414722D01*
X104790703Y-124414722D01*
G37*
D13*
X103951000Y-124714000D03*
D12*
G36*
X104790703Y-125684722D02*
G01*
X104805264Y-125686882D01*
X104819543Y-125690459D01*
X104833403Y-125695418D01*
X104846710Y-125701712D01*
X104859336Y-125709280D01*
X104871159Y-125718048D01*
X104882066Y-125727934D01*
X104891952Y-125738841D01*
X104900720Y-125750664D01*
X104908288Y-125763290D01*
X104914582Y-125776597D01*
X104919541Y-125790457D01*
X104923118Y-125804736D01*
X104925278Y-125819297D01*
X104926000Y-125834000D01*
X104926000Y-126134000D01*
X104925278Y-126148703D01*
X104923118Y-126163264D01*
X104919541Y-126177543D01*
X104914582Y-126191403D01*
X104908288Y-126204710D01*
X104900720Y-126217336D01*
X104891952Y-126229159D01*
X104882066Y-126240066D01*
X104871159Y-126249952D01*
X104859336Y-126258720D01*
X104846710Y-126266288D01*
X104833403Y-126272582D01*
X104819543Y-126277541D01*
X104805264Y-126281118D01*
X104790703Y-126283278D01*
X104776000Y-126284000D01*
X103126000Y-126284000D01*
X103111297Y-126283278D01*
X103096736Y-126281118D01*
X103082457Y-126277541D01*
X103068597Y-126272582D01*
X103055290Y-126266288D01*
X103042664Y-126258720D01*
X103030841Y-126249952D01*
X103019934Y-126240066D01*
X103010048Y-126229159D01*
X103001280Y-126217336D01*
X102993712Y-126204710D01*
X102987418Y-126191403D01*
X102982459Y-126177543D01*
X102978882Y-126163264D01*
X102976722Y-126148703D01*
X102976000Y-126134000D01*
X102976000Y-125834000D01*
X102976722Y-125819297D01*
X102978882Y-125804736D01*
X102982459Y-125790457D01*
X102987418Y-125776597D01*
X102993712Y-125763290D01*
X103001280Y-125750664D01*
X103010048Y-125738841D01*
X103019934Y-125727934D01*
X103030841Y-125718048D01*
X103042664Y-125709280D01*
X103055290Y-125701712D01*
X103068597Y-125695418D01*
X103082457Y-125690459D01*
X103096736Y-125686882D01*
X103111297Y-125684722D01*
X103126000Y-125684000D01*
X104776000Y-125684000D01*
X104790703Y-125684722D01*
X104790703Y-125684722D01*
G37*
D13*
X103951000Y-125984000D03*
D12*
G36*
X104790703Y-126954722D02*
G01*
X104805264Y-126956882D01*
X104819543Y-126960459D01*
X104833403Y-126965418D01*
X104846710Y-126971712D01*
X104859336Y-126979280D01*
X104871159Y-126988048D01*
X104882066Y-126997934D01*
X104891952Y-127008841D01*
X104900720Y-127020664D01*
X104908288Y-127033290D01*
X104914582Y-127046597D01*
X104919541Y-127060457D01*
X104923118Y-127074736D01*
X104925278Y-127089297D01*
X104926000Y-127104000D01*
X104926000Y-127404000D01*
X104925278Y-127418703D01*
X104923118Y-127433264D01*
X104919541Y-127447543D01*
X104914582Y-127461403D01*
X104908288Y-127474710D01*
X104900720Y-127487336D01*
X104891952Y-127499159D01*
X104882066Y-127510066D01*
X104871159Y-127519952D01*
X104859336Y-127528720D01*
X104846710Y-127536288D01*
X104833403Y-127542582D01*
X104819543Y-127547541D01*
X104805264Y-127551118D01*
X104790703Y-127553278D01*
X104776000Y-127554000D01*
X103126000Y-127554000D01*
X103111297Y-127553278D01*
X103096736Y-127551118D01*
X103082457Y-127547541D01*
X103068597Y-127542582D01*
X103055290Y-127536288D01*
X103042664Y-127528720D01*
X103030841Y-127519952D01*
X103019934Y-127510066D01*
X103010048Y-127499159D01*
X103001280Y-127487336D01*
X102993712Y-127474710D01*
X102987418Y-127461403D01*
X102982459Y-127447543D01*
X102978882Y-127433264D01*
X102976722Y-127418703D01*
X102976000Y-127404000D01*
X102976000Y-127104000D01*
X102976722Y-127089297D01*
X102978882Y-127074736D01*
X102982459Y-127060457D01*
X102987418Y-127046597D01*
X102993712Y-127033290D01*
X103001280Y-127020664D01*
X103010048Y-127008841D01*
X103019934Y-126997934D01*
X103030841Y-126988048D01*
X103042664Y-126979280D01*
X103055290Y-126971712D01*
X103068597Y-126965418D01*
X103082457Y-126960459D01*
X103096736Y-126956882D01*
X103111297Y-126954722D01*
X103126000Y-126954000D01*
X104776000Y-126954000D01*
X104790703Y-126954722D01*
X104790703Y-126954722D01*
G37*
D13*
X103951000Y-127254000D03*
D12*
G36*
X124856703Y-92410722D02*
G01*
X124871264Y-92412882D01*
X124885543Y-92416459D01*
X124899403Y-92421418D01*
X124912710Y-92427712D01*
X124925336Y-92435280D01*
X124937159Y-92444048D01*
X124948066Y-92453934D01*
X124957952Y-92464841D01*
X124966720Y-92476664D01*
X124974288Y-92489290D01*
X124980582Y-92502597D01*
X124985541Y-92516457D01*
X124989118Y-92530736D01*
X124991278Y-92545297D01*
X124992000Y-92560000D01*
X124992000Y-92860000D01*
X124991278Y-92874703D01*
X124989118Y-92889264D01*
X124985541Y-92903543D01*
X124980582Y-92917403D01*
X124974288Y-92930710D01*
X124966720Y-92943336D01*
X124957952Y-92955159D01*
X124948066Y-92966066D01*
X124937159Y-92975952D01*
X124925336Y-92984720D01*
X124912710Y-92992288D01*
X124899403Y-92998582D01*
X124885543Y-93003541D01*
X124871264Y-93007118D01*
X124856703Y-93009278D01*
X124842000Y-93010000D01*
X123192000Y-93010000D01*
X123177297Y-93009278D01*
X123162736Y-93007118D01*
X123148457Y-93003541D01*
X123134597Y-92998582D01*
X123121290Y-92992288D01*
X123108664Y-92984720D01*
X123096841Y-92975952D01*
X123085934Y-92966066D01*
X123076048Y-92955159D01*
X123067280Y-92943336D01*
X123059712Y-92930710D01*
X123053418Y-92917403D01*
X123048459Y-92903543D01*
X123044882Y-92889264D01*
X123042722Y-92874703D01*
X123042000Y-92860000D01*
X123042000Y-92560000D01*
X123042722Y-92545297D01*
X123044882Y-92530736D01*
X123048459Y-92516457D01*
X123053418Y-92502597D01*
X123059712Y-92489290D01*
X123067280Y-92476664D01*
X123076048Y-92464841D01*
X123085934Y-92453934D01*
X123096841Y-92444048D01*
X123108664Y-92435280D01*
X123121290Y-92427712D01*
X123134597Y-92421418D01*
X123148457Y-92416459D01*
X123162736Y-92412882D01*
X123177297Y-92410722D01*
X123192000Y-92410000D01*
X124842000Y-92410000D01*
X124856703Y-92410722D01*
X124856703Y-92410722D01*
G37*
D13*
X124017000Y-92710000D03*
D12*
G36*
X124856703Y-91140722D02*
G01*
X124871264Y-91142882D01*
X124885543Y-91146459D01*
X124899403Y-91151418D01*
X124912710Y-91157712D01*
X124925336Y-91165280D01*
X124937159Y-91174048D01*
X124948066Y-91183934D01*
X124957952Y-91194841D01*
X124966720Y-91206664D01*
X124974288Y-91219290D01*
X124980582Y-91232597D01*
X124985541Y-91246457D01*
X124989118Y-91260736D01*
X124991278Y-91275297D01*
X124992000Y-91290000D01*
X124992000Y-91590000D01*
X124991278Y-91604703D01*
X124989118Y-91619264D01*
X124985541Y-91633543D01*
X124980582Y-91647403D01*
X124974288Y-91660710D01*
X124966720Y-91673336D01*
X124957952Y-91685159D01*
X124948066Y-91696066D01*
X124937159Y-91705952D01*
X124925336Y-91714720D01*
X124912710Y-91722288D01*
X124899403Y-91728582D01*
X124885543Y-91733541D01*
X124871264Y-91737118D01*
X124856703Y-91739278D01*
X124842000Y-91740000D01*
X123192000Y-91740000D01*
X123177297Y-91739278D01*
X123162736Y-91737118D01*
X123148457Y-91733541D01*
X123134597Y-91728582D01*
X123121290Y-91722288D01*
X123108664Y-91714720D01*
X123096841Y-91705952D01*
X123085934Y-91696066D01*
X123076048Y-91685159D01*
X123067280Y-91673336D01*
X123059712Y-91660710D01*
X123053418Y-91647403D01*
X123048459Y-91633543D01*
X123044882Y-91619264D01*
X123042722Y-91604703D01*
X123042000Y-91590000D01*
X123042000Y-91290000D01*
X123042722Y-91275297D01*
X123044882Y-91260736D01*
X123048459Y-91246457D01*
X123053418Y-91232597D01*
X123059712Y-91219290D01*
X123067280Y-91206664D01*
X123076048Y-91194841D01*
X123085934Y-91183934D01*
X123096841Y-91174048D01*
X123108664Y-91165280D01*
X123121290Y-91157712D01*
X123134597Y-91151418D01*
X123148457Y-91146459D01*
X123162736Y-91142882D01*
X123177297Y-91140722D01*
X123192000Y-91140000D01*
X124842000Y-91140000D01*
X124856703Y-91140722D01*
X124856703Y-91140722D01*
G37*
D13*
X124017000Y-91440000D03*
D12*
G36*
X124856703Y-89870722D02*
G01*
X124871264Y-89872882D01*
X124885543Y-89876459D01*
X124899403Y-89881418D01*
X124912710Y-89887712D01*
X124925336Y-89895280D01*
X124937159Y-89904048D01*
X124948066Y-89913934D01*
X124957952Y-89924841D01*
X124966720Y-89936664D01*
X124974288Y-89949290D01*
X124980582Y-89962597D01*
X124985541Y-89976457D01*
X124989118Y-89990736D01*
X124991278Y-90005297D01*
X124992000Y-90020000D01*
X124992000Y-90320000D01*
X124991278Y-90334703D01*
X124989118Y-90349264D01*
X124985541Y-90363543D01*
X124980582Y-90377403D01*
X124974288Y-90390710D01*
X124966720Y-90403336D01*
X124957952Y-90415159D01*
X124948066Y-90426066D01*
X124937159Y-90435952D01*
X124925336Y-90444720D01*
X124912710Y-90452288D01*
X124899403Y-90458582D01*
X124885543Y-90463541D01*
X124871264Y-90467118D01*
X124856703Y-90469278D01*
X124842000Y-90470000D01*
X123192000Y-90470000D01*
X123177297Y-90469278D01*
X123162736Y-90467118D01*
X123148457Y-90463541D01*
X123134597Y-90458582D01*
X123121290Y-90452288D01*
X123108664Y-90444720D01*
X123096841Y-90435952D01*
X123085934Y-90426066D01*
X123076048Y-90415159D01*
X123067280Y-90403336D01*
X123059712Y-90390710D01*
X123053418Y-90377403D01*
X123048459Y-90363543D01*
X123044882Y-90349264D01*
X123042722Y-90334703D01*
X123042000Y-90320000D01*
X123042000Y-90020000D01*
X123042722Y-90005297D01*
X123044882Y-89990736D01*
X123048459Y-89976457D01*
X123053418Y-89962597D01*
X123059712Y-89949290D01*
X123067280Y-89936664D01*
X123076048Y-89924841D01*
X123085934Y-89913934D01*
X123096841Y-89904048D01*
X123108664Y-89895280D01*
X123121290Y-89887712D01*
X123134597Y-89881418D01*
X123148457Y-89876459D01*
X123162736Y-89872882D01*
X123177297Y-89870722D01*
X123192000Y-89870000D01*
X124842000Y-89870000D01*
X124856703Y-89870722D01*
X124856703Y-89870722D01*
G37*
D13*
X124017000Y-90170000D03*
D12*
G36*
X124856703Y-88600722D02*
G01*
X124871264Y-88602882D01*
X124885543Y-88606459D01*
X124899403Y-88611418D01*
X124912710Y-88617712D01*
X124925336Y-88625280D01*
X124937159Y-88634048D01*
X124948066Y-88643934D01*
X124957952Y-88654841D01*
X124966720Y-88666664D01*
X124974288Y-88679290D01*
X124980582Y-88692597D01*
X124985541Y-88706457D01*
X124989118Y-88720736D01*
X124991278Y-88735297D01*
X124992000Y-88750000D01*
X124992000Y-89050000D01*
X124991278Y-89064703D01*
X124989118Y-89079264D01*
X124985541Y-89093543D01*
X124980582Y-89107403D01*
X124974288Y-89120710D01*
X124966720Y-89133336D01*
X124957952Y-89145159D01*
X124948066Y-89156066D01*
X124937159Y-89165952D01*
X124925336Y-89174720D01*
X124912710Y-89182288D01*
X124899403Y-89188582D01*
X124885543Y-89193541D01*
X124871264Y-89197118D01*
X124856703Y-89199278D01*
X124842000Y-89200000D01*
X123192000Y-89200000D01*
X123177297Y-89199278D01*
X123162736Y-89197118D01*
X123148457Y-89193541D01*
X123134597Y-89188582D01*
X123121290Y-89182288D01*
X123108664Y-89174720D01*
X123096841Y-89165952D01*
X123085934Y-89156066D01*
X123076048Y-89145159D01*
X123067280Y-89133336D01*
X123059712Y-89120710D01*
X123053418Y-89107403D01*
X123048459Y-89093543D01*
X123044882Y-89079264D01*
X123042722Y-89064703D01*
X123042000Y-89050000D01*
X123042000Y-88750000D01*
X123042722Y-88735297D01*
X123044882Y-88720736D01*
X123048459Y-88706457D01*
X123053418Y-88692597D01*
X123059712Y-88679290D01*
X123067280Y-88666664D01*
X123076048Y-88654841D01*
X123085934Y-88643934D01*
X123096841Y-88634048D01*
X123108664Y-88625280D01*
X123121290Y-88617712D01*
X123134597Y-88611418D01*
X123148457Y-88606459D01*
X123162736Y-88602882D01*
X123177297Y-88600722D01*
X123192000Y-88600000D01*
X124842000Y-88600000D01*
X124856703Y-88600722D01*
X124856703Y-88600722D01*
G37*
D13*
X124017000Y-88900000D03*
D12*
G36*
X124856703Y-87330722D02*
G01*
X124871264Y-87332882D01*
X124885543Y-87336459D01*
X124899403Y-87341418D01*
X124912710Y-87347712D01*
X124925336Y-87355280D01*
X124937159Y-87364048D01*
X124948066Y-87373934D01*
X124957952Y-87384841D01*
X124966720Y-87396664D01*
X124974288Y-87409290D01*
X124980582Y-87422597D01*
X124985541Y-87436457D01*
X124989118Y-87450736D01*
X124991278Y-87465297D01*
X124992000Y-87480000D01*
X124992000Y-87780000D01*
X124991278Y-87794703D01*
X124989118Y-87809264D01*
X124985541Y-87823543D01*
X124980582Y-87837403D01*
X124974288Y-87850710D01*
X124966720Y-87863336D01*
X124957952Y-87875159D01*
X124948066Y-87886066D01*
X124937159Y-87895952D01*
X124925336Y-87904720D01*
X124912710Y-87912288D01*
X124899403Y-87918582D01*
X124885543Y-87923541D01*
X124871264Y-87927118D01*
X124856703Y-87929278D01*
X124842000Y-87930000D01*
X123192000Y-87930000D01*
X123177297Y-87929278D01*
X123162736Y-87927118D01*
X123148457Y-87923541D01*
X123134597Y-87918582D01*
X123121290Y-87912288D01*
X123108664Y-87904720D01*
X123096841Y-87895952D01*
X123085934Y-87886066D01*
X123076048Y-87875159D01*
X123067280Y-87863336D01*
X123059712Y-87850710D01*
X123053418Y-87837403D01*
X123048459Y-87823543D01*
X123044882Y-87809264D01*
X123042722Y-87794703D01*
X123042000Y-87780000D01*
X123042000Y-87480000D01*
X123042722Y-87465297D01*
X123044882Y-87450736D01*
X123048459Y-87436457D01*
X123053418Y-87422597D01*
X123059712Y-87409290D01*
X123067280Y-87396664D01*
X123076048Y-87384841D01*
X123085934Y-87373934D01*
X123096841Y-87364048D01*
X123108664Y-87355280D01*
X123121290Y-87347712D01*
X123134597Y-87341418D01*
X123148457Y-87336459D01*
X123162736Y-87332882D01*
X123177297Y-87330722D01*
X123192000Y-87330000D01*
X124842000Y-87330000D01*
X124856703Y-87330722D01*
X124856703Y-87330722D01*
G37*
D13*
X124017000Y-87630000D03*
D12*
G36*
X124856703Y-86060722D02*
G01*
X124871264Y-86062882D01*
X124885543Y-86066459D01*
X124899403Y-86071418D01*
X124912710Y-86077712D01*
X124925336Y-86085280D01*
X124937159Y-86094048D01*
X124948066Y-86103934D01*
X124957952Y-86114841D01*
X124966720Y-86126664D01*
X124974288Y-86139290D01*
X124980582Y-86152597D01*
X124985541Y-86166457D01*
X124989118Y-86180736D01*
X124991278Y-86195297D01*
X124992000Y-86210000D01*
X124992000Y-86510000D01*
X124991278Y-86524703D01*
X124989118Y-86539264D01*
X124985541Y-86553543D01*
X124980582Y-86567403D01*
X124974288Y-86580710D01*
X124966720Y-86593336D01*
X124957952Y-86605159D01*
X124948066Y-86616066D01*
X124937159Y-86625952D01*
X124925336Y-86634720D01*
X124912710Y-86642288D01*
X124899403Y-86648582D01*
X124885543Y-86653541D01*
X124871264Y-86657118D01*
X124856703Y-86659278D01*
X124842000Y-86660000D01*
X123192000Y-86660000D01*
X123177297Y-86659278D01*
X123162736Y-86657118D01*
X123148457Y-86653541D01*
X123134597Y-86648582D01*
X123121290Y-86642288D01*
X123108664Y-86634720D01*
X123096841Y-86625952D01*
X123085934Y-86616066D01*
X123076048Y-86605159D01*
X123067280Y-86593336D01*
X123059712Y-86580710D01*
X123053418Y-86567403D01*
X123048459Y-86553543D01*
X123044882Y-86539264D01*
X123042722Y-86524703D01*
X123042000Y-86510000D01*
X123042000Y-86210000D01*
X123042722Y-86195297D01*
X123044882Y-86180736D01*
X123048459Y-86166457D01*
X123053418Y-86152597D01*
X123059712Y-86139290D01*
X123067280Y-86126664D01*
X123076048Y-86114841D01*
X123085934Y-86103934D01*
X123096841Y-86094048D01*
X123108664Y-86085280D01*
X123121290Y-86077712D01*
X123134597Y-86071418D01*
X123148457Y-86066459D01*
X123162736Y-86062882D01*
X123177297Y-86060722D01*
X123192000Y-86060000D01*
X124842000Y-86060000D01*
X124856703Y-86060722D01*
X124856703Y-86060722D01*
G37*
D13*
X124017000Y-86360000D03*
D12*
G36*
X124856703Y-84790722D02*
G01*
X124871264Y-84792882D01*
X124885543Y-84796459D01*
X124899403Y-84801418D01*
X124912710Y-84807712D01*
X124925336Y-84815280D01*
X124937159Y-84824048D01*
X124948066Y-84833934D01*
X124957952Y-84844841D01*
X124966720Y-84856664D01*
X124974288Y-84869290D01*
X124980582Y-84882597D01*
X124985541Y-84896457D01*
X124989118Y-84910736D01*
X124991278Y-84925297D01*
X124992000Y-84940000D01*
X124992000Y-85240000D01*
X124991278Y-85254703D01*
X124989118Y-85269264D01*
X124985541Y-85283543D01*
X124980582Y-85297403D01*
X124974288Y-85310710D01*
X124966720Y-85323336D01*
X124957952Y-85335159D01*
X124948066Y-85346066D01*
X124937159Y-85355952D01*
X124925336Y-85364720D01*
X124912710Y-85372288D01*
X124899403Y-85378582D01*
X124885543Y-85383541D01*
X124871264Y-85387118D01*
X124856703Y-85389278D01*
X124842000Y-85390000D01*
X123192000Y-85390000D01*
X123177297Y-85389278D01*
X123162736Y-85387118D01*
X123148457Y-85383541D01*
X123134597Y-85378582D01*
X123121290Y-85372288D01*
X123108664Y-85364720D01*
X123096841Y-85355952D01*
X123085934Y-85346066D01*
X123076048Y-85335159D01*
X123067280Y-85323336D01*
X123059712Y-85310710D01*
X123053418Y-85297403D01*
X123048459Y-85283543D01*
X123044882Y-85269264D01*
X123042722Y-85254703D01*
X123042000Y-85240000D01*
X123042000Y-84940000D01*
X123042722Y-84925297D01*
X123044882Y-84910736D01*
X123048459Y-84896457D01*
X123053418Y-84882597D01*
X123059712Y-84869290D01*
X123067280Y-84856664D01*
X123076048Y-84844841D01*
X123085934Y-84833934D01*
X123096841Y-84824048D01*
X123108664Y-84815280D01*
X123121290Y-84807712D01*
X123134597Y-84801418D01*
X123148457Y-84796459D01*
X123162736Y-84792882D01*
X123177297Y-84790722D01*
X123192000Y-84790000D01*
X124842000Y-84790000D01*
X124856703Y-84790722D01*
X124856703Y-84790722D01*
G37*
D13*
X124017000Y-85090000D03*
D12*
G36*
X129806703Y-84790722D02*
G01*
X129821264Y-84792882D01*
X129835543Y-84796459D01*
X129849403Y-84801418D01*
X129862710Y-84807712D01*
X129875336Y-84815280D01*
X129887159Y-84824048D01*
X129898066Y-84833934D01*
X129907952Y-84844841D01*
X129916720Y-84856664D01*
X129924288Y-84869290D01*
X129930582Y-84882597D01*
X129935541Y-84896457D01*
X129939118Y-84910736D01*
X129941278Y-84925297D01*
X129942000Y-84940000D01*
X129942000Y-85240000D01*
X129941278Y-85254703D01*
X129939118Y-85269264D01*
X129935541Y-85283543D01*
X129930582Y-85297403D01*
X129924288Y-85310710D01*
X129916720Y-85323336D01*
X129907952Y-85335159D01*
X129898066Y-85346066D01*
X129887159Y-85355952D01*
X129875336Y-85364720D01*
X129862710Y-85372288D01*
X129849403Y-85378582D01*
X129835543Y-85383541D01*
X129821264Y-85387118D01*
X129806703Y-85389278D01*
X129792000Y-85390000D01*
X128142000Y-85390000D01*
X128127297Y-85389278D01*
X128112736Y-85387118D01*
X128098457Y-85383541D01*
X128084597Y-85378582D01*
X128071290Y-85372288D01*
X128058664Y-85364720D01*
X128046841Y-85355952D01*
X128035934Y-85346066D01*
X128026048Y-85335159D01*
X128017280Y-85323336D01*
X128009712Y-85310710D01*
X128003418Y-85297403D01*
X127998459Y-85283543D01*
X127994882Y-85269264D01*
X127992722Y-85254703D01*
X127992000Y-85240000D01*
X127992000Y-84940000D01*
X127992722Y-84925297D01*
X127994882Y-84910736D01*
X127998459Y-84896457D01*
X128003418Y-84882597D01*
X128009712Y-84869290D01*
X128017280Y-84856664D01*
X128026048Y-84844841D01*
X128035934Y-84833934D01*
X128046841Y-84824048D01*
X128058664Y-84815280D01*
X128071290Y-84807712D01*
X128084597Y-84801418D01*
X128098457Y-84796459D01*
X128112736Y-84792882D01*
X128127297Y-84790722D01*
X128142000Y-84790000D01*
X129792000Y-84790000D01*
X129806703Y-84790722D01*
X129806703Y-84790722D01*
G37*
D13*
X128967000Y-85090000D03*
D12*
G36*
X129806703Y-86060722D02*
G01*
X129821264Y-86062882D01*
X129835543Y-86066459D01*
X129849403Y-86071418D01*
X129862710Y-86077712D01*
X129875336Y-86085280D01*
X129887159Y-86094048D01*
X129898066Y-86103934D01*
X129907952Y-86114841D01*
X129916720Y-86126664D01*
X129924288Y-86139290D01*
X129930582Y-86152597D01*
X129935541Y-86166457D01*
X129939118Y-86180736D01*
X129941278Y-86195297D01*
X129942000Y-86210000D01*
X129942000Y-86510000D01*
X129941278Y-86524703D01*
X129939118Y-86539264D01*
X129935541Y-86553543D01*
X129930582Y-86567403D01*
X129924288Y-86580710D01*
X129916720Y-86593336D01*
X129907952Y-86605159D01*
X129898066Y-86616066D01*
X129887159Y-86625952D01*
X129875336Y-86634720D01*
X129862710Y-86642288D01*
X129849403Y-86648582D01*
X129835543Y-86653541D01*
X129821264Y-86657118D01*
X129806703Y-86659278D01*
X129792000Y-86660000D01*
X128142000Y-86660000D01*
X128127297Y-86659278D01*
X128112736Y-86657118D01*
X128098457Y-86653541D01*
X128084597Y-86648582D01*
X128071290Y-86642288D01*
X128058664Y-86634720D01*
X128046841Y-86625952D01*
X128035934Y-86616066D01*
X128026048Y-86605159D01*
X128017280Y-86593336D01*
X128009712Y-86580710D01*
X128003418Y-86567403D01*
X127998459Y-86553543D01*
X127994882Y-86539264D01*
X127992722Y-86524703D01*
X127992000Y-86510000D01*
X127992000Y-86210000D01*
X127992722Y-86195297D01*
X127994882Y-86180736D01*
X127998459Y-86166457D01*
X128003418Y-86152597D01*
X128009712Y-86139290D01*
X128017280Y-86126664D01*
X128026048Y-86114841D01*
X128035934Y-86103934D01*
X128046841Y-86094048D01*
X128058664Y-86085280D01*
X128071290Y-86077712D01*
X128084597Y-86071418D01*
X128098457Y-86066459D01*
X128112736Y-86062882D01*
X128127297Y-86060722D01*
X128142000Y-86060000D01*
X129792000Y-86060000D01*
X129806703Y-86060722D01*
X129806703Y-86060722D01*
G37*
D13*
X128967000Y-86360000D03*
D12*
G36*
X129806703Y-87330722D02*
G01*
X129821264Y-87332882D01*
X129835543Y-87336459D01*
X129849403Y-87341418D01*
X129862710Y-87347712D01*
X129875336Y-87355280D01*
X129887159Y-87364048D01*
X129898066Y-87373934D01*
X129907952Y-87384841D01*
X129916720Y-87396664D01*
X129924288Y-87409290D01*
X129930582Y-87422597D01*
X129935541Y-87436457D01*
X129939118Y-87450736D01*
X129941278Y-87465297D01*
X129942000Y-87480000D01*
X129942000Y-87780000D01*
X129941278Y-87794703D01*
X129939118Y-87809264D01*
X129935541Y-87823543D01*
X129930582Y-87837403D01*
X129924288Y-87850710D01*
X129916720Y-87863336D01*
X129907952Y-87875159D01*
X129898066Y-87886066D01*
X129887159Y-87895952D01*
X129875336Y-87904720D01*
X129862710Y-87912288D01*
X129849403Y-87918582D01*
X129835543Y-87923541D01*
X129821264Y-87927118D01*
X129806703Y-87929278D01*
X129792000Y-87930000D01*
X128142000Y-87930000D01*
X128127297Y-87929278D01*
X128112736Y-87927118D01*
X128098457Y-87923541D01*
X128084597Y-87918582D01*
X128071290Y-87912288D01*
X128058664Y-87904720D01*
X128046841Y-87895952D01*
X128035934Y-87886066D01*
X128026048Y-87875159D01*
X128017280Y-87863336D01*
X128009712Y-87850710D01*
X128003418Y-87837403D01*
X127998459Y-87823543D01*
X127994882Y-87809264D01*
X127992722Y-87794703D01*
X127992000Y-87780000D01*
X127992000Y-87480000D01*
X127992722Y-87465297D01*
X127994882Y-87450736D01*
X127998459Y-87436457D01*
X128003418Y-87422597D01*
X128009712Y-87409290D01*
X128017280Y-87396664D01*
X128026048Y-87384841D01*
X128035934Y-87373934D01*
X128046841Y-87364048D01*
X128058664Y-87355280D01*
X128071290Y-87347712D01*
X128084597Y-87341418D01*
X128098457Y-87336459D01*
X128112736Y-87332882D01*
X128127297Y-87330722D01*
X128142000Y-87330000D01*
X129792000Y-87330000D01*
X129806703Y-87330722D01*
X129806703Y-87330722D01*
G37*
D13*
X128967000Y-87630000D03*
D12*
G36*
X129806703Y-88600722D02*
G01*
X129821264Y-88602882D01*
X129835543Y-88606459D01*
X129849403Y-88611418D01*
X129862710Y-88617712D01*
X129875336Y-88625280D01*
X129887159Y-88634048D01*
X129898066Y-88643934D01*
X129907952Y-88654841D01*
X129916720Y-88666664D01*
X129924288Y-88679290D01*
X129930582Y-88692597D01*
X129935541Y-88706457D01*
X129939118Y-88720736D01*
X129941278Y-88735297D01*
X129942000Y-88750000D01*
X129942000Y-89050000D01*
X129941278Y-89064703D01*
X129939118Y-89079264D01*
X129935541Y-89093543D01*
X129930582Y-89107403D01*
X129924288Y-89120710D01*
X129916720Y-89133336D01*
X129907952Y-89145159D01*
X129898066Y-89156066D01*
X129887159Y-89165952D01*
X129875336Y-89174720D01*
X129862710Y-89182288D01*
X129849403Y-89188582D01*
X129835543Y-89193541D01*
X129821264Y-89197118D01*
X129806703Y-89199278D01*
X129792000Y-89200000D01*
X128142000Y-89200000D01*
X128127297Y-89199278D01*
X128112736Y-89197118D01*
X128098457Y-89193541D01*
X128084597Y-89188582D01*
X128071290Y-89182288D01*
X128058664Y-89174720D01*
X128046841Y-89165952D01*
X128035934Y-89156066D01*
X128026048Y-89145159D01*
X128017280Y-89133336D01*
X128009712Y-89120710D01*
X128003418Y-89107403D01*
X127998459Y-89093543D01*
X127994882Y-89079264D01*
X127992722Y-89064703D01*
X127992000Y-89050000D01*
X127992000Y-88750000D01*
X127992722Y-88735297D01*
X127994882Y-88720736D01*
X127998459Y-88706457D01*
X128003418Y-88692597D01*
X128009712Y-88679290D01*
X128017280Y-88666664D01*
X128026048Y-88654841D01*
X128035934Y-88643934D01*
X128046841Y-88634048D01*
X128058664Y-88625280D01*
X128071290Y-88617712D01*
X128084597Y-88611418D01*
X128098457Y-88606459D01*
X128112736Y-88602882D01*
X128127297Y-88600722D01*
X128142000Y-88600000D01*
X129792000Y-88600000D01*
X129806703Y-88600722D01*
X129806703Y-88600722D01*
G37*
D13*
X128967000Y-88900000D03*
D12*
G36*
X129806703Y-89870722D02*
G01*
X129821264Y-89872882D01*
X129835543Y-89876459D01*
X129849403Y-89881418D01*
X129862710Y-89887712D01*
X129875336Y-89895280D01*
X129887159Y-89904048D01*
X129898066Y-89913934D01*
X129907952Y-89924841D01*
X129916720Y-89936664D01*
X129924288Y-89949290D01*
X129930582Y-89962597D01*
X129935541Y-89976457D01*
X129939118Y-89990736D01*
X129941278Y-90005297D01*
X129942000Y-90020000D01*
X129942000Y-90320000D01*
X129941278Y-90334703D01*
X129939118Y-90349264D01*
X129935541Y-90363543D01*
X129930582Y-90377403D01*
X129924288Y-90390710D01*
X129916720Y-90403336D01*
X129907952Y-90415159D01*
X129898066Y-90426066D01*
X129887159Y-90435952D01*
X129875336Y-90444720D01*
X129862710Y-90452288D01*
X129849403Y-90458582D01*
X129835543Y-90463541D01*
X129821264Y-90467118D01*
X129806703Y-90469278D01*
X129792000Y-90470000D01*
X128142000Y-90470000D01*
X128127297Y-90469278D01*
X128112736Y-90467118D01*
X128098457Y-90463541D01*
X128084597Y-90458582D01*
X128071290Y-90452288D01*
X128058664Y-90444720D01*
X128046841Y-90435952D01*
X128035934Y-90426066D01*
X128026048Y-90415159D01*
X128017280Y-90403336D01*
X128009712Y-90390710D01*
X128003418Y-90377403D01*
X127998459Y-90363543D01*
X127994882Y-90349264D01*
X127992722Y-90334703D01*
X127992000Y-90320000D01*
X127992000Y-90020000D01*
X127992722Y-90005297D01*
X127994882Y-89990736D01*
X127998459Y-89976457D01*
X128003418Y-89962597D01*
X128009712Y-89949290D01*
X128017280Y-89936664D01*
X128026048Y-89924841D01*
X128035934Y-89913934D01*
X128046841Y-89904048D01*
X128058664Y-89895280D01*
X128071290Y-89887712D01*
X128084597Y-89881418D01*
X128098457Y-89876459D01*
X128112736Y-89872882D01*
X128127297Y-89870722D01*
X128142000Y-89870000D01*
X129792000Y-89870000D01*
X129806703Y-89870722D01*
X129806703Y-89870722D01*
G37*
D13*
X128967000Y-90170000D03*
D12*
G36*
X129806703Y-91140722D02*
G01*
X129821264Y-91142882D01*
X129835543Y-91146459D01*
X129849403Y-91151418D01*
X129862710Y-91157712D01*
X129875336Y-91165280D01*
X129887159Y-91174048D01*
X129898066Y-91183934D01*
X129907952Y-91194841D01*
X129916720Y-91206664D01*
X129924288Y-91219290D01*
X129930582Y-91232597D01*
X129935541Y-91246457D01*
X129939118Y-91260736D01*
X129941278Y-91275297D01*
X129942000Y-91290000D01*
X129942000Y-91590000D01*
X129941278Y-91604703D01*
X129939118Y-91619264D01*
X129935541Y-91633543D01*
X129930582Y-91647403D01*
X129924288Y-91660710D01*
X129916720Y-91673336D01*
X129907952Y-91685159D01*
X129898066Y-91696066D01*
X129887159Y-91705952D01*
X129875336Y-91714720D01*
X129862710Y-91722288D01*
X129849403Y-91728582D01*
X129835543Y-91733541D01*
X129821264Y-91737118D01*
X129806703Y-91739278D01*
X129792000Y-91740000D01*
X128142000Y-91740000D01*
X128127297Y-91739278D01*
X128112736Y-91737118D01*
X128098457Y-91733541D01*
X128084597Y-91728582D01*
X128071290Y-91722288D01*
X128058664Y-91714720D01*
X128046841Y-91705952D01*
X128035934Y-91696066D01*
X128026048Y-91685159D01*
X128017280Y-91673336D01*
X128009712Y-91660710D01*
X128003418Y-91647403D01*
X127998459Y-91633543D01*
X127994882Y-91619264D01*
X127992722Y-91604703D01*
X127992000Y-91590000D01*
X127992000Y-91290000D01*
X127992722Y-91275297D01*
X127994882Y-91260736D01*
X127998459Y-91246457D01*
X128003418Y-91232597D01*
X128009712Y-91219290D01*
X128017280Y-91206664D01*
X128026048Y-91194841D01*
X128035934Y-91183934D01*
X128046841Y-91174048D01*
X128058664Y-91165280D01*
X128071290Y-91157712D01*
X128084597Y-91151418D01*
X128098457Y-91146459D01*
X128112736Y-91142882D01*
X128127297Y-91140722D01*
X128142000Y-91140000D01*
X129792000Y-91140000D01*
X129806703Y-91140722D01*
X129806703Y-91140722D01*
G37*
D13*
X128967000Y-91440000D03*
D12*
G36*
X129806703Y-92410722D02*
G01*
X129821264Y-92412882D01*
X129835543Y-92416459D01*
X129849403Y-92421418D01*
X129862710Y-92427712D01*
X129875336Y-92435280D01*
X129887159Y-92444048D01*
X129898066Y-92453934D01*
X129907952Y-92464841D01*
X129916720Y-92476664D01*
X129924288Y-92489290D01*
X129930582Y-92502597D01*
X129935541Y-92516457D01*
X129939118Y-92530736D01*
X129941278Y-92545297D01*
X129942000Y-92560000D01*
X129942000Y-92860000D01*
X129941278Y-92874703D01*
X129939118Y-92889264D01*
X129935541Y-92903543D01*
X129930582Y-92917403D01*
X129924288Y-92930710D01*
X129916720Y-92943336D01*
X129907952Y-92955159D01*
X129898066Y-92966066D01*
X129887159Y-92975952D01*
X129875336Y-92984720D01*
X129862710Y-92992288D01*
X129849403Y-92998582D01*
X129835543Y-93003541D01*
X129821264Y-93007118D01*
X129806703Y-93009278D01*
X129792000Y-93010000D01*
X128142000Y-93010000D01*
X128127297Y-93009278D01*
X128112736Y-93007118D01*
X128098457Y-93003541D01*
X128084597Y-92998582D01*
X128071290Y-92992288D01*
X128058664Y-92984720D01*
X128046841Y-92975952D01*
X128035934Y-92966066D01*
X128026048Y-92955159D01*
X128017280Y-92943336D01*
X128009712Y-92930710D01*
X128003418Y-92917403D01*
X127998459Y-92903543D01*
X127994882Y-92889264D01*
X127992722Y-92874703D01*
X127992000Y-92860000D01*
X127992000Y-92560000D01*
X127992722Y-92545297D01*
X127994882Y-92530736D01*
X127998459Y-92516457D01*
X128003418Y-92502597D01*
X128009712Y-92489290D01*
X128017280Y-92476664D01*
X128026048Y-92464841D01*
X128035934Y-92453934D01*
X128046841Y-92444048D01*
X128058664Y-92435280D01*
X128071290Y-92427712D01*
X128084597Y-92421418D01*
X128098457Y-92416459D01*
X128112736Y-92412882D01*
X128127297Y-92410722D01*
X128142000Y-92410000D01*
X129792000Y-92410000D01*
X129806703Y-92410722D01*
X129806703Y-92410722D01*
G37*
D13*
X128967000Y-92710000D03*
M02*
